<svg width="80" height="49" viewBox="0 0 80 49" fill="none" xmlns="http://www.w3.org/2000/svg">
<path d="M38.5374 9.94727C49.9262 9.94727 60.059 12.4365 66.5406 16.3042C60.059 20.1719 49.9278 22.6611 38.5374 22.6611C27.1486 22.6611 17.0158 20.1719 10.5342 16.3042C17.0174 12.4365 27.1486 9.94727 38.5374 9.94727Z" stroke="white" stroke-width="0.9724" stroke-miterlimit="2.6131"/>
<mask id="mask0_125_4139" style="mask-type:luminance" maskUnits="userSpaceOnUse" x="10" y="9" width="57" height="14">
<path d="M38.5403 9.94385C49.9291 9.94385 60.0619 12.433 66.5435 16.3008C60.0619 20.1685 49.9291 22.6577 38.5403 22.6577C27.1515 22.6577 17.0187 20.1685 10.5371 16.3008C17.0187 12.433 27.1499 9.94385 38.5403 9.94385Z" fill="white"/>
</mask>
<g mask="url(#mask0_125_4139)">
<path fill-rule="evenodd" clip-rule="evenodd" d="M61.9255 17.0995C61.8023 16.9721 61.6071 16.7843 61.3799 16.5638C61.6535 16.8055 61.8631 17.0048 61.9255 17.0995ZM53.6199 16.3008H55.0983L55.2823 16.7941H53.4407L53.6199 16.3008ZM52.8951 17.387L52.3863 16.9721L51.6471 16.3008H53.2887L52.8951 17.387ZM48.6967 16.3008H48.8423L48.6967 16.4331V16.3008ZM48.3799 17.6695C47.6423 17.1648 46.8359 16.7549 45.9271 16.3008H48.3799V17.6695ZM48.6967 18.1563C48.7671 18.2036 48.8375 18.251 48.9063 18.3H48.6967V18.1563ZM40.8215 17.2873C40.3495 16.9999 39.8327 16.6895 39.2615 16.3498V16.3008H40.2503L40.8215 17.2873ZM41.6871 17.8247C41.5879 17.7626 41.4871 17.6989 41.3831 17.6336L40.6119 16.3008H41.6871V17.8247ZM36.8839 16.3008H37.8919C37.9415 16.3727 38.0167 16.4249 38.1063 16.4445C38.3975 16.585 38.6775 16.7206 38.9447 16.8496V18.3016H38.6807C38.6023 18.3016 38.5463 18.3163 38.5143 18.3457C38.4823 18.3751 38.4647 18.4143 38.4647 18.4633C38.4647 18.5091 38.4807 18.5483 38.5143 18.5793C38.5463 18.6087 38.6023 18.625 38.6807 18.625H39.8455C39.9239 18.625 39.9799 18.6087 40.0119 18.5793C40.0439 18.5483 40.0615 18.5091 40.0615 18.4633C40.0615 18.4143 40.0455 18.3751 40.0119 18.3457C39.9799 18.3147 39.9239 18.3016 39.8455 18.3016H39.2615V17.0048C40.0039 17.369 40.6567 17.7006 41.2391 18.0093L41.5943 18.625H42.0023V18.4274C44.7111 19.948 45.8231 21.0979 48.3047 23.8713C48.6551 24.3041 48.9767 24.6929 49.3591 25.0506C48.9799 24.6259 48.6311 24.2355 48.3047 23.8713C48.6551 24.3041 48.9767 24.6929 49.3591 25.0506C46.0151 21.1208 45.1047 20.015 42.0023 18.0256V16.3008H43.8087C44.1991 16.4102 44.5719 16.5131 44.9303 16.616V18.3016H43.8439C43.7671 18.3016 43.7143 18.3163 43.6823 18.3457C43.6503 18.3751 43.6343 18.4143 43.6343 18.4633C43.6343 18.5091 43.6503 18.5483 43.6823 18.5793C43.7143 18.6087 43.7687 18.625 43.8439 18.625H46.3335C46.4087 18.625 46.4615 18.6087 46.4951 18.5793C46.5271 18.5483 46.5431 18.5091 46.5431 18.4633C46.5431 18.4143 46.5271 18.3751 46.4951 18.3457C46.4615 18.3147 46.4071 18.3016 46.3335 18.3016H45.2471V16.7075C46.4391 17.057 47.4583 17.4115 48.3783 17.957V18.3H47.9527C47.8759 18.3 47.8231 18.3147 47.7911 18.3441C47.7575 18.3735 47.7431 18.4127 47.7431 18.4617C47.7431 18.5074 47.7591 18.5466 47.7911 18.5777C47.8231 18.6071 47.8775 18.6234 47.9527 18.6234H49.2807C49.2967 18.6234 49.3111 18.6234 49.3255 18.6218C49.9415 19.1297 50.5207 19.7716 51.0903 20.6177C50.7655 20.0722 50.4343 19.6083 50.0903 19.2032C50.4791 19.6165 50.8167 20.0836 51.0903 20.6177C50.8183 20.0836 50.4791 19.6165 50.0903 19.2032C49.8887 18.9648 49.6823 18.7475 49.4695 18.5466C49.4855 18.5221 49.4935 18.4927 49.4935 18.4617C49.4935 18.4127 49.4775 18.3735 49.4439 18.3441C49.4119 18.3131 49.3559 18.3 49.2775 18.3H49.1959C49.0311 18.1579 48.8631 18.0223 48.6919 17.8949V16.8594L49.3015 16.2992H49.4039C49.7111 16.4102 49.9687 16.5883 50.1783 16.8333C50.4055 17.0995 50.6839 17.6957 51.0167 18.6218H51.6263C51.7047 18.6218 51.7607 18.6054 51.7927 18.576C51.8263 18.545 51.8407 18.5058 51.8407 18.4601C51.8407 18.4111 51.8247 18.3719 51.7927 18.3425C51.7607 18.3114 51.7047 18.2984 51.6263 18.2984H51.2311C50.9895 17.6826 50.8231 17.2906 50.7335 17.124C50.5751 16.8267 50.4103 16.5964 50.2391 16.4347C50.1879 16.3874 50.1335 16.3416 50.0759 16.2975H50.8375L52.2247 17.1616L52.8199 17.5764L52.5591 18.2967H52.3191C52.2423 18.2967 52.1895 18.3114 52.1575 18.3408C52.1255 18.3702 52.1079 18.4094 52.1079 18.4584C52.1079 18.5042 52.1239 18.5434 52.1575 18.5744C52.1895 18.6038 52.2439 18.6201 52.3191 18.6201H53.5031C53.5783 18.6201 53.6311 18.6038 53.6647 18.5744C53.6967 18.5434 53.7143 18.5042 53.7143 18.4584C53.7143 18.4094 53.6983 18.3702 53.6647 18.3408C53.6311 18.3098 53.5767 18.2967 53.5031 18.2967H52.8951L53.0887 17.7594L53.5143 18.055C54.0007 18.4388 54.4775 18.7835 54.9367 19.0464L53.5143 18.055C54.0007 18.4388 54.4775 18.7835 54.9367 19.0464L53.1511 17.5911L53.3223 17.1142H55.4039L55.8375 18.2967H55.2343C55.1559 18.2967 55.0999 18.3114 55.0679 18.3408C55.0343 18.3702 55.0199 18.4094 55.0199 18.4584C55.0199 18.5042 55.0359 18.5434 55.0679 18.5744C55.0999 18.6038 55.1559 18.6201 55.2343 18.6201H56.4151C56.4903 18.6201 56.5431 18.6038 56.5767 18.5744C56.6103 18.5434 56.6263 18.5042 56.6263 18.4584C56.6263 18.4094 56.6103 18.3702 56.5767 18.3408C56.5447 18.3098 56.4903 18.2967 56.4151 18.2967H56.1687L55.4295 16.2959H55.8279C56.7047 16.8708 57.5239 17.6222 58.1863 18.1399C57.4455 17.4784 56.8039 16.8512 56.1287 16.2959H56.2327H56.7495C57.6567 16.9754 58.5143 17.7643 58.9927 18.1334C58.5143 17.7643 57.6583 16.9754 56.7495 16.2959H60.9719C61.3319 16.5899 61.6631 16.879 61.9255 17.093C61.8647 16.9999 61.6535 16.799 61.3799 16.5572L61.1079 16.2959H75.2327V25.2498H42.5367C41.0663 22.7459 37.9751 20.4217 35.1511 18.5319C35.1623 18.5091 35.1687 18.4846 35.1687 18.4568C35.1687 18.4078 35.1527 18.3686 35.1191 18.3392C35.0855 18.3082 35.0311 18.2951 34.9575 18.2951H34.7959C34.6759 18.2151 34.5559 18.1367 34.4359 18.0583L34.7767 17.1126H36.8583L37.2919 18.2951H36.6887C36.6103 18.2951 36.5543 18.3098 36.5223 18.3392C36.4887 18.3686 36.4743 18.4078 36.4743 18.4568C36.4743 18.5025 36.4903 18.5417 36.5223 18.5728C36.5543 18.6022 36.6103 18.6185 36.6887 18.6185H37.8695C37.9447 18.6185 37.9975 18.6022 38.0311 18.5728C38.0647 18.5417 38.0807 18.5025 38.0807 18.4568C38.0807 18.4078 38.0631 18.3686 38.0311 18.3392C37.9991 18.3082 37.9447 18.2951 37.8695 18.2951H37.6231L36.8839 16.3008ZM35.0759 16.3008H36.5543L36.7383 16.7941H34.8967L35.0759 16.3008ZM31.7127 16.3008H34.7431L34.1671 17.8884C33.2743 17.3069 32.4343 16.7745 31.7127 16.3008ZM40.8423 23.1869C41.4999 23.8468 42.0663 24.5377 42.5015 25.2547H42.4087C41.9255 24.492 41.4007 23.8076 40.8423 23.1869ZM28.4791 16.3008H30.6695C30.6807 16.4021 30.7351 16.4984 30.8263 16.5589L31.0151 16.6634V18.3016H30.1927C30.1175 18.3016 30.0647 18.3163 30.0311 18.3457C29.9991 18.3751 29.9831 18.4143 29.9831 18.4633C29.9831 18.5091 29.9991 18.5483 30.0311 18.5793C30.0647 18.6087 30.1191 18.625 30.1927 18.625H32.1591C32.2343 18.625 32.2871 18.6087 32.3207 18.5793C32.3527 18.5483 32.3703 18.5091 32.3703 18.4633C32.3703 18.4143 32.3543 18.3751 32.3207 18.3457C32.2871 18.3147 32.2327 18.3016 32.1591 18.3016H31.3367V16.8398C31.6663 17.0211 32.0183 17.2122 32.3847 17.4131C32.8903 17.6908 33.4279 17.9864 33.9815 18.3016H33.7735C33.6967 18.3016 33.6439 18.3163 33.6119 18.3457C33.5799 18.3751 33.5623 18.4143 33.5623 18.4633C33.5623 18.5091 33.5783 18.5483 33.6119 18.5793C33.6439 18.6087 33.6983 18.625 33.7735 18.625H34.5447C36.7303 19.8941 39.0999 21.4344 40.8439 23.1869C41.4007 23.8076 41.9255 24.492 42.4103 25.2547H41.0919H35.2039C35.1575 25.1502 35.1047 25.0457 35.0471 24.9362C35.1015 25.044 35.1495 25.1502 35.1927 25.2547H35.2039C35.1575 25.1502 35.1047 25.0457 35.0471 24.9362C33.9543 22.7492 30.8023 20.0215 27.8407 18.1628C27.9927 17.9995 28.1207 17.8051 28.2231 17.5813C28.3943 17.2122 28.4807 16.812 28.4807 16.3808C28.4807 16.3563 28.4807 16.3286 28.4791 16.3008ZM24.9351 16.3008H28.1591C28.1591 16.3286 28.1607 16.3563 28.1607 16.3841C28.1607 16.9117 28.0103 17.3853 27.7111 17.8035C27.6631 17.8704 27.6119 17.9341 27.5575 17.9897C26.6375 17.4278 25.7431 16.9541 24.9431 16.6128C24.9383 16.5376 24.9351 16.4625 24.9351 16.3841C24.9351 16.3563 24.9351 16.3286 24.9351 16.3008ZM24.1335 16.3008H24.6199C24.6199 16.3286 24.6183 16.3563 24.6183 16.3841C24.6183 16.4168 24.6183 16.4478 24.6199 16.4788C24.4519 16.4135 24.2903 16.3531 24.1335 16.3008ZM25.0295 17.1109C25.7303 17.3559 26.5175 17.7251 27.3383 18.1824C27.1095 18.3457 26.8455 18.4274 26.5479 18.4274C26.1319 18.4274 25.7607 18.2363 25.4295 17.8557C25.2439 17.6434 25.1111 17.3935 25.0295 17.1109ZM23.5975 16.7826C23.9159 16.8022 24.2791 16.8757 24.6743 16.995C24.7575 17.418 24.9335 17.7822 25.1991 18.0877C25.5879 18.5303 26.0375 18.7524 26.5479 18.7524C26.8919 18.7524 27.2151 18.6495 27.5143 18.4437C27.5559 18.4143 27.5975 18.3849 27.6375 18.3523C30.7159 20.131 34.1543 23.0595 35.1591 25.2547H34.2743H26.4887C25.9671 24.4871 25.2071 23.5593 24.3079 22.5973C25.0487 23.4679 25.7511 24.3678 26.4263 25.2547H26.4887C25.9671 24.4871 25.2071 23.5593 24.3079 22.5973C23.0679 21.1371 21.7223 19.7553 20.2311 18.625H22.4967C22.7399 18.625 22.9671 18.5613 23.1735 18.4356C23.3815 18.3114 23.5335 18.1579 23.6359 17.9799C23.7367 17.8018 23.7863 17.6058 23.7863 17.3902C23.7879 17.1697 23.7239 16.9672 23.5975 16.7826ZM23.0487 16.6814C23.0727 16.7042 23.0999 16.7238 23.1287 16.7402C23.1927 16.7924 23.2503 16.8529 23.2983 16.9198C23.4103 17.0734 23.4663 17.2318 23.4663 17.3968C23.4663 17.5438 23.4263 17.6842 23.3495 17.8214C23.2711 17.957 23.1559 18.0713 23.0055 18.1628C22.8551 18.2559 22.6775 18.3016 22.4743 18.3016H20.8711V16.4494H22.0103C22.3591 16.4494 22.6343 16.4886 22.8327 16.5687C22.9127 16.5997 22.9831 16.6373 23.0487 16.6814ZM15.7815 16.3008H20.5543V18.3016H20.1287C20.0519 18.3016 19.9991 18.3163 19.9671 18.3457C19.9495 18.3604 19.9383 18.3784 19.9303 18.3996C18.6583 17.4784 17.2839 16.7451 15.7815 16.3008ZM6.22949 16.3008H14.0919C14.0903 16.3188 14.0887 16.3367 14.0903 16.3563C14.0967 16.5523 14.2583 16.7042 14.4503 16.6977C18.1687 15.7879 24.1175 22.4503 26.4023 25.2564H26.1351H6.22949V16.3008Z" fill="white"/>
</g>
<mask id="mask1_125_4139" style="mask-type:luminance" maskUnits="userSpaceOnUse" x="10" y="9" width="57" height="14">
<path d="M38.5403 9.94385C49.9291 9.94385 60.0619 12.433 66.5435 16.3008C60.0619 20.1685 49.9291 22.6577 38.5403 22.6577C27.1515 22.6577 17.0187 20.1685 10.5371 16.3008C17.0187 12.433 27.1499 9.94385 38.5403 9.94385Z" fill="white"/>
</mask>
<g mask="url(#mask1_125_4139)">
<path d="M53.2894 16.3008L53.963 14.4421H53.0286C52.9518 14.4421 52.899 14.4274 52.867 14.398C52.8334 14.3669 52.8174 14.3277 52.8174 14.2804C52.8174 14.2314 52.8334 14.1922 52.867 14.1628C52.899 14.1317 52.9534 14.1187 53.0286 14.1187H54.6238L55.4302 16.3008H55.1006L54.4094 14.4421H54.2926L53.6222 16.3008H53.2894Z" fill="white"/>
</g>
<mask id="mask2_125_4139" style="mask-type:luminance" maskUnits="userSpaceOnUse" x="10" y="9" width="57" height="14">
<path d="M38.5403 9.94385C49.9291 9.94385 60.0619 12.433 66.5435 16.3008C60.0619 20.1685 49.9291 22.6577 38.5403 22.6577C27.1515 22.6577 17.0187 20.1685 10.5371 16.3008C17.0187 12.433 27.1499 9.94385 38.5403 9.94385Z" fill="white"/>
</mask>
<g mask="url(#mask2_125_4139)">
<path d="M48.8427 16.3008L50.8843 14.4421H50.5387C50.4603 14.4421 50.4043 14.4274 50.3723 14.398C50.3387 14.3669 50.3227 14.3277 50.3227 14.2804C50.3227 14.2314 50.3387 14.1922 50.3723 14.1628C50.4043 14.1317 50.4603 14.1187 50.5387 14.1187H51.4699C51.5467 14.1187 51.5995 14.1334 51.6315 14.1628C51.6651 14.1922 51.6795 14.2314 51.6795 14.2804C51.6795 14.3294 51.6635 14.3686 51.6315 14.398C51.5995 14.4274 51.5451 14.4421 51.4699 14.4421H51.3419L49.5979 16.0329C49.7803 16.1081 49.9403 16.1979 50.0795 16.3008H49.4075C49.3835 16.2926 49.3579 16.2828 49.3339 16.2763L49.3067 16.3008H48.8427ZM48.3803 16.3008V14.4421H47.9547C47.8779 14.4421 47.8251 14.4274 47.7931 14.398C47.7595 14.3669 47.7451 14.3277 47.7451 14.2804C47.7451 14.2314 47.7611 14.1922 47.7931 14.1628C47.8251 14.1317 47.8795 14.1187 47.9547 14.1187H49.2827C49.3611 14.1187 49.4171 14.1334 49.4491 14.1628C49.4811 14.1922 49.4987 14.2314 49.4987 14.2804C49.4987 14.3294 49.4827 14.3686 49.4491 14.398C49.4171 14.4274 49.3611 14.4421 49.2827 14.4421H48.6987V16.3008H48.3803Z" fill="white"/>
</g>
<mask id="mask3_125_4139" style="mask-type:luminance" maskUnits="userSpaceOnUse" x="10" y="9" width="57" height="14">
<path d="M38.5403 9.94385C49.9291 9.94385 60.0619 12.433 66.5435 16.3008C60.0619 20.1685 49.9291 22.6577 38.5403 22.6577C27.1515 22.6577 17.0187 20.1685 10.5371 16.3008C17.0187 12.433 27.1499 9.94385 38.5403 9.94385Z" fill="white"/>
</mask>
<g mask="url(#mask3_125_4139)">
<path d="M45.2495 14.4421V16.3008H44.9327V14.4421H43.8463C43.7695 14.4421 43.7167 14.4274 43.6847 14.398C43.6527 14.3669 43.6367 14.3277 43.6367 14.2804C43.6367 14.2314 43.6527 14.1922 43.6847 14.1628C43.7167 14.1317 43.7711 14.1187 43.8463 14.1187H46.3359C46.4111 14.1187 46.4639 14.1334 46.4975 14.1628C46.5295 14.1922 46.5455 14.2314 46.5455 14.2804C46.5455 14.3294 46.5295 14.3686 46.4975 14.398C46.4639 14.4274 46.4095 14.4421 46.3359 14.4421H45.2495Z" fill="white"/>
</g>
<mask id="mask4_125_4139" style="mask-type:luminance" maskUnits="userSpaceOnUse" x="10" y="9" width="57" height="14">
<path d="M38.5403 9.94385C49.9291 9.94385 60.0619 12.433 66.5435 16.3008C60.0619 20.1685 49.9291 22.6577 38.5403 22.6577C27.1515 22.6577 17.0187 20.1685 10.5371 16.3008C17.0187 12.433 27.1499 9.94385 38.5403 9.94385Z" fill="white"/>
</mask>
<g mask="url(#mask4_125_4139)">
<path d="M41.6878 16.3008V14.4421H41.1038C41.0286 14.4421 40.9742 14.4274 40.9422 14.398C40.9086 14.3669 40.8926 14.3277 40.8926 14.2804C40.8926 14.2314 40.9086 14.1922 40.939 14.1628C40.971 14.1317 41.0254 14.1187 41.1038 14.1187H42.2734C42.3486 14.1187 42.4014 14.1334 42.435 14.1628C42.467 14.1922 42.4846 14.2314 42.4846 14.2804C42.4846 14.3294 42.4686 14.3686 42.435 14.398C42.4014 14.4274 42.347 14.4421 42.2734 14.4421H42.0062V16.3008H41.6878ZM40.251 16.3008L39.2622 14.594V16.3008H38.9454V14.4421H38.5198C38.4446 14.4421 38.3902 14.4274 38.3582 14.398C38.3246 14.3669 38.3086 14.3277 38.3086 14.2804C38.3086 14.2314 38.3246 14.1922 38.3582 14.1628C38.3902 14.1317 38.4446 14.1187 38.5198 14.1187H39.3486L40.6126 16.3008H40.251Z" fill="white"/>
</g>
<mask id="mask5_125_4139" style="mask-type:luminance" maskUnits="userSpaceOnUse" x="10" y="9" width="57" height="14">
<path d="M38.5403 9.94385C49.9291 9.94385 60.0619 12.433 66.5435 16.3008C60.0619 20.1685 49.9291 22.6577 38.5403 22.6577C27.1515 22.6577 17.0187 20.1685 10.5371 16.3008C17.0187 12.433 27.1499 9.94385 38.5403 9.94385Z" fill="white"/>
</mask>
<g mask="url(#mask5_125_4139)">
<path d="M34.7435 16.3008L35.4171 14.4421H34.4827C34.4059 14.4421 34.3531 14.4274 34.3211 14.398C34.2875 14.3669 34.2715 14.3277 34.2715 14.2804C34.2715 14.2314 34.2875 14.1922 34.3211 14.1628C34.3531 14.1317 34.4075 14.1187 34.4827 14.1187H36.0779L36.8843 16.3008H36.5547L35.8635 14.4421H35.7467L35.0763 16.3008H34.7435Z" fill="white"/>
</g>
<mask id="mask6_125_4139" style="mask-type:luminance" maskUnits="userSpaceOnUse" x="10" y="9" width="57" height="14">
<path d="M38.5403 9.94385C49.9291 9.94385 60.0619 12.433 66.5435 16.3008C60.0619 20.1685 49.9291 22.6577 38.5403 22.6577C27.1515 22.6577 17.0187 20.1685 10.5371 16.3008C17.0187 12.433 27.1499 9.94385 38.5403 9.94385Z" fill="white"/>
</mask>
<g mask="url(#mask6_125_4139)">
<path d="M31.3367 14.4421V16.3008H31.0167V14.4421H29.7191V15.5625C29.7191 15.6409 29.7047 15.6981 29.6759 15.7324C29.6471 15.7651 29.6087 15.783 29.5607 15.783C29.5159 15.783 29.4775 15.7667 29.4471 15.7324C29.4183 15.6981 29.4023 15.6426 29.4023 15.5625V14.1187H32.9527V15.5625C32.9527 15.6409 32.9383 15.6981 32.9095 15.7324C32.8807 15.7651 32.8423 15.783 32.7943 15.783C32.7463 15.783 32.7079 15.7667 32.6791 15.7324C32.6503 15.6981 32.6359 15.6426 32.6359 15.5625V14.4421H31.3367Z" fill="white"/>
</g>
<mask id="mask7_125_4139" style="mask-type:luminance" maskUnits="userSpaceOnUse" x="10" y="9" width="57" height="14">
<path d="M38.5403 9.94385C49.9291 9.94385 60.0619 12.433 66.5435 16.3008C60.0619 20.1685 49.9291 22.6577 38.5403 22.6577C27.1515 22.6577 17.0187 20.1685 10.5371 16.3008C17.0187 12.433 27.1499 9.94385 38.5403 9.94385Z" fill="white"/>
</mask>
<g mask="url(#mask7_125_4139)">
<path d="M24.6191 16.3008C24.6335 15.6426 24.8287 15.102 25.1999 14.6773C25.5887 14.2363 26.0383 14.0142 26.5487 14.0142C26.8927 14.0142 27.2143 14.1171 27.5151 14.3229C27.8143 14.5287 28.0495 14.8145 28.2223 15.182C28.3839 15.525 28.4703 15.899 28.4799 16.3008H28.1599C28.1455 15.8076 27.9951 15.3633 27.7119 14.9664C27.4127 14.5466 27.0255 14.3376 26.5503 14.3376C26.1055 14.3376 25.7247 14.5368 25.4079 14.937C25.1087 15.3176 24.9519 15.77 24.9359 16.3008H24.6191Z" fill="white"/>
</g>
<mask id="mask8_125_4139" style="mask-type:luminance" maskUnits="userSpaceOnUse" x="10" y="9" width="57" height="14">
<path d="M38.5403 9.94385C49.9291 9.94385 60.0619 12.433 66.5435 16.3008C60.0619 20.1685 49.9291 22.6577 38.5403 22.6577C27.1515 22.6577 17.0187 20.1685 10.5371 16.3008C17.0187 12.433 27.1499 9.94385 38.5403 9.94385Z" fill="white"/>
</mask>
<g mask="url(#mask8_125_4139)">
<path d="M20.8716 16.1228H21.9916C22.2316 16.1228 22.4508 16.0787 22.6476 15.9872C22.8012 15.9153 22.9212 15.8108 23.006 15.6752C23.0924 15.538 23.134 15.4008 23.134 15.2587C23.134 15.0562 23.0412 14.87 22.854 14.6985C22.6684 14.527 22.4252 14.4421 22.126 14.4421H20.87V16.1228H20.8716ZM20.5548 16.3008V14.4421H20.1292C20.0524 14.4421 19.9996 14.4274 19.9676 14.398C19.9356 14.3669 19.918 14.3277 19.918 14.2804C19.918 14.2314 19.934 14.1922 19.9676 14.1628C19.9996 14.1317 20.054 14.1187 20.1292 14.1187H22.1212C22.5148 14.1187 22.8364 14.2363 23.0844 14.4666C23.3324 14.7001 23.4572 14.9729 23.4572 15.2849C23.4572 15.6801 23.2508 16.0003 22.8348 16.2436C22.8844 16.2616 22.9308 16.2812 22.9756 16.3008H20.5548Z" fill="white"/>
</g>
<path d="M13.6735 33.3119C13.7615 32.5752 13.7487 31.8092 13.6383 31.017C13.5263 30.2249 13.3471 29.4523 13.0959 28.7026C12.9807 28.91 12.8719 29.1207 12.7663 29.338C12.6623 29.5552 12.5727 29.7773 12.4975 30.0044C12.3903 30.3212 12.3023 30.6642 12.2351 31.0334C12.1679 31.4025 12.1311 31.7749 12.1231 32.1489C12.1167 32.5246 12.1503 32.8954 12.2239 33.2596C12.2975 33.6255 12.4223 33.9619 12.5983 34.2723C12.7199 34.4928 12.8415 34.5973 12.9631 34.5875C13.0847 34.5777 13.1935 34.5042 13.2927 34.3703C13.3903 34.2363 13.4735 34.0665 13.5407 33.8639C13.6079 33.6614 13.6527 33.4785 13.6735 33.3119ZM11.7487 26.1595C11.7215 26.104 11.7263 26.0582 11.7647 26.0207C11.8015 25.9831 11.8479 25.9847 11.9007 26.0256C12.1375 26.3147 12.3567 26.6446 12.5583 27.0121C12.7615 27.3812 12.9423 27.7683 13.1055 28.175C13.3423 27.783 13.6191 27.427 13.9359 27.1101C14.2527 26.7932 14.6143 26.5417 15.0191 26.3555C15.1471 26.3 15.2847 26.3049 15.4287 26.3702C15.5743 26.4355 15.6799 26.5368 15.7471 26.6756C15.8143 26.8128 15.8607 26.9631 15.8831 27.1248C15.9071 27.2865 15.9151 27.4515 15.9087 27.6213C15.9023 27.7896 15.8831 27.9562 15.8527 28.1179C15.8223 28.2796 15.7935 28.4331 15.7663 28.5785C15.7119 28.812 15.6431 29.0374 15.5583 29.2498C15.4735 29.4637 15.3807 29.6712 15.2799 29.8753C15.1791 30.0779 15.0735 30.2804 14.9663 30.4797C14.8591 30.6789 14.7535 30.8864 14.6527 31.1003C14.6127 31.1902 14.5839 31.2767 14.5663 31.3584C14.5487 31.4417 14.5743 31.5266 14.6431 31.6165C14.7311 31.7194 14.8575 31.801 15.0223 31.8598C15.1871 31.9186 15.3663 31.9595 15.5583 31.984C15.7503 32.0085 15.9407 32.0232 16.1311 32.0313C16.3199 32.0379 16.4783 32.0444 16.6063 32.0526C16.6607 32.0656 16.6895 32.0999 16.6927 32.1555C16.6959 32.211 16.6639 32.2453 16.5967 32.2584C16.4207 32.2453 16.2479 32.2306 16.0751 32.2175C15.9023 32.2045 15.7295 32.1898 15.5535 32.1767C15.1759 32.1277 14.8975 32.0591 14.7183 31.9693C14.5391 31.8794 14.4351 31.7602 14.4047 31.6132C14.3743 31.4646 14.4015 31.2882 14.4863 31.0807C14.5711 30.8733 14.6879 30.6299 14.8351 30.3474C14.9631 30.1138 15.0815 29.877 15.1887 29.6385C15.2975 29.4 15.3871 29.1583 15.4623 28.91C15.4895 28.8267 15.5199 28.7059 15.5535 28.5425C15.5871 28.3808 15.6159 28.2061 15.6399 28.0199C15.6639 27.8337 15.6783 27.6442 15.6863 27.4515C15.6927 27.2587 15.6767 27.0905 15.6351 26.9451C15.5951 26.7998 15.5295 26.6903 15.4383 26.6136C15.3471 26.5384 15.2207 26.5205 15.0591 26.5613C14.8975 26.6021 14.7343 26.6789 14.5727 26.7883C14.4111 26.8994 14.2591 27.0268 14.1167 27.1705C13.9743 27.3159 13.8447 27.4662 13.7263 27.6246C13.6079 27.783 13.5087 27.9349 13.4271 28.0787L13.2143 28.4609C13.3759 28.9084 13.5071 29.3576 13.6095 29.81C13.7103 30.2608 13.7743 30.6936 13.8015 31.1069C13.8015 31.1281 13.8111 31.2081 13.8319 31.3502C13.8527 31.4907 13.8687 31.6671 13.8831 31.8778C13.8959 32.0885 13.9055 32.3221 13.9087 32.5801C13.9119 32.8382 13.8991 33.093 13.8687 33.3445C13.8383 33.5961 13.7855 33.8378 13.7119 34.0681C13.6383 34.2984 13.5327 34.4895 13.3983 34.6414C13.2975 34.759 13.2063 34.8325 13.1247 34.8635C13.0431 34.8946 12.9663 34.8946 12.8911 34.8635C12.8175 34.8325 12.7423 34.7753 12.6687 34.6937C12.5951 34.6104 12.5167 34.5075 12.4367 34.3833C12.3359 34.238 12.2479 34.0518 12.1727 33.8198C12.0991 33.5895 12.0415 33.3494 11.9999 33.1012C11.9599 32.8529 11.9343 32.6079 11.9231 32.3678C11.9135 32.1261 11.9215 31.9203 11.9487 31.7471C12.0031 31.4368 12.0495 31.1297 12.0911 30.8276C12.1311 30.5238 12.1999 30.2281 12.2943 29.939C12.4703 29.4082 12.6991 28.8921 12.9823 28.389C12.8271 27.9758 12.6479 27.5821 12.4463 27.2114C12.2447 26.8422 12.0127 26.4911 11.7487 26.1595Z" fill="white"/>
<path d="M16.7904 33.1567C16.9936 32.915 17.168 32.6537 17.3168 32.3711C17.4656 32.0885 17.5728 31.8272 17.64 31.5855C17.688 31.414 17.7088 31.2376 17.7056 31.0579C17.7024 30.8782 17.6192 30.7378 17.4576 30.6349C17.2688 30.71 17.1216 30.839 17.0176 31.022C16.9136 31.2049 16.8384 31.4091 16.7952 31.6377C16.752 31.8648 16.7296 32.0951 16.7296 32.3303C16.7296 32.5638 16.7392 32.768 16.76 32.9395L16.7904 33.1567ZM18.4624 33.2302C18.496 33.2645 18.5056 33.3021 18.4928 33.3446H18.5024L18.4928 33.3544C18.4864 33.3821 18.4688 33.4034 18.4416 33.4164C18.2592 33.6239 18.08 33.8019 17.9056 33.9538C17.7296 34.1057 17.5824 34.1743 17.4608 34.1612C17.2784 34.1482 17.1248 34.0845 17 33.9701C16.8752 33.8558 16.776 33.7104 16.7008 33.5308L16.6304 33.3446C16.5488 33.0767 16.5088 32.7794 16.5088 32.456C16.5088 32.1326 16.5472 31.8239 16.6256 31.5316C16.704 31.2392 16.8128 30.9893 16.9552 30.7819C17.0976 30.5744 17.2656 30.4552 17.4608 30.4193C17.5952 30.398 17.696 30.4421 17.76 30.5483C17.824 30.6545 17.864 30.7802 17.8816 30.9256C17.8992 31.071 17.9008 31.2147 17.8864 31.3601C17.8736 31.5054 17.856 31.6018 17.8352 31.6492C17.7008 32.0216 17.56 32.3433 17.4144 32.6161C17.2688 32.8889 17.0816 33.1453 16.8528 33.3854C16.9072 33.5438 16.9792 33.6859 17.0704 33.8084C17.1616 33.9326 17.288 33.9799 17.4496 33.9538C17.6384 33.9195 17.8048 33.8297 17.9456 33.6843C18.088 33.5389 18.2128 33.3985 18.32 33.2613V33.2711C18.3536 33.2155 18.4016 33.2025 18.4624 33.2302Z" fill="white"/>
<path d="M18.7249 31.0069C18.7729 31.0069 18.8065 31.0216 18.8257 31.0526C18.8465 31.0837 18.8497 31.1163 18.8353 31.1506C18.9505 31.1996 19.0753 31.2225 19.2097 31.2225C19.2433 30.7815 19.2849 30.3258 19.3361 29.8538C19.3873 29.3817 19.4497 28.9293 19.5233 28.4948C19.5441 28.4262 19.5841 28.3968 19.6449 28.4066C19.7057 28.4164 19.7297 28.4605 19.7153 28.5357C19.6417 28.9554 19.5809 29.3964 19.5329 29.8587C19.4865 30.3209 19.4449 30.7684 19.4113 31.2029C19.6001 31.1817 19.7841 31.1392 19.9633 31.0739C20.1425 31.0085 20.3089 30.9448 20.4641 30.8828C20.5377 30.8615 20.5857 30.8811 20.6065 30.9399C20.6273 30.9987 20.6065 31.0445 20.5457 31.0788C20.5057 31.0918 20.4449 31.1147 20.3633 31.1457C20.2817 31.1768 20.1905 31.2078 20.0897 31.2388C19.9889 31.2699 19.8785 31.2993 19.7601 31.327C19.6417 31.3548 19.5217 31.376 19.4001 31.3891L19.3601 32.1649C19.3537 32.3103 19.3441 32.4671 19.3345 32.6353C19.3249 32.8036 19.3233 32.9734 19.3297 33.1417C19.3361 33.3099 19.3537 33.4765 19.3809 33.6382C19.4081 33.7999 19.4593 33.9502 19.5329 34.0874C19.5601 34.1282 19.5953 34.1609 19.6385 34.1854C19.6817 34.2099 19.7217 34.2393 19.7553 34.2736C19.8289 34.2605 19.9025 34.2491 19.9729 34.2425C20.0433 34.236 20.1089 34.2148 20.1697 34.1805C20.2977 34.1053 20.4129 34.0139 20.5137 33.9061C20.6145 33.7999 20.7233 33.697 20.8369 33.6006C20.8913 33.5516 20.9361 33.5516 20.9729 33.6006C21.0097 33.6496 21.0081 33.7003 20.9681 33.7558C20.8465 33.8587 20.7233 33.9632 20.5985 34.0661C20.4737 34.169 20.3521 34.2556 20.2337 34.3242C20.1153 34.3928 20.0033 34.4418 19.8945 34.4696C19.7857 34.4973 19.6865 34.4892 19.5953 34.4434C19.5041 34.3993 19.4225 34.3128 19.3521 34.1854C19.2817 34.058 19.2257 33.8734 19.1857 33.6317C19.1457 33.3769 19.1281 33.1384 19.1345 32.9179C19.1473 32.4148 19.1681 31.9118 19.1953 31.4087C19.0337 31.4218 18.8913 31.4103 18.7697 31.3728C18.6481 31.3352 18.5713 31.2601 18.5361 31.1506C18.5361 31.0886 18.5633 31.0477 18.6177 31.0265L18.7249 31.0069Z" fill="white"/>
<path d="M20.9824 31.9072C21.0912 31.8729 21.232 31.7978 21.408 31.6802C21.584 31.5626 21.7728 31.4188 21.9744 31.2457C22.1776 31.0742 22.3808 30.8766 22.5872 30.6561C22.7936 30.4356 22.9808 30.202 23.1488 29.9537C23.3168 29.7055 23.4544 29.449 23.5584 29.1844C23.6624 28.9198 23.7184 28.6552 23.7248 28.3939C23.7312 28.1603 23.7184 27.9251 23.6848 27.6916C23.6512 27.458 23.5872 27.2326 23.4928 27.0203C23.4048 26.8128 23.288 26.643 23.144 26.509C22.9984 26.3751 22.8432 26.2902 22.6784 26.2559C22.5136 26.2216 22.344 26.2428 22.1728 26.3179C22 26.3931 21.8432 26.5417 21.7024 26.7622C21.6352 26.8651 21.5744 26.9843 21.52 27.1183C21.4656 27.2522 21.4192 27.3894 21.3776 27.5266C21.3376 27.6638 21.3024 27.8026 21.272 27.9398C21.2416 28.077 21.216 28.2093 21.1952 28.3318C21.1616 28.5523 21.1312 28.8218 21.104 29.1387C21.0768 29.4556 21.0544 29.7806 21.0384 30.1154C21.0208 30.4503 21.008 30.7769 20.9984 31.0971C20.9872 31.4156 20.9824 31.6867 20.9824 31.9072ZM20.7808 32.1653C20.72 32.1522 20.688 32.1212 20.6848 32.0722C20.6816 32.0248 20.7072 31.9856 20.76 31.9578H20.7808C20.7808 31.654 20.7872 31.3551 20.8016 31.0579C20.8144 30.7622 20.8288 30.4682 20.8416 30.1791C20.848 30.0485 20.8544 29.8982 20.8624 29.73C20.8688 29.5617 20.8784 29.3902 20.888 29.2187C20.8976 29.0472 20.9136 28.8774 20.9328 28.7124C20.9536 28.5474 20.976 28.4021 21.0032 28.2779C21.024 28.1881 21.0496 28.0656 21.08 27.9104C21.1104 27.7553 21.1472 27.5968 21.192 27.4351C21.2352 27.2734 21.2864 27.1183 21.344 26.9696C21.4016 26.821 21.4672 26.7099 21.5408 26.6332C21.6144 26.5499 21.6896 26.4649 21.7632 26.3751C21.8368 26.2853 21.9216 26.2101 22.016 26.1481C22.184 26.037 22.3536 25.988 22.5216 25.9978C22.6896 26.0076 22.8496 26.0566 22.9968 26.1432C23.1456 26.2297 23.2784 26.3408 23.3968 26.4796C23.5152 26.6168 23.608 26.7622 23.6752 26.9141C23.776 27.1477 23.8416 27.3878 23.872 27.6328C23.9024 27.8778 23.9216 28.1277 23.928 28.3825C23.9152 28.8169 23.816 29.2155 23.6336 29.5813C23.4512 29.9472 23.2208 30.2837 22.9408 30.594C22.6608 30.9043 22.352 31.1853 22.0144 31.4368C21.6768 31.6883 21.3424 31.917 21.0128 32.1244C21.0128 32.242 21.0144 32.3629 21.0176 32.4854C21.0208 32.6095 21.0256 32.7304 21.0336 32.848C21.0608 32.7451 21.0896 32.6455 21.12 32.5475C21.1504 32.4511 21.1856 32.3678 21.2256 32.2992C21.2656 32.2306 21.312 32.1816 21.3616 32.1538C21.4128 32.1261 21.4672 32.1261 21.528 32.1538C21.5952 32.1881 21.6496 32.2388 21.6896 32.3041C21.7296 32.3694 21.7664 32.438 21.8016 32.5115C21.8352 32.5834 21.8688 32.6553 21.9024 32.7239C21.936 32.7925 21.984 32.8447 22.0448 32.879C22.0992 32.9264 22.112 32.977 22.0848 33.0293C22.0576 33.0816 22.0112 33.0897 21.9424 33.0554C21.8944 33.0211 21.848 32.9656 21.8 32.8905C21.752 32.8153 21.7072 32.7369 21.664 32.6585C21.6208 32.5785 21.5792 32.5083 21.5424 32.4462C21.5056 32.3841 21.4704 32.3531 21.4368 32.3531C21.3152 32.5246 21.2352 32.7304 21.1984 32.9672C21.1616 33.2057 21.1296 33.4278 21.1024 33.6336C21.0752 33.6826 21.0416 33.7088 21.0016 33.7169C20.9616 33.7235 20.928 33.699 20.9008 33.6451C20.8608 33.4033 20.832 33.1616 20.8144 32.9166C20.7984 32.67 20.7872 32.4201 20.7808 32.1653Z" fill="white"/>
<path d="M22.7547 29.8296C22.8283 29.8296 22.8683 29.8606 22.8715 29.9227C22.8747 29.9848 22.8395 30.0223 22.7659 30.037H22.6955C22.6219 30.024 22.5915 29.9848 22.6043 29.9227C22.6171 29.8606 22.6587 29.8296 22.7259 29.8296H22.7547ZM22.7339 30.9664V30.9452C22.7547 30.9043 22.7883 30.8815 22.8347 30.8782C22.8827 30.8749 22.9131 30.9011 22.9259 30.9566H22.9355V30.9778C22.9355 31.378 22.9339 31.7782 22.9307 32.1816C22.9275 32.585 22.9563 32.9868 23.0171 33.3854C23.0235 33.4262 23.0347 33.4932 23.0475 33.5863C23.0603 33.6794 23.0811 33.7757 23.1083 33.8754C23.1355 33.975 23.1707 34.0632 23.2139 34.1383C23.2571 34.2135 23.3163 34.2527 23.3915 34.2527C23.4651 34.2527 23.5403 34.2298 23.6139 34.1857C23.6875 34.1416 23.7579 34.0877 23.8219 34.0256C23.8859 33.9636 23.9467 33.8982 24.0043 33.8296C24.0619 33.761 24.1115 33.7055 24.1515 33.6647C24.2059 33.6157 24.2507 33.6157 24.2875 33.6647C24.3243 33.7137 24.3227 33.7643 24.2827 33.8198C24.2283 33.8819 24.1739 33.9456 24.1211 34.0109C24.0667 34.0763 24.0059 34.1367 23.9387 34.1922C23.6827 34.434 23.4651 34.5156 23.2859 34.4405C23.1067 34.3654 22.9771 34.1645 22.8955 33.8411C22.8075 33.4964 22.7531 33.124 22.7339 32.7255C22.7067 32.9591 22.6859 33.1926 22.6683 33.4229C22.6507 33.6532 22.6427 33.8901 22.6427 34.1318C22.6299 34.2004 22.5995 34.2363 22.5515 34.2396C22.5035 34.2429 22.4667 34.2167 22.4395 34.1628L22.7339 30.9664Z" fill="white"/>
<path d="M24.3552 31.0595C24.3552 30.9844 24.3856 30.9419 24.4464 30.9354C24.5072 30.9288 24.544 30.9631 24.5584 31.0383C24.5584 31.4515 24.5568 31.8664 24.5536 32.2845C24.5504 32.701 24.5584 33.1175 24.5792 33.5307C24.6672 33.1649 24.7744 32.8137 24.904 32.4772C25.032 32.1391 25.2048 31.819 25.4208 31.5152C25.4544 31.4809 25.4912 31.4629 25.5328 31.4629C25.5664 31.4629 25.5952 31.4646 25.6192 31.4678C25.6432 31.4711 25.6688 31.4727 25.6944 31.4727C25.728 31.5005 25.752 31.5217 25.7648 31.5348C25.8464 31.6998 25.9008 31.8778 25.9312 32.0673C25.9616 32.2567 25.9936 32.4478 26.0272 32.6406C26.0608 32.8333 26.1104 33.0162 26.1744 33.1877C26.2384 33.3592 26.3408 33.5079 26.4832 33.632C26.5232 33.681 26.5232 33.7251 26.4832 33.7659C26.4432 33.8068 26.3952 33.81 26.3408 33.7757C26.192 33.6451 26.0848 33.4932 26.016 33.3217C25.9488 33.1485 25.8976 32.9705 25.864 32.7843C25.8304 32.5981 25.7984 32.4103 25.768 32.2208C25.7376 32.0313 25.6848 31.85 25.6112 31.6785C25.5984 31.672 25.5776 31.6687 25.5504 31.6687C25.3136 32.0134 25.1408 32.3743 25.0288 32.7533C24.9168 33.1322 24.7984 33.5177 24.6688 33.9113C24.6352 33.9864 24.5808 34.0044 24.5072 33.9636C24.4592 33.9227 24.4224 33.8313 24.3952 33.6892C24.368 33.5471 24.3488 33.3805 24.3392 33.1877C24.3296 32.995 24.3232 32.7859 24.3232 32.5622C24.3232 32.3384 24.3248 32.1261 24.328 31.9268C24.3312 31.7275 24.336 31.5479 24.3424 31.3894C24.3504 31.231 24.3552 31.1216 24.3552 31.0595Z" fill="white"/>
<path d="M27.3313 28.2892C27.2913 28.4885 27.2513 28.7041 27.2145 28.936C27.1777 29.1663 27.1425 29.4048 27.1089 29.6498C27.0753 29.8948 27.0449 30.1381 27.0177 30.3782C26.9905 30.62 26.9665 30.8503 26.9473 31.0708C27.0689 30.9744 27.1825 30.8731 27.2865 30.7653C27.3905 30.6592 27.4945 30.5465 27.5953 30.4289C27.8993 30.0842 28.1697 29.7102 28.4049 29.3068C28.6417 28.9033 28.8193 28.4819 28.9409 28.0409C28.9745 27.9103 29.0033 27.7812 29.0273 27.6538C29.0513 27.5264 29.0625 27.4007 29.0625 27.2765C29.0625 27.1802 29.0497 27.0364 29.0225 26.847C28.9953 26.6575 28.9457 26.4876 28.8705 26.3357C28.7969 26.1838 28.6961 26.0842 28.5713 26.0352C28.4465 25.9862 28.2897 26.0597 28.1009 26.2524C28.0001 26.3553 27.9073 26.4991 27.8225 26.682C27.7377 26.8649 27.6625 27.056 27.5953 27.2553C27.5281 27.4546 27.4721 27.6473 27.4289 27.8335C27.3841 28.0197 27.3521 28.1716 27.3313 28.2892ZM24.7697 31.6996C24.7633 31.6375 24.7825 31.5967 24.8305 31.5755C24.8769 31.5542 24.9217 31.5722 24.9617 31.6277C25.0097 31.7796 25.1057 31.8597 25.2497 31.8711C25.3953 31.8809 25.5569 31.8515 25.7361 31.7829C25.9153 31.7143 26.0961 31.6261 26.2785 31.5199C26.4609 31.4138 26.6097 31.319 26.7233 31.2357C26.7569 30.8846 26.7857 30.602 26.8097 30.388C26.8337 30.1741 26.8593 29.9715 26.8865 29.7788C26.9137 29.5861 26.9457 29.3754 26.9825 29.1483C27.0193 28.9213 27.0689 28.624 27.1297 28.2598C27.1505 28.1487 27.1745 28.0295 27.2049 27.8972C27.2353 27.7665 27.2673 27.6391 27.3009 27.515C27.3345 27.3909 27.3681 27.2798 27.4017 27.1785C27.4353 27.0789 27.4625 27.0038 27.4833 26.9564C27.5377 26.811 27.6145 26.6461 27.7169 26.4599C27.8177 26.2737 27.9361 26.1201 28.0705 25.9993C28.2049 25.8784 28.3521 25.8163 28.5105 25.8131C28.6689 25.8098 28.8289 25.9176 28.9921 26.1381C29.1809 26.4272 29.2737 26.749 29.2705 27.105C29.2673 27.4595 29.2209 27.7959 29.1345 28.1128C29.0737 28.3333 28.9985 28.5554 28.9073 28.7792C28.8161 29.003 28.7105 29.2218 28.5889 29.4358C28.4673 29.6498 28.3361 29.8523 28.1937 30.045C28.0513 30.2378 27.9009 30.4142 27.7377 30.5726C27.6289 30.682 27.5233 30.7931 27.4193 30.9025C27.3153 31.012 27.2049 31.1165 27.0897 31.2129C27.0689 31.2259 27.0465 31.2455 27.0193 31.27C26.9921 31.2945 26.9617 31.3207 26.9281 31.3484C26.9217 31.3762 26.9185 31.4105 26.9185 31.4513C26.9057 31.6506 26.8913 31.8009 26.8785 31.9005C26.8657 32.0001 26.8529 32.0883 26.8433 32.1635C26.8337 32.2386 26.8241 32.3268 26.8177 32.4264C26.8113 32.5261 26.8049 32.6763 26.7969 32.8756C26.9185 32.5587 27.0865 32.2762 27.3025 32.0279C27.3841 31.9381 27.4657 31.8613 27.5505 31.796C27.6353 31.7306 27.7233 31.6833 27.8129 31.6571C27.9041 31.6294 27.9937 31.6277 28.0817 31.6522C28.1697 31.6767 28.2577 31.7339 28.3457 31.8237C28.3793 31.8515 28.4001 31.894 28.4065 31.9528C28.4129 32.0116 28.4097 32.0573 28.3969 32.0916C28.3297 32.2713 28.2401 32.4297 28.1281 32.5669C28.0161 32.7041 27.9409 32.8005 27.9009 32.856C27.9617 32.856 28.0481 32.8609 28.1585 32.8723C28.2705 32.8821 28.3857 32.8936 28.5073 32.9034C28.6289 32.9132 28.7457 32.923 28.8561 32.9295C28.9681 32.936 29.0529 32.9393 29.1137 32.9393C29.1873 32.9393 29.2289 32.9703 29.2353 33.0324C29.2417 33.0945 29.2081 33.132 29.1345 33.1467C29.0737 33.1467 28.9777 33.1451 28.8465 33.1418C28.7153 33.1386 28.5761 33.132 28.4321 33.1206C28.2865 33.1108 28.1505 33.0977 28.0225 33.0847C27.8945 33.0716 27.8001 33.0504 27.7393 33.0226C27.6913 32.9948 27.6721 32.9507 27.6785 32.8887C27.6993 32.8397 27.7505 32.7613 27.8353 32.6502C27.9201 32.5391 27.9953 32.4281 28.0625 32.3137C28.1297 32.1994 28.1729 32.0949 28.1889 31.9985C28.2065 31.9021 28.1537 31.8433 28.0321 31.8221C27.8369 31.8221 27.6609 31.9054 27.5057 32.0704C27.3505 32.2353 27.2209 32.4346 27.1153 32.6649C27.0113 32.8952 26.9297 33.1386 26.8721 33.3934C26.8145 33.6482 26.7825 33.8654 26.7761 34.0451C26.7633 34.1137 26.7393 34.148 26.7057 34.148C26.6721 34.148 26.6273 34.0859 26.5745 33.9618C26.5745 33.6727 26.5777 33.4358 26.5841 33.2545C26.5905 33.0716 26.6001 32.8985 26.6097 32.7319C26.6193 32.5669 26.6337 32.3905 26.6497 32.2043C26.6673 32.0181 26.6849 31.7813 26.7057 31.4905C26.5505 31.5934 26.3729 31.6996 26.1745 31.8058C25.9761 31.9119 25.7809 31.9903 25.5921 32.0377C25.4033 32.0851 25.2321 32.09 25.0801 32.0475C24.9265 32.0099 24.8241 31.8923 24.7697 31.6996Z" fill="white"/>
<path d="M29.4464 29.8296C29.52 29.8296 29.56 29.8606 29.5632 29.9227C29.5664 29.9848 29.5312 30.0223 29.456 30.037H29.3856C29.312 30.024 29.2816 29.9848 29.2944 29.9227C29.3072 29.8606 29.3488 29.8296 29.416 29.8296H29.4464ZM29.4272 30.9664V30.9452C29.448 30.9043 29.4816 30.8815 29.528 30.8782C29.576 30.8749 29.6064 30.9011 29.6192 30.9566H29.6288V30.9778C29.6288 31.378 29.6272 31.7782 29.624 32.1816C29.6208 32.585 29.6496 32.9868 29.7104 33.3854C29.7168 33.4262 29.728 33.4932 29.7408 33.5863C29.7536 33.6794 29.7744 33.7757 29.8016 33.8754C29.8288 33.975 29.864 34.0632 29.9072 34.1383C29.9504 34.2135 30.0096 34.2527 30.0848 34.2527C30.1584 34.2527 30.2336 34.2298 30.3072 34.1857C30.3808 34.1416 30.4512 34.0877 30.5152 34.0256C30.5792 33.9636 30.64 33.8982 30.6976 33.8296C30.7552 33.761 30.8032 33.7055 30.8448 33.6647C30.8992 33.6157 30.944 33.6157 30.9808 33.6647C31.0176 33.7137 31.016 33.7643 30.976 33.8198C30.9216 33.8819 30.8672 33.9456 30.8144 34.0109C30.76 34.0763 30.6992 34.1367 30.632 34.1922C30.376 34.434 30.1584 34.5156 29.9792 34.4405C29.8 34.3654 29.6704 34.1645 29.5888 33.8411C29.5008 33.4964 29.4464 33.124 29.4272 32.7255C29.4 32.9591 29.3792 33.1926 29.3616 33.4229C29.344 33.6532 29.336 33.8901 29.336 34.1318C29.3232 34.2004 29.2928 34.2363 29.2448 34.2396C29.1968 34.2429 29.16 34.2167 29.1328 34.1628L29.4272 30.9664Z" fill="white"/>
<path d="M31.0464 31.0595C31.0464 30.9844 31.0768 30.9419 31.1376 30.9354C31.1984 30.9288 31.2352 30.9631 31.2496 31.0383C31.2496 31.4515 31.248 31.8664 31.2448 32.2845C31.2416 32.701 31.2496 33.1175 31.2704 33.5307C31.3584 33.1649 31.4656 32.8137 31.5952 32.4772C31.7232 32.1391 31.896 31.819 32.112 31.5152C32.1456 31.4809 32.1824 31.4629 32.224 31.4629C32.2576 31.4629 32.2864 31.4646 32.3104 31.4678C32.3344 31.4711 32.36 31.4727 32.3872 31.4727C32.4208 31.5005 32.4448 31.5217 32.4576 31.5348C32.5392 31.6998 32.5936 31.8778 32.624 32.0673C32.6544 32.2567 32.6864 32.4478 32.72 32.6406C32.7536 32.8333 32.8032 33.0162 32.8672 33.1877C32.9312 33.3592 33.0336 33.5079 33.176 33.632C33.216 33.681 33.216 33.7251 33.176 33.7659C33.136 33.8068 33.088 33.81 33.0336 33.7757C32.8848 33.6451 32.7776 33.4932 32.7088 33.3217C32.6416 33.1485 32.5904 32.9705 32.5568 32.7843C32.5232 32.5981 32.4912 32.4103 32.4608 32.2208C32.4304 32.0313 32.3776 31.85 32.304 31.6785C32.2912 31.672 32.2704 31.6687 32.2432 31.6687C32.0064 32.0134 31.8336 32.3743 31.7216 32.7533C31.6096 33.1322 31.4896 33.5177 31.3616 33.9113C31.328 33.9864 31.2736 34.0044 31.2 33.9636C31.152 33.9227 31.1152 33.8313 31.088 33.6892C31.0608 33.5471 31.0432 33.3805 31.032 33.1877C31.0224 32.995 31.0176 32.7859 31.0176 32.5622C31.0176 32.3384 31.0192 32.1261 31.0224 31.9268C31.0256 31.7275 31.0304 31.5479 31.0384 31.3894C31.0432 31.231 31.0464 31.1216 31.0464 31.0595Z" fill="white"/>
<path d="M35.2474 31.523C35.113 31.4332 34.9754 31.4005 34.8378 31.425C34.7002 31.4495 34.5658 31.5132 34.4378 31.6161C34.3098 31.719 34.1898 31.8464 34.0778 31.9983C33.9658 32.1502 33.8682 32.307 33.7834 32.4687C33.6986 32.6304 33.633 32.7856 33.5866 32.9342C33.5386 33.0829 33.5194 33.2021 33.5258 33.2903C33.5258 33.3377 33.5434 33.3834 33.577 33.4242C33.6106 33.4651 33.6378 33.5075 33.6586 33.5484C33.9082 33.5827 34.121 33.55 34.297 33.4504C34.473 33.3507 34.6218 33.2119 34.7482 33.0371C34.873 32.8607 34.9738 32.6598 35.0522 32.4328C35.1306 32.2058 35.1962 31.9787 35.249 31.7501V31.523H35.2474ZM35.745 36.8575C35.7322 36.5962 35.713 36.3332 35.689 36.0719C35.665 35.8105 35.6362 35.5476 35.6026 35.2862C35.5082 35.3271 35.4122 35.3695 35.3146 35.4104C35.217 35.4512 35.121 35.5002 35.0266 35.5557C34.8506 35.6456 34.6714 35.7452 34.4842 35.8563C34.2986 35.9657 34.129 36.0866 33.9722 36.2172C33.8986 36.2728 33.8346 36.3234 33.7802 36.3724C33.7258 36.4214 33.6778 36.4704 33.633 36.5227C33.5898 36.5749 33.5482 36.6288 33.5114 36.6876C33.4746 36.7464 33.4346 36.8167 33.3946 36.9C33.361 36.9555 33.3514 37.0306 33.3642 37.127C33.377 37.2234 33.3914 37.3001 33.4042 37.354C33.4378 37.5533 33.5066 37.7509 33.6122 37.9437C33.7162 38.1364 33.8394 38.303 33.9818 38.4451C34.1242 38.5872 34.2762 38.695 34.4378 38.7701C34.5994 38.8453 34.7562 38.8714 34.9082 38.8469C35.0602 38.8224 35.201 38.7407 35.3338 38.5986C35.465 38.4565 35.569 38.2377 35.6426 37.942C35.6906 37.7624 35.721 37.5811 35.7338 37.3998C35.7482 37.2168 35.7514 37.0355 35.745 36.8575ZM33.4362 32.6811C33.5178 32.5439 33.6186 32.3724 33.7402 32.1698C33.8618 31.9673 33.9994 31.7827 34.1546 31.6178C34.3098 31.4528 34.481 31.3319 34.6666 31.2552C34.8522 31.18 35.049 31.1931 35.2586 31.296C35.265 31.1376 35.2778 30.9791 35.2938 30.8207C35.3114 30.6623 35.3322 30.5038 35.3594 30.3454C35.3722 30.2899 35.3994 30.2605 35.441 30.2572C35.481 30.2539 35.5194 30.2719 35.553 30.3144C35.5802 30.383 35.5946 30.4744 35.5978 30.5888C35.601 30.7031 35.5978 30.8256 35.5882 30.9563C35.5786 31.0869 35.5626 31.2209 35.5434 31.3597C35.5226 31.4969 35.5034 31.6243 35.4826 31.7419C35.489 32.258 35.5194 32.7905 35.5738 33.3393C35.6282 33.8865 35.6954 34.4402 35.777 34.9988C35.9802 34.9236 36.1866 34.8616 36.3994 34.8126C36.6122 34.7652 36.8298 34.7293 37.0522 34.7097C37.1258 34.7097 37.1658 34.7407 37.169 34.8028C37.1722 34.8648 37.137 34.9024 37.0634 34.9171C36.6442 34.9661 36.2266 35.0657 35.8074 35.2176C35.841 35.479 35.8698 35.7468 35.8938 36.018C35.9178 36.2907 35.9354 36.5602 35.9498 36.8297C35.9562 37.0225 35.953 37.2185 35.9402 37.4194C35.9274 37.6186 35.8922 37.8163 35.8394 38.009C35.7242 38.45 35.5578 38.744 35.3386 38.8926C35.1194 39.0413 34.8858 39.0903 34.6394 39.0429C34.393 38.9955 34.153 38.8681 33.921 38.6656C33.6874 38.4631 33.5018 38.2295 33.3642 37.9682C33.2266 37.7068 33.1546 37.4357 33.1514 37.1564C33.1482 36.8771 33.2506 36.6354 33.4602 36.4279C33.689 36.2074 33.921 36.0131 34.153 35.8432C34.3866 35.675 34.6442 35.5214 34.9274 35.3826C35.0346 35.3271 35.1418 35.2748 35.2458 35.2225C35.3498 35.1703 35.4602 35.1245 35.5754 35.0821V35.0723C35.5146 34.6443 35.457 34.2229 35.4026 33.8064C35.3482 33.3899 35.305 32.9636 35.2714 32.5292C35.217 32.6745 35.1434 32.8166 35.049 32.9587C34.9546 33.1008 34.849 33.2299 34.7306 33.3458C34.6122 33.4634 34.489 33.5631 34.361 33.6464C34.233 33.7297 34.1082 33.7803 33.9866 33.8015C33.8186 33.8424 33.6826 33.8293 33.5818 33.7607C33.481 33.6921 33.409 33.5974 33.369 33.4765C33.329 33.3556 33.3146 33.2217 33.329 33.0731C33.3386 32.9212 33.3754 32.7921 33.4362 32.6811Z" fill="white"/>
<path d="M38.3665 31.0069C38.4145 31.0069 38.4481 31.0216 38.4673 31.0526C38.4881 31.0837 38.4913 31.1163 38.4769 31.1506C38.5921 31.1996 38.7169 31.2225 38.8513 31.2225C38.8849 30.7815 38.9281 30.3258 38.9777 29.8538C39.0289 29.3817 39.0913 28.9293 39.1649 28.4948C39.1857 28.4262 39.2257 28.3968 39.2865 28.4066C39.3473 28.4164 39.3713 28.4605 39.3569 28.5357C39.2833 28.9554 39.2225 29.3964 39.1745 29.8587C39.1281 30.3209 39.0865 30.7684 39.0529 31.2029C39.2417 31.1817 39.4257 31.1392 39.6049 31.0739C39.7841 31.0085 39.9505 30.9448 40.1057 30.8828C40.1793 30.8615 40.2273 30.8811 40.2481 30.9399C40.2689 30.9987 40.2481 31.0445 40.1873 31.0788C40.1473 31.0918 40.0865 31.1147 40.0049 31.1457C39.9233 31.1768 39.8321 31.2078 39.7313 31.2388C39.6305 31.2699 39.5201 31.2993 39.4017 31.327C39.2833 31.3548 39.1633 31.376 39.0417 31.3891L39.0017 32.1649C38.9953 32.3103 38.9857 32.4671 38.9761 32.6353C38.9665 32.8036 38.9649 32.9734 38.9713 33.1417C38.9777 33.3099 38.9953 33.4765 39.0225 33.6382C39.0497 33.7999 39.1009 33.9502 39.1745 34.0874C39.2017 34.1282 39.2369 34.1609 39.2801 34.1854C39.3233 34.2099 39.3633 34.2393 39.3969 34.2736C39.4705 34.2605 39.5441 34.2491 39.6145 34.2425C39.6849 34.236 39.7521 34.2148 39.8113 34.1805C39.9393 34.1053 40.0545 34.0139 40.1553 33.9061C40.2561 33.7999 40.3649 33.697 40.4785 33.6006C40.5329 33.5516 40.5777 33.5516 40.6145 33.6006C40.6513 33.6496 40.6497 33.7003 40.6097 33.7558C40.4881 33.8587 40.3649 33.9632 40.2401 34.0661C40.1153 34.169 39.9937 34.2556 39.8753 34.3242C39.7569 34.3928 39.6449 34.4418 39.5361 34.4696C39.4273 34.4973 39.3281 34.4892 39.2369 34.4434C39.1457 34.3993 39.0641 34.3128 38.9937 34.1854C38.9233 34.058 38.8673 33.8734 38.8273 33.6317C38.7873 33.3769 38.7697 33.1384 38.7761 32.9179C38.7889 32.4148 38.8097 31.9118 38.8369 31.4087C38.6753 31.4218 38.5329 31.4103 38.4113 31.3728C38.2897 31.3352 38.2129 31.2601 38.1777 31.1506C38.1777 31.0886 38.2049 31.0477 38.2593 31.0265L38.3665 31.0069Z" fill="white"/>
<path d="M40.6256 31.9072C40.7344 31.8729 40.8752 31.7978 41.0512 31.6802C41.2272 31.5626 41.416 31.4188 41.6176 31.2457C41.8208 31.0742 42.024 30.8766 42.2304 30.6561C42.4368 30.4356 42.624 30.202 42.792 29.9537C42.96 29.7055 43.0976 29.449 43.2016 29.1844C43.3056 28.9198 43.3616 28.6552 43.368 28.3939C43.3744 28.1603 43.3616 27.9251 43.328 27.6916C43.2944 27.458 43.2304 27.2326 43.136 27.0203C43.048 26.8128 42.9312 26.643 42.7872 26.509C42.6416 26.3751 42.4864 26.2902 42.3216 26.2559C42.1568 26.2216 41.9872 26.2428 41.816 26.3179C41.6432 26.3931 41.4864 26.5417 41.3456 26.7622C41.2784 26.8651 41.2176 26.9843 41.1632 27.1183C41.1088 27.2522 41.0624 27.3894 41.0208 27.5266C40.9808 27.6638 40.9456 27.8026 40.9152 27.9398C40.8848 28.077 40.8592 28.2093 40.84 28.3318C40.8064 28.5523 40.776 28.8218 40.7488 29.1387C40.7216 29.4556 40.6992 29.7806 40.6832 30.1154C40.6656 30.4503 40.6528 30.7769 40.6432 31.0971C40.6304 31.4156 40.6256 31.6867 40.6256 31.9072ZM40.4224 32.1653C40.3616 32.1522 40.3296 32.1212 40.3264 32.0722C40.3232 32.0248 40.3488 31.9856 40.4016 31.9578H40.4224C40.4224 31.654 40.4288 31.3551 40.4432 31.0579C40.456 30.7622 40.4704 30.4682 40.4832 30.1791C40.4896 30.0485 40.496 29.8982 40.504 29.73C40.5104 29.5617 40.52 29.3902 40.5296 29.2187C40.5392 29.0472 40.5552 28.8774 40.5744 28.7124C40.5952 28.5474 40.6176 28.4021 40.6448 28.2779C40.6656 28.1881 40.6896 28.0656 40.72 27.9104C40.7504 27.7553 40.7872 27.5968 40.832 27.4351C40.8752 27.2734 40.9264 27.1183 40.984 26.9696C41.0416 26.821 41.1072 26.7099 41.1808 26.6332C41.2544 26.5499 41.3296 26.4649 41.4032 26.3751C41.4768 26.2853 41.5616 26.2101 41.656 26.1481C41.824 26.037 41.9936 25.988 42.1616 25.9978C42.3296 26.0076 42.4896 26.0566 42.6368 26.1432C42.7856 26.2297 42.9184 26.3408 43.0368 26.4796C43.1552 26.6168 43.248 26.7622 43.3152 26.9141C43.416 27.1477 43.4816 27.3878 43.512 27.6328C43.5424 27.8778 43.5616 28.1277 43.568 28.3825C43.5552 28.8169 43.456 29.2155 43.2736 29.5813C43.0912 29.9472 42.8608 30.2837 42.5808 30.594C42.3008 30.9043 41.992 31.1853 41.6544 31.4368C41.3168 31.6883 40.9824 31.917 40.6528 32.1244C40.6528 32.242 40.6544 32.3629 40.6576 32.4854C40.6608 32.6095 40.6656 32.7304 40.6736 32.848C40.7008 32.7451 40.7296 32.6455 40.76 32.5475C40.7904 32.4511 40.8256 32.3678 40.8656 32.2992C40.9056 32.2306 40.952 32.1816 41.0016 32.1538C41.0528 32.1261 41.1072 32.1261 41.1696 32.1538C41.2368 32.1881 41.2912 32.2388 41.3312 32.3041C41.3712 32.3694 41.408 32.438 41.4432 32.5115C41.4768 32.5834 41.5104 32.6553 41.544 32.7239C41.5776 32.7925 41.6256 32.8447 41.6864 32.879C41.7408 32.9264 41.7536 32.977 41.7264 33.0293C41.6992 33.0816 41.6528 33.0897 41.584 33.0554C41.536 33.0211 41.4896 32.9656 41.4416 32.8905C41.3936 32.8153 41.3488 32.7369 41.3056 32.6585C41.2624 32.5785 41.2208 32.5083 41.184 32.4462C41.1472 32.3841 41.112 32.3531 41.0784 32.3531C40.9568 32.5246 40.8768 32.7304 40.84 32.9672C40.8032 33.2057 40.7712 33.4278 40.744 33.6336C40.7168 33.6826 40.6832 33.7088 40.6432 33.7169C40.6032 33.7235 40.5696 33.699 40.5424 33.6451C40.5024 33.4033 40.4736 33.1616 40.456 32.9166C40.4416 32.67 40.4288 32.4201 40.4224 32.1653Z" fill="white"/>
<path d="M42.5088 33.1567C42.712 32.915 42.8864 32.6537 43.0352 32.3711C43.184 32.0885 43.2912 31.8272 43.3584 31.5855C43.4064 31.414 43.4272 31.2376 43.424 31.0579C43.4208 30.8782 43.3376 30.7378 43.176 30.6349C42.9872 30.71 42.84 30.839 42.736 31.022C42.632 31.2049 42.5568 31.4091 42.5136 31.6377C42.4704 31.8648 42.448 32.0951 42.448 32.3303C42.448 32.5638 42.4576 32.768 42.4784 32.9395L42.5088 33.1567ZM44.1792 33.2302C44.2128 33.2645 44.2224 33.3021 44.2096 33.3446H44.2192L44.2096 33.3544C44.2032 33.3821 44.1856 33.4034 44.1584 33.4164C43.976 33.6239 43.7968 33.8019 43.6224 33.9538C43.4464 34.1057 43.2992 34.1743 43.1776 34.1612C42.9952 34.1482 42.8416 34.0845 42.7168 33.9701C42.592 33.8558 42.4928 33.7104 42.4176 33.5308L42.3472 33.3446C42.2656 33.0767 42.2256 32.7794 42.2256 32.456C42.2256 32.1326 42.264 31.8239 42.3424 31.5316C42.4208 31.2392 42.5296 30.9893 42.672 30.7819C42.8144 30.5744 42.9824 30.4552 43.1776 30.4193C43.312 30.398 43.4128 30.4421 43.4768 30.5483C43.5408 30.6545 43.5808 30.7802 43.5984 30.9256C43.616 31.071 43.6176 31.2147 43.6032 31.3601C43.5904 31.5054 43.5728 31.6018 43.552 31.6492C43.4176 32.0216 43.2768 32.3433 43.1312 32.6161C42.9856 32.8889 42.7984 33.1453 42.5696 33.3854C42.624 33.5438 42.696 33.6859 42.7872 33.8084C42.8784 33.9326 43.0048 33.9799 43.1664 33.9538C43.3552 33.9195 43.5216 33.8297 43.6624 33.6843C43.8048 33.5389 43.9296 33.3985 44.0368 33.2613V33.2711C44.0704 33.2155 44.1184 33.2025 44.1792 33.2302Z" fill="white"/>
<path d="M50.5267 26.1496C50.5475 26.2182 50.5283 26.2656 50.4707 26.2884C50.4131 26.3129 50.3683 26.2901 50.3347 26.2215C50.2675 26.0761 50.2083 25.9634 50.1571 25.8801C50.1059 25.7968 50.0595 25.7347 50.0147 25.6939C49.9715 25.6531 49.9315 25.6269 49.8979 25.6155C49.8643 25.6057 49.8307 25.6008 49.7971 25.6008C49.5603 25.6139 49.3219 25.6923 49.0787 25.8327C48.8355 25.9732 48.6259 26.1169 48.4515 26.2623C48.2691 26.4142 48.0803 26.6069 47.8851 26.8405C47.6899 27.0741 47.5043 27.3321 47.3283 27.6098C47.1523 27.8891 46.9939 28.1831 46.8531 28.4934C46.7107 28.8038 46.6035 29.1141 46.5283 29.4244C46.4547 29.7348 46.4211 30.0353 46.4275 30.3293C46.4339 30.6217 46.4979 30.8928 46.6195 31.1411C46.7203 31.355 46.8627 31.5069 47.0451 31.5951C47.2275 31.685 47.4323 31.734 47.6579 31.7454C47.8835 31.7552 48.1235 31.7405 48.3763 31.698C48.6291 31.6572 48.8787 31.6098 49.1251 31.5592C49.3715 31.5069 49.6051 31.4628 49.8243 31.4253C50.0435 31.3877 50.2371 31.3779 50.4067 31.3991C50.4675 31.4204 50.4979 31.4612 50.4979 31.5233C50.4499 31.7715 50.3587 31.9986 50.2195 32.206C50.0803 32.4134 49.9315 32.6127 49.7683 32.8054C49.6067 32.9982 49.4483 33.1958 49.2931 33.4C49.1379 33.6025 49.0195 33.8246 48.9395 34.0664C48.9059 34.1905 48.9043 34.3244 48.9347 34.4698C48.9651 34.6152 49.0547 34.7148 49.2035 34.7703C49.3379 34.8177 49.4803 34.8455 49.6291 34.8536C49.7779 34.8602 49.9235 34.8749 50.0643 34.8945C50.1187 34.9075 50.1475 34.9435 50.1507 34.9974C50.1539 35.0529 50.1219 35.0872 50.0547 35.1003C49.8995 35.079 49.7443 35.0643 49.5891 35.0529C49.4339 35.0431 49.2819 35.0137 49.1331 34.9647C48.9171 34.8961 48.7827 34.7883 48.7283 34.6446C48.6739 34.4992 48.6691 34.3359 48.7139 34.1529C48.7571 33.97 48.8387 33.7789 48.9571 33.5796C49.0755 33.3804 49.2003 33.1893 49.3315 33.0063C49.4627 32.8234 49.5875 32.6617 49.7059 32.5212C49.8243 32.3808 49.9059 32.2779 49.9539 32.2158C50.0275 32.1194 50.0963 32.0214 50.1571 31.9218C50.2179 31.8222 50.2579 31.7127 50.2787 31.5968C50.1971 31.5837 50.1027 31.5837 49.9955 31.5968C49.8867 31.6098 49.7779 31.6311 49.6659 31.6588C49.5539 31.6866 49.4467 31.7144 49.3427 31.7421C49.2387 31.7699 49.1523 31.7911 49.0851 31.8042C48.7411 31.8793 48.4083 31.9365 48.0883 31.9741C47.7683 32.0116 47.4803 31.9937 47.2275 31.9169C46.9747 31.8418 46.7635 31.6899 46.5955 31.4628C46.4275 31.2358 46.3187 30.8879 46.2723 30.4191C46.2451 30.1366 46.2659 29.8246 46.3331 29.4832C46.4003 29.1419 46.5187 28.7858 46.6883 28.4134C46.8563 28.041 47.0787 27.6604 47.3507 27.2717C47.6243 26.883 47.9507 26.4942 48.3283 26.1088C48.4963 25.9373 48.6915 25.7854 48.9107 25.6547C49.1299 25.524 49.3443 25.4456 49.5539 25.4228C49.7635 25.3983 49.9555 25.4407 50.1315 25.5469C50.2979 25.6514 50.4323 25.854 50.5267 26.1496Z" fill="white"/>
<path d="M52.4399 30.6561C52.5007 30.7737 52.5327 30.8798 52.5359 30.9762C52.5391 31.0726 52.5471 31.1624 52.5615 31.2441C52.5743 31.2506 52.5887 31.2751 52.6015 31.3159C52.6015 31.3372 52.5983 31.3535 52.5919 31.3682C52.5791 31.4303 52.5503 31.4629 52.5055 31.4662C52.4623 31.4695 52.4223 31.4433 52.3887 31.3894C52.3679 31.3404 52.3567 31.2898 52.3535 31.2343C52.3503 31.1787 52.3471 31.1248 52.3439 31.0693C52.3407 31.0138 52.3359 30.9599 52.3295 30.9043C52.3231 30.8488 52.3023 30.8014 52.2687 30.759C52.1951 30.6626 52.1167 30.6169 52.0351 30.625C51.9535 30.6316 51.8751 30.6626 51.7967 30.7181C51.7183 30.7737 51.6495 30.8423 51.5887 30.9256C51.5279 31.0089 51.4847 31.0775 51.4575 31.133C51.2815 31.4629 51.1487 31.8272 51.0575 32.2241C50.9663 32.621 50.9343 33.0048 50.9615 33.3756C50.9743 33.583 51.0175 33.7594 51.0879 33.908C51.1583 34.0567 51.2495 34.1628 51.3615 34.2282C51.4735 34.2935 51.6047 34.3164 51.7567 34.2951C51.9087 34.2739 52.0751 34.1988 52.2575 34.0681C52.4063 33.9587 52.5583 33.8198 52.7135 33.6549C52.8687 33.4899 53.0031 33.3413 53.1183 33.2106C53.2879 33.0113 53.4479 32.8121 53.5999 32.6161C53.7519 32.4201 53.9087 32.2208 54.0703 32.0215C54.1247 31.9725 54.1695 31.9725 54.2063 32.0215C54.2431 32.0689 54.2415 32.1212 54.2015 32.1767C54.1343 32.26 54.0703 32.34 54.0095 32.4201C53.9487 32.4985 53.8831 32.585 53.8127 32.6781C53.7423 32.7712 53.6607 32.8725 53.5695 32.9836C53.4783 33.0946 53.3727 33.222 53.2511 33.3658C53.1295 33.503 52.9919 33.6532 52.8367 33.8149C52.6815 33.9766 52.5263 34.1171 52.3711 34.2331C52.2223 34.336 52.0703 34.4111 51.9151 34.4552C51.7599 34.4993 51.6111 34.5091 51.4703 34.4813C51.3279 34.4536 51.2015 34.3866 51.0911 34.2804C50.9791 34.1743 50.8943 34.024 50.8335 33.8313C50.7663 33.6173 50.7343 33.387 50.7375 33.1387C50.7407 32.8905 50.7663 32.6438 50.8127 32.4005C50.8591 32.1555 50.9247 31.917 51.0047 31.6818C51.0863 31.4482 51.1775 31.2343 51.2783 31.0415C51.3263 30.9582 51.3967 30.8635 51.4911 30.7573C51.5855 30.6512 51.6895 30.5646 51.8047 30.4993C51.9199 30.4339 52.0335 30.4062 52.1487 30.416C52.2623 30.4241 52.3599 30.5042 52.4399 30.6561Z" fill="white"/>
<path d="M54.8813 30.8731C54.9549 30.8518 55.0029 30.8714 55.0237 30.9302C55.0445 30.989 55.0237 31.0348 54.9629 31.0691C54.9085 31.0821 54.8573 31.0952 54.8061 31.105C54.7549 31.1148 54.7101 31.1377 54.6701 31.172C54.5421 31.2683 54.4413 31.4072 54.3661 31.5901C54.2925 31.773 54.2381 31.969 54.2045 32.1797C54.1709 32.3904 54.1549 32.5979 54.1581 32.8053C54.1613 33.0127 54.1773 33.1875 54.2045 33.3329C54.2253 33.4162 54.2461 33.4978 54.2701 33.5811C54.2941 33.6644 54.3277 33.7412 54.3709 33.8131C54.4141 33.8849 54.4701 33.9454 54.5373 33.9944C54.6045 34.0434 54.6861 34.0695 54.7805 34.0777C54.9837 34.0907 55.1661 34.0205 55.3325 33.8653C55.4973 33.7102 55.6285 33.5191 55.7229 33.292C55.8173 33.065 55.8717 32.8282 55.8845 32.5832C55.8973 32.3382 55.8605 32.1373 55.7725 31.9788C55.7389 31.9168 55.6877 31.8678 55.6205 31.8335C55.5533 31.7992 55.4781 31.7698 55.3981 31.7453C55.3165 31.7208 55.2365 31.7028 55.1549 31.6881C55.0733 31.675 55.0029 31.6571 54.9421 31.6358C54.9021 31.6015 54.8813 31.564 54.8813 31.5215C54.8813 31.4807 54.9085 31.4529 54.9629 31.4382C55.2669 31.4039 55.5613 31.3614 55.8493 31.3092C56.1357 31.2569 56.4285 31.1965 56.7245 31.1279C56.7917 31.1279 56.8301 31.154 56.8413 31.2063C56.8509 31.2585 56.8301 31.301 56.7757 31.3353C56.5661 31.3761 56.3613 31.4186 56.1581 31.4594C55.9549 31.5003 55.7501 31.5395 55.5405 31.5738C55.6349 31.6081 55.7181 31.6456 55.7885 31.6881C55.8589 31.7289 55.9117 31.7877 55.9453 31.8645C55.9789 31.92 56.0061 31.9772 56.0269 32.0344C56.0477 32.0932 56.0701 32.1503 56.0973 32.2042C56.1645 32.3757 56.1709 32.5832 56.1181 32.8249C56.0637 33.0666 55.9693 33.2953 55.8349 33.5125C55.7005 33.7298 55.5373 33.9143 55.3485 34.0646C55.1597 34.2165 54.9677 34.2916 54.7709 34.2916C54.6557 34.2916 54.5549 34.2639 54.4669 34.2083C54.3789 34.1528 54.3053 34.0809 54.2445 33.9911C54.1837 33.9013 54.1341 33.8049 54.0973 33.702C54.0605 33.5991 54.0317 33.4995 54.0109 33.4015C53.9901 33.2773 53.9805 33.0928 53.9805 32.8478C53.9805 32.6028 54.0013 32.3512 54.0413 32.0932C54.0813 31.8351 54.1437 31.5983 54.2285 31.3859C54.3133 31.172 54.4253 31.038 54.5677 30.9825L54.8813 30.8731Z" fill="white"/>
<path d="M56.8562 31.048C56.8562 31.476 56.861 31.8925 56.8706 32.2992C56.8802 32.7059 56.9058 33.075 56.9474 33.4049C56.981 33.2187 57.0098 33.0309 57.0338 32.8414C57.0578 32.652 57.0866 32.4641 57.1202 32.2779C57.1538 32.0917 57.2034 31.9104 57.2674 31.7357C57.3314 31.5593 57.421 31.3959 57.5362 31.244C57.597 31.182 57.6546 31.1754 57.709 31.2228C57.7634 31.2718 57.8002 31.3388 57.821 31.4253C57.8418 31.5119 57.853 31.6034 57.8562 31.6997C57.8594 31.7961 57.8578 31.8925 57.8514 31.9888C57.845 32.0852 57.845 32.1652 57.8514 32.2273C57.8578 32.3106 57.8738 32.4217 57.8962 32.5638C57.9202 32.7042 57.9458 32.8512 57.973 33.0031C58.0002 33.155 58.0274 33.2955 58.0546 33.4262C58.0818 33.5568 58.1058 33.6565 58.125 33.7267C58.1858 33.6091 58.2306 33.4866 58.261 33.3592C58.2914 33.2318 58.3234 33.106 58.357 32.9819C58.4386 32.6716 58.517 32.3694 58.5954 32.0721C58.6738 31.7765 58.7666 31.4825 58.8738 31.1934C58.9074 31.1526 58.9442 31.1313 58.9858 31.1313L59.117 31.1526C59.165 31.1738 59.1906 31.2048 59.1986 31.2457C59.2114 31.3633 59.2226 31.5168 59.229 31.7063C59.2354 31.8957 59.2418 32.1032 59.2498 32.3269C59.2562 32.5507 59.2706 32.781 59.2898 33.0195C59.3106 33.2579 59.3362 33.4801 59.3714 33.6859C59.405 33.8933 59.4514 34.0746 59.5074 34.233C59.565 34.3915 59.637 34.5025 59.725 34.5646C59.765 34.5858 59.8082 34.6005 59.8514 34.6103C59.8946 34.6201 59.9378 34.6332 59.9778 34.6463C60.0386 34.6806 60.0626 34.7279 60.0482 34.7851C60.0354 34.8439 59.9906 34.8651 59.917 34.8521C59.8626 34.8308 59.8066 34.8161 59.7506 34.8063C59.693 34.7965 59.645 34.7704 59.6034 34.7296C59.421 34.5091 59.293 34.2624 59.2194 33.9897C59.1458 33.7169 59.0978 33.436 59.077 33.1469C59.0562 32.8578 59.0466 32.5621 59.0466 32.2632C59.0466 31.9627 59.0338 31.6785 59.0066 31.4106C58.925 31.6246 58.8578 31.8435 58.8034 32.0672C58.749 32.291 58.6946 32.5148 58.6418 32.7385C58.5874 32.9623 58.525 33.1828 58.4546 33.4C58.3842 33.6173 58.2946 33.8247 58.1858 34.0256C58.1522 34.0664 58.1186 34.0811 58.085 34.0664C58.0514 34.0534 58.0242 34.0289 58.0034 33.9946C57.861 33.5944 57.765 33.1828 57.7154 32.7598C57.6642 32.3367 57.629 31.917 57.6098 31.5037C57.5362 31.6834 57.469 31.8614 57.413 32.0411C57.3554 32.2208 57.3106 32.4102 57.2754 32.6095C57.2418 32.83 57.2114 33.0505 57.1842 33.271C57.157 33.4915 57.1026 33.7087 57.0226 33.9227C56.9954 33.9782 56.9618 34.0027 56.9218 33.9995C56.8818 33.9962 56.8482 33.9701 56.821 33.9227C56.7666 33.6957 56.7282 33.4588 56.7042 33.2138C56.6802 32.9688 56.6658 32.7238 56.6578 32.4805C56.6514 32.2355 56.6498 31.9905 56.653 31.7471C56.6562 31.5037 56.6578 31.2636 56.6578 31.0284C56.6578 31.0007 56.661 30.9843 56.6674 30.9762C56.6738 30.9484 56.6946 30.9272 56.7282 30.9141L56.7378 30.9043C56.765 30.9043 56.7858 30.9076 56.7986 30.9141H56.8082L56.8386 30.9549L56.8594 30.986V30.9958V31.048H56.8562Z" fill="white"/>
<path d="M60.7836 30.8731C60.8572 30.8518 60.9052 30.8714 60.926 30.9302C60.9468 30.989 60.926 31.0348 60.8652 31.0691C60.8108 31.0821 60.7596 31.0952 60.7084 31.105C60.6572 31.1148 60.6124 31.1377 60.5724 31.172C60.4444 31.2683 60.3436 31.4072 60.2684 31.5901C60.1948 31.773 60.1404 31.969 60.1068 32.1797C60.0732 32.3904 60.0572 32.5979 60.0604 32.8053C60.0636 33.0127 60.0796 33.1875 60.1068 33.3329C60.1276 33.4162 60.1484 33.4978 60.1724 33.5811C60.1964 33.6644 60.23 33.7412 60.2732 33.8131C60.3164 33.8849 60.3724 33.9454 60.4396 33.9944C60.5068 34.0434 60.5884 34.0695 60.6828 34.0777C60.886 34.0907 61.0684 34.0205 61.2348 33.8653C61.3996 33.7102 61.5308 33.5191 61.6252 33.292C61.7196 33.065 61.774 32.8282 61.7868 32.5832C61.7996 32.3382 61.7628 32.1373 61.6748 31.9788C61.6412 31.9168 61.59 31.8678 61.5228 31.8335C61.4556 31.7992 61.3804 31.7698 61.3004 31.7453C61.2188 31.7208 61.1388 31.7028 61.0572 31.6881C60.9756 31.675 60.9052 31.6571 60.8444 31.6358C60.8044 31.6015 60.7836 31.564 60.7836 31.5215C60.7836 31.4807 60.8108 31.4529 60.8652 31.4382C61.1692 31.4039 61.4636 31.3614 61.7516 31.3092C62.038 31.2569 62.3308 31.1965 62.6268 31.1279C62.694 31.1279 62.7324 31.154 62.7436 31.2063C62.7532 31.2585 62.7324 31.301 62.678 31.3353C62.4684 31.3761 62.2636 31.4186 62.0604 31.4594C61.8572 31.5003 61.6524 31.5395 61.4428 31.5738C61.5372 31.6081 61.6204 31.6456 61.6908 31.6881C61.7612 31.7289 61.814 31.7877 61.8476 31.8645C61.8812 31.92 61.9084 31.9772 61.9292 32.0344C61.95 32.0932 61.9724 32.1503 61.9996 32.2042C62.0668 32.3757 62.0732 32.5832 62.0204 32.8249C61.966 33.0666 61.8716 33.2953 61.7372 33.5125C61.6028 33.7298 61.4396 33.9143 61.2508 34.0646C61.062 34.2165 60.87 34.2916 60.6732 34.2916C60.558 34.2916 60.4572 34.2639 60.3692 34.2083C60.2812 34.1528 60.2076 34.0809 60.1468 33.9911C60.086 33.9013 60.0364 33.8049 59.9996 33.702C59.9628 33.5991 59.934 33.4995 59.9132 33.4015C59.8924 33.2773 59.8828 33.0928 59.8828 32.8478C59.8828 32.6028 59.9036 32.3512 59.9436 32.0932C59.9836 31.8351 60.046 31.5983 60.1308 31.3859C60.2156 31.172 60.3276 31.038 60.47 30.9825L60.7836 30.8731Z" fill="white"/>
<path d="M63.224 30.8731C63.2976 30.8518 63.3456 30.8714 63.3664 30.9302C63.3872 30.989 63.3664 31.0348 63.3056 31.0691C63.2512 31.0821 63.2 31.0952 63.1488 31.105C63.0976 31.1148 63.0528 31.1377 63.0128 31.172C62.8848 31.2683 62.784 31.4072 62.7088 31.5901C62.6352 31.773 62.5808 31.969 62.5472 32.1797C62.5136 32.3904 62.4976 32.5979 62.5008 32.8053C62.504 33.0127 62.52 33.1875 62.5472 33.3329C62.568 33.4162 62.5888 33.4978 62.6128 33.5811C62.6368 33.6644 62.6704 33.7412 62.7136 33.8131C62.7568 33.8849 62.8128 33.9454 62.88 33.9944C62.9472 34.0434 63.0288 34.0695 63.1232 34.0777C63.3264 34.0907 63.5088 34.0205 63.6752 33.8653C63.84 33.7102 63.9712 33.5191 64.0656 33.292C64.16 33.065 64.2144 32.8282 64.2272 32.5832C64.24 32.3382 64.2032 32.1373 64.1152 31.9788C64.0816 31.9168 64.0304 31.8678 63.9632 31.8335C63.896 31.7992 63.8208 31.7698 63.7408 31.7453C63.6592 31.7208 63.5792 31.7028 63.4976 31.6881C63.416 31.675 63.3456 31.6571 63.2848 31.6358C63.2448 31.6015 63.224 31.564 63.224 31.5215C63.224 31.4807 63.2512 31.4529 63.3056 31.4382C63.6096 31.4039 63.904 31.3614 64.192 31.3092C64.4784 31.2569 64.7712 31.1965 65.0672 31.1279C65.1344 31.1279 65.1728 31.154 65.184 31.2063C65.1936 31.2585 65.1728 31.301 65.1184 31.3353C64.9088 31.3761 64.704 31.4186 64.5008 31.4594C64.2976 31.5003 64.0928 31.5395 63.8832 31.5738C63.9776 31.6081 64.0608 31.6456 64.1312 31.6881C64.2016 31.7289 64.2544 31.7877 64.288 31.8645C64.3216 31.92 64.3488 31.9772 64.3696 32.0344C64.3904 32.0932 64.4128 32.1503 64.44 32.2042C64.5072 32.3757 64.5136 32.5832 64.4608 32.8249C64.4064 33.0666 64.312 33.2953 64.1776 33.5125C64.0432 33.7298 63.88 33.9143 63.6912 34.0646C63.5024 34.2165 63.3104 34.2916 63.1136 34.2916C62.9984 34.2916 62.8976 34.2639 62.8096 34.2083C62.7216 34.1528 62.648 34.0809 62.5872 33.9911C62.5264 33.9013 62.4784 33.8049 62.44 33.702C62.4032 33.5991 62.3744 33.4995 62.3536 33.4015C62.3328 33.2773 62.3232 33.0928 62.3232 32.8478C62.3232 32.6028 62.344 32.3512 62.384 32.0932C62.424 31.8351 62.4864 31.5983 62.5712 31.3859C62.656 31.172 62.768 31.038 62.9104 30.9825L63.224 30.8731Z" fill="white"/>
<path d="M66.2419 31.8336C66.2691 31.8613 66.2995 31.8744 66.3331 31.8744L66.2419 31.8336ZM66.2003 31.3485C66.2339 31.404 66.2675 31.4579 66.3011 31.5134C66.3347 31.569 66.3651 31.6245 66.3923 31.6784C66.4995 31.2864 66.5827 30.8846 66.6403 30.4746C66.6979 30.0647 66.7267 29.6596 66.7267 29.2611C66.7267 29.1925 66.7235 29.0847 66.7171 28.9409C66.7107 28.7956 66.6979 28.6469 66.6819 28.4918C66.6643 28.3366 66.6467 28.1896 66.6259 28.0524C66.6051 27.9152 66.5795 27.8172 66.5443 27.7584C66.5107 27.6996 66.4723 27.6963 66.4275 27.7486C66.3843 27.8009 66.3347 27.9364 66.2803 28.1569C66.2467 28.3154 66.2227 28.4754 66.2099 28.6371C66.1971 28.7988 66.1827 28.9622 66.1699 29.1288C66.1571 29.3493 66.1491 29.573 66.1491 29.8001C66.1491 30.0271 66.1523 30.2509 66.1587 30.4714C66.1651 30.602 66.1699 30.7425 66.1747 30.8895C66.1795 31.0365 66.1875 31.19 66.2003 31.3485ZM66.0595 32.0198C66.0467 31.9234 66.0355 31.8221 66.0291 31.7143C66.0227 31.6082 66.0163 31.4987 66.0083 31.3893C65.7043 30.9973 65.4547 31.141 65.2595 31.8238C65.2195 31.9691 65.1779 32.1276 65.1379 32.2991C65.0979 32.4722 65.0723 32.6437 65.0627 32.8152C65.0531 32.9867 65.0579 33.1566 65.0787 33.3215C65.0995 33.4865 65.1491 33.6417 65.2307 33.787C65.3315 33.8001 65.4147 33.7838 65.4787 33.7348C65.5427 33.6858 65.5987 33.6253 65.6451 33.5535C65.6931 33.4816 65.7347 33.3983 65.7715 33.3052C65.8083 33.2121 65.8467 33.1239 65.8883 33.0422C65.9219 32.9589 65.9571 32.8773 65.9939 32.794C66.0307 32.7107 66.0659 32.629 66.1011 32.5457L66.0595 32.0198ZM65.2195 31.3485C65.3411 31.1002 65.4691 30.9679 65.6035 30.9499C65.7379 30.932 65.8675 30.9793 65.9875 31.0888C65.9667 30.7588 65.9539 30.4256 65.9475 30.0908C65.9411 29.756 65.9475 29.4342 65.9683 29.1239C65.9683 29.0618 65.9731 28.9524 65.9827 28.7939C65.9923 28.6355 66.0131 28.4689 66.0435 28.2925C66.0739 28.1161 66.1219 27.9528 66.1859 27.8009C66.2499 27.649 66.3363 27.5526 66.4435 27.5118C66.5171 27.484 66.5843 27.5036 66.6403 27.5689C66.6979 27.6343 66.7427 27.7257 66.7779 27.8433C66.8115 27.9609 66.8387 28.0932 66.8595 28.2419C66.8803 28.3905 66.8947 28.5326 66.9043 28.6714C66.9139 28.8086 66.9219 28.9311 66.9251 29.0389C66.9283 29.1451 66.9299 29.217 66.9299 29.2513C66.9299 29.8164 66.8739 30.3701 66.7635 30.9107C66.6515 31.4514 66.4979 31.9871 66.3027 32.5179C66.3235 32.6829 66.3411 32.8446 66.3587 33.003C66.3763 33.1615 66.3939 33.3101 66.4147 33.4473C66.4883 34.0059 66.5827 34.5416 66.6931 35.0545C66.8051 35.5674 66.9811 36.0721 67.2243 36.5686C67.2371 36.6307 67.2227 36.6748 67.1795 36.7025C67.1363 36.7303 67.0899 36.7156 67.0419 36.6617C66.7587 36.0835 66.5523 35.4792 66.4243 34.8536C66.2963 34.2264 66.2019 33.5927 66.1411 32.9524C66.1283 32.9802 66.1155 33.0079 66.1059 33.0357C66.0963 33.0635 66.0835 33.0912 66.0707 33.119C66.0499 33.1598 66.0211 33.2252 65.9843 33.315C65.9475 33.4048 65.8995 33.4979 65.8419 33.5943C65.7843 33.6907 65.7219 33.7789 65.6547 33.8573C65.5875 33.9373 65.5123 33.9896 65.4323 34.0173C65.3251 34.0516 65.2339 34.0451 65.1587 33.9961C65.0851 33.9487 65.0259 33.8801 64.9811 33.7952C64.9379 33.7086 64.9075 33.6155 64.8899 33.5159C64.8723 33.4163 64.8643 33.3281 64.8643 33.2529C64.8771 32.9295 64.9043 32.6029 64.9459 32.2762C64.9859 31.9463 65.0771 31.6376 65.2195 31.3485Z" fill="white"/>
<path fill-rule="evenodd" clip-rule="evenodd" d="M13.9807 36.4002C16.6271 36.4035 19.1903 36.4198 21.8159 36.3087C22.2063 36.2777 22.5935 36.2581 22.9759 36.2516L23.0383 36.2483C23.0895 36.245 23.1327 36.2467 23.1679 36.2499C23.1871 36.2499 23.2063 36.2499 23.2255 36.2499V36.2597C23.3791 36.2973 23.3119 36.41 23.2223 36.4263C23.1807 36.4345 22.7279 36.4492 22.3151 36.4655C22.1087 36.4753 21.9023 36.4851 21.6975 36.4933C21.6879 36.4933 21.6799 36.4949 21.6735 36.4949C19.7999 36.6632 17.9615 37.0045 16.0591 37.1728C13.1791 37.4276 10.3391 37.7003 7.45109 37.8098C9.58229 38.3782 12.8463 38.1511 14.9759 38.0417C20.2191 37.7706 25.5055 37.1744 30.7567 36.7775C44.3679 35.7485 58.0607 35.0135 71.6927 34.2997C72.5807 34.2524 72.2351 34.2703 73.1231 34.2295C72.2511 34.2899 72.5695 34.2687 71.6943 34.3226C56.9567 35.2177 42.2287 35.9608 27.5087 37.163C24.6271 37.3982 8.96949 39.1295 6.94709 37.8196C6.64629 37.6236 7.47829 37.6546 7.56309 37.6513C10.3903 37.5452 13.2271 37.2593 16.0463 37.0078C17.2063 36.9033 18.4063 36.7203 19.5999 36.5603C17.7343 36.5978 15.8783 36.5913 13.9823 36.5897C13.9327 36.5897 13.8911 36.5488 13.8911 36.4966C13.8895 36.441 13.9295 36.4002 13.9807 36.4002Z" fill="white"/>
</svg>
