<svg width="67" height="41" viewBox="0 0 67 41" fill="none" xmlns="http://www.w3.org/2000/svg">
<path d="M37.2213 19.442C37.1342 19.658 37.0404 19.8712 36.9613 20.0898C36.7348 20.7076 36.3181 21.1613 35.7741 21.4934C34.8883 22.0346 33.5148 21.4975 33.2562 20.4657C33.1436 20.0147 32.9319 19.8206 32.5138 19.7318C31.3588 19.4871 31.612 19.4106 31.2328 20.4069C31.009 20.9932 30.8214 21.5932 30.6017 22.1822C30.4409 22.6127 29.9142 22.7056 29.6074 22.3544C29.5404 22.2779 29.523 22.107 29.5538 22.0004C29.6797 21.5699 29.8111 21.1381 29.9839 20.7267C30.1407 20.3509 30.1407 20.0024 29.9906 19.6306C29.8606 19.3081 29.7494 18.9746 29.6583 18.6384C29.5551 18.2585 29.7039 18.0863 30.0884 18.1054C30.2519 18.1136 30.4141 18.1396 30.6271 18.1628C30.5775 18.007 30.5373 17.8977 30.5079 17.787C30.2546 16.8344 29.9893 15.8832 29.7548 14.9252C29.6422 14.4633 29.8499 14.2268 30.3082 14.2473C33.6636 14.4031 37.0189 14.563 40.3729 14.7243C40.5257 14.7311 40.7012 14.7202 40.7374 14.9416C40.7749 15.1767 40.6262 15.5142 40.4064 15.5908C40.2255 15.6536 40.0219 15.6878 39.8302 15.6782C38.2316 15.599 36.6317 15.5279 35.0357 15.4131C33.6743 15.3147 32.3182 15.1589 30.9581 15.0291C30.6352 14.9976 30.5481 15.0783 30.6164 15.3912C30.7316 15.9147 30.8616 16.4381 31.2502 16.9164C31.3735 16.7333 31.4753 16.583 31.5772 16.4313C31.6924 16.2577 31.7835 16.0582 31.9309 15.9188C32.0341 15.8204 32.2244 15.7397 32.3557 15.763C32.5715 15.8012 32.5741 16.024 32.542 16.2058C32.5071 16.4012 32.4442 16.5925 32.3892 16.7839C32.2673 17.2157 32.1413 17.6462 32.018 18.0795C31.9175 18.4334 31.9819 18.5633 32.3195 18.7068C32.3557 18.7218 32.3946 18.7341 32.4294 18.7519C32.8931 18.9938 33.2977 19.0648 33.6622 18.5346C33.8766 18.2216 34.2532 18.0836 34.6418 18.0453C35.1644 17.9934 35.6226 18.2886 35.762 18.771C35.9 19.2466 35.6789 19.7864 35.2072 19.9955C34.9178 20.124 34.5908 20.165 34.2411 20.2552C34.2639 20.3085 34.2813 20.3932 34.3282 20.4561C34.6605 20.9153 35.3667 21.0615 35.7982 20.6994C36.0756 20.467 36.2953 20.1431 36.4829 19.8261C36.6317 19.5746 36.6558 19.3026 36.3663 19.0594C36.1184 18.8503 36.1345 18.5305 36.3302 18.2763C36.4977 18.059 36.8179 17.9852 37.0752 18.1437C37.3204 18.2954 37.5482 18.3432 37.8256 18.2298C38.0561 18.1355 38.1834 18.2503 38.1539 18.5154C38.115 18.8721 38.0253 19.2247 38.0025 19.5814C37.9877 19.8138 38.0239 20.0598 38.0923 20.2825C38.1633 20.5135 38.3536 20.5408 38.5318 20.385C38.8199 20.1349 38.919 19.5063 38.7234 19.1742C38.7033 19.14 38.6805 19.1072 38.6604 19.073C38.4581 18.73 38.4527 18.4813 38.6403 18.2735C38.8185 18.0767 39.0611 18.0494 39.3961 18.2339C39.7592 18.4348 40.0902 18.4539 40.4453 18.2079C40.5431 18.1396 40.7589 18.1259 40.8419 18.1915C40.9197 18.2517 40.9371 18.4621 40.9049 18.5851C40.7414 19.207 40.6262 19.8343 40.6852 20.4793C40.6959 20.5969 40.7763 20.7062 40.8245 20.8196C40.9116 20.7513 41.0215 20.6994 41.0805 20.6105C41.331 20.2402 41.5629 19.8575 41.8054 19.4817C42.135 18.9746 42.5183 18.5264 43.0972 18.2981C43.4563 18.156 43.6881 18.2134 43.8556 18.5674C43.9936 18.8585 44.0606 19.1865 44.145 19.5022C44.2174 19.7714 44.2482 20.0529 44.338 20.314C44.4318 20.5873 44.5484 20.6023 44.7279 20.3727C44.8727 20.1869 44.9785 19.9696 45.1005 19.7646C45.3149 19.4065 45.4971 19.0238 45.7504 18.6972C46.2488 18.0535 47.2753 18.2462 47.5366 19.0293C47.6357 19.3259 47.6478 19.6539 47.6947 19.9696C47.7081 20.0639 47.7054 20.1595 47.7135 20.3331C47.8702 20.2279 47.9788 20.1718 48.0645 20.0912C48.4411 19.74 48.7895 19.3546 49.1888 19.0334C49.5238 18.7642 49.899 18.5346 50.2836 18.3487C50.6266 18.182 50.9107 18.3132 51.0434 18.6767C51.1693 19.0211 51.235 19.3874 51.3261 19.7441C51.3529 19.8507 51.373 19.9586 51.4052 20.0639C51.5244 20.4479 51.7683 20.5162 52.0202 20.2046C52.2936 19.8671 52.5214 19.4899 52.7773 19.1373C52.9395 18.9131 53.0962 18.6781 53.2932 18.4867C53.5358 18.2517 53.8158 18.3542 53.8292 18.6917C53.8453 19.0566 53.7904 19.4256 53.7502 19.7905C53.7247 20.0242 53.6711 20.2538 53.6296 20.4862C53.6523 20.5012 53.6751 20.5162 53.6979 20.5313C53.7997 20.467 53.923 20.4219 54.0007 20.3345C54.4898 19.7782 54.9696 19.2124 55.452 18.6507C55.5873 18.4936 55.6731 18.2161 55.9451 18.3173C56.1997 18.4116 56.2077 18.6835 56.1903 18.909C56.1568 19.3163 56.0858 19.7195 56.0295 20.124C56.0121 20.2484 55.9906 20.3727 55.9719 20.4971C55.9933 20.5135 56.0148 20.5299 56.0362 20.5463C56.1555 20.4547 56.2948 20.3809 56.39 20.2689C56.666 19.945 56.9166 19.5992 57.1899 19.2726C57.399 19.0238 57.6107 18.7696 57.8586 18.5646C57.9712 18.4717 58.2191 18.4184 58.3249 18.4826C58.4308 18.5469 58.4924 18.7901 58.471 18.9418C58.4254 19.2753 58.3142 19.6006 58.2338 19.9299C58.1896 20.1103 58.1547 20.2921 58.0958 20.5695C58.2753 20.467 58.3812 20.4247 58.467 20.355C58.948 19.96 59.4344 19.5719 59.8967 19.155C60.481 18.6289 61.1228 18.3378 61.9268 18.3665C63.0257 18.4061 64.1271 18.3788 65.2273 18.3747C65.4899 18.3733 65.7003 18.4608 65.7726 18.7327C65.8651 19.0758 65.6346 19.2999 65.2393 19.2726C64.2504 19.2056 63.2601 19.1359 62.2712 19.0703C62.168 19.0635 62.0649 19.0689 61.955 19.0689C61.9764 19.3833 62.0193 19.6593 62.0099 19.934C61.9697 20.9918 61.1684 21.708 60.1594 21.6082C59.6676 21.5604 59.3406 21.3048 59.1892 20.8224C59.1638 20.739 59.1329 20.6584 59.0901 20.5326C58.9681 20.6119 58.873 20.6734 58.7792 20.7349C58.3584 21.0096 57.9497 21.3062 57.5129 21.5508C57.1658 21.7462 56.9152 21.544 56.9608 21.1367C56.9863 20.9071 57.0358 20.6802 57.0734 20.4534C57.0345 20.4288 56.9956 20.4042 56.9581 20.3796C56.7866 20.5791 56.6325 20.7978 56.4409 20.9741C56.1957 21.1996 55.9411 21.4305 55.6516 21.5836C55.322 21.7572 55.0794 21.5727 55.0607 21.1873C55.054 21.0383 55.0727 20.888 55.0768 20.739C55.0794 20.6037 55.0768 20.467 55.0768 20.247C54.8704 20.4178 54.7324 20.5367 54.589 20.6502C54.2567 20.9153 53.927 21.1832 53.588 21.4374C53.4714 21.5248 53.3334 21.5918 53.1954 21.6355C52.9006 21.7298 52.7157 21.6096 52.6715 21.2966C52.646 21.1203 52.6567 20.9385 52.6487 20.7581C52.6447 20.6433 52.638 20.5299 52.6326 20.4151C52.6004 20.396 52.5669 20.3755 52.5348 20.3563C52.3981 20.5203 52.2708 20.6925 52.1234 20.8456C51.9398 21.0383 51.7549 21.2365 51.5459 21.3977C51.2323 21.641 51.0099 21.5904 50.7767 21.2597C50.7097 21.1654 50.6534 21.0629 50.5744 20.9372C50.4136 21.0506 50.2755 21.1572 50.1268 21.2488C49.9352 21.3663 49.7449 21.5057 49.5359 21.574C49.0494 21.7339 48.6796 21.4702 48.6153 20.9536C48.6005 20.8388 48.5724 20.7253 48.5309 20.5108C48.1396 20.9536 47.6666 21.2146 47.5634 21.7804C47.3503 22.9434 47.0997 24.0928 46.5142 25.1328C46.2019 25.6863 45.8053 26.1619 45.2934 26.5364C45.0294 26.7291 44.7373 26.8316 44.4372 26.684C44.137 26.5364 43.9856 26.2316 44.0271 25.9118C44.0767 25.5333 44.1678 25.1438 44.3286 24.8021C44.8392 23.7115 45.5896 22.7822 46.3319 21.8487C46.4418 21.7107 46.5544 21.5754 46.6321 21.3868C46.4431 21.4497 46.2582 21.5235 46.0666 21.5727C45.6767 21.6724 45.3082 21.6916 45.0375 21.2952C45.004 21.2474 44.8512 21.2447 44.7748 21.2761C44.6703 21.3198 44.5886 21.4196 44.4921 21.4879C44.0566 21.7913 43.739 21.7162 43.4737 21.2488C43.4402 21.19 43.4013 21.1326 43.3343 21.0287C43.1722 21.1558 43.0208 21.272 42.872 21.3923C42.6563 21.5686 42.403 21.7121 42.1404 21.6041C41.9099 21.5084 41.7223 21.3062 41.5146 21.1517C41.4677 21.1176 41.382 21.1476 41.3203 21.2146C41.2265 21.3171 41.1501 21.4333 41.0657 21.544C40.9183 21.7408 40.795 21.9963 40.5029 21.9608C40.1987 21.9239 40.0808 21.6533 39.979 21.4046C39.7512 20.8524 39.8008 20.2689 39.8168 19.6894C39.8222 19.5295 39.786 19.3682 39.7699 19.207C39.7311 19.207 39.6922 19.2083 39.6534 19.2083C39.6185 19.3259 39.5797 19.442 39.5515 19.5609C39.4122 20.1527 39.1857 20.7062 38.7783 21.1558C38.6028 21.3499 38.3804 21.5166 38.1499 21.6355C37.772 21.8282 37.4598 21.6902 37.3526 21.2706C37.2749 20.9672 37.2722 20.6406 37.2655 20.3235C37.2601 20.0393 37.2976 19.7536 37.3164 19.468C37.2856 19.4612 37.2534 19.4516 37.2213 19.442ZM46.4163 22.9325C45.7906 23.594 45.2546 24.3101 44.9343 25.1697C44.9115 25.2312 44.9477 25.316 44.9571 25.3898C45.0536 25.3679 45.1768 25.3775 45.2425 25.3201C45.9648 24.6982 46.3373 23.8892 46.4163 22.9325ZM46.8853 19.9764C46.8652 19.8083 46.8599 19.6361 46.8197 19.4735C46.7433 19.1619 46.5276 19.0935 46.3024 19.3204C45.9674 19.6593 45.8415 20.0871 45.9326 20.5545C46.0036 20.9194 46.3225 21.0069 46.6039 20.765C46.8478 20.56 46.8853 20.2771 46.8853 19.9764ZM61.1161 19.8534C61.1068 19.8028 61.1215 19.6566 61.0572 19.5787C60.9795 19.483 60.8213 19.3764 60.7195 19.3956C60.4408 19.4489 60.0977 19.9272 60.0763 20.2183C60.0535 20.5231 60.2438 20.7062 60.5453 20.672C60.8857 20.631 61.096 20.355 61.1161 19.8534ZM49.568 19.9846C49.5734 20.4028 49.7717 20.5941 50.0263 20.4903C50.3975 20.3399 50.6467 19.673 50.4618 19.3095C50.3841 19.1564 50.2688 19.0279 50.0893 19.155C49.7864 19.371 49.6015 19.6675 49.568 19.9846ZM43.3477 19.4926C43.3169 19.4325 43.2767 19.2425 43.1695 19.1892C43.0905 19.1496 42.8787 19.2521 42.8064 19.3518C42.6483 19.5705 42.521 19.8192 42.4258 20.0734C42.3923 20.1623 42.458 20.3468 42.537 20.4042C42.6174 20.4616 42.789 20.4547 42.8854 20.4042C43.2044 20.2388 43.3263 19.9409 43.3477 19.4926ZM34.5305 19.4776C34.824 19.442 35.0665 19.3969 35.1268 19.1359C35.1523 19.0279 35.0692 18.8311 34.9754 18.7724C34.7503 18.6302 34.5748 18.812 34.4073 18.95C34.3992 18.9569 34.3898 18.9623 34.3872 18.9705C34.3416 19.0935 34.2451 19.2288 34.2692 19.3354C34.2867 19.4106 34.4689 19.4475 34.5305 19.4776Z" fill="white"/>
<path d="M22.1224 19.025C22.1532 19.1193 22.1814 19.2095 22.2108 19.3011C22.5579 20.3958 21.6038 21.7255 20.5023 21.6804C19.9395 21.6572 19.6193 21.3497 19.5483 20.7798C19.492 20.3247 19.6621 19.9379 19.8859 19.5648C19.9502 19.4569 20.0119 19.3475 20.1137 19.1699C19.835 19.1412 19.6153 19.0892 19.4009 19.1084C19.3164 19.1166 19.2173 19.2669 19.1717 19.3735C18.9399 19.9243 18.7268 20.4832 18.4977 21.034C18.4334 21.1884 18.3436 21.336 18.2471 21.4741C18.0702 21.7283 17.8049 21.7638 17.5959 21.5356C17.4525 21.3798 17.3225 21.1857 17.2569 20.9848C17.0049 20.2181 16.7758 19.4432 16.5507 18.6683C16.5078 18.5193 16.5024 18.3512 16.5172 18.1941C16.548 17.8592 16.7436 17.6652 17.0679 17.7144C17.5021 17.78 17.9336 17.8866 18.353 18.0191C18.6371 18.1093 18.7496 18.0246 18.7992 17.7499C18.9613 16.8356 19.1342 15.924 19.295 15.0097C19.3566 14.6599 19.4652 14.5287 19.7171 14.5519C20.0722 14.5847 20.308 14.8034 20.2477 15.1245C20.0695 16.0744 19.8712 17.0215 19.6554 17.9631C19.5925 18.2378 19.63 18.3458 19.9168 18.4196C20.639 18.6041 21.3318 18.4934 21.9951 18.2241C22.582 17.9863 22.9746 18.3991 23.4369 18.5767C23.5146 18.6068 23.5656 18.7735 23.5857 18.8842C23.6393 19.1781 23.654 19.4801 23.7143 19.7726C23.7559 19.9748 23.8175 20.1839 23.9247 20.3548C23.9877 20.4559 24.1592 20.5502 24.2731 20.5393C24.4567 20.5215 24.5679 20.3876 24.5599 20.1593C24.5411 19.6632 24.6805 19.2109 24.9967 18.8255C25.2701 18.4934 25.6144 18.3075 26.0459 18.3048C26.4935 18.302 26.7976 18.5043 26.9397 18.8979C27.0911 19.3188 26.9866 19.7739 26.6543 20.0377C26.4854 20.173 26.2871 20.2687 26.1116 20.3971C26.0406 20.4491 25.9387 20.5721 25.9561 20.6103C25.9977 20.6964 26.0982 20.7976 26.1866 20.8085C26.3876 20.8345 26.598 20.8263 26.8003 20.803C27.0737 20.773 27.3444 20.6732 27.6137 20.6841C27.9179 20.6964 28.2234 20.7771 28.5155 20.8727C28.5946 20.8987 28.6911 21.1146 28.6589 21.1912C28.5825 21.3716 28.4834 21.593 28.214 21.5369C28.1283 21.5192 28.0492 21.4741 27.9661 21.4426C27.6124 21.3032 27.272 21.2964 26.9102 21.4563C26.6087 21.5902 26.2804 21.6804 25.9548 21.7365C25.5809 21.8007 25.2526 21.6586 25.0208 21.347C24.8855 21.1666 24.7542 21.1515 24.5692 21.2636C24.3589 21.3907 24.1418 21.511 23.9153 21.6053C23.5522 21.757 23.374 21.716 23.2158 21.3593C23.0483 20.9821 22.9505 20.5707 22.8326 20.1716C22.7415 19.8669 22.6812 19.5512 22.578 19.2519C22.4922 19.0072 22.3917 18.9717 22.1224 19.025ZM21.5904 19.9079C21.4872 19.7452 21.4176 19.5266 21.2715 19.4336C21.0584 19.297 20.8253 19.4446 20.7221 19.6373C20.5894 19.8819 20.4876 20.1634 20.4568 20.4395C20.4233 20.7388 20.6886 20.8932 20.9807 20.7948C21.2996 20.6855 21.514 20.3548 21.5904 19.9079ZM17.419 18.7817C17.5865 19.3325 17.5811 19.9147 17.9121 20.5065C18.0381 20.255 18.1386 20.091 18.2069 19.912C18.5205 19.0879 18.3972 18.8788 17.5409 18.7503C17.5235 18.7476 17.5048 18.7585 17.419 18.7817ZM25.597 19.8956C25.8436 19.707 26.0714 19.5717 26.2402 19.3831C26.3045 19.312 26.2871 19.0687 26.2161 18.9963C26.1477 18.9266 25.936 18.9293 25.8329 18.9854C25.5662 19.1316 25.4778 19.4541 25.597 19.8956Z" fill="white"/>
<path d="M8.76214 20.6271C8.4928 20.8786 8.27438 21.0904 8.04658 21.2913C7.89784 21.4212 7.74106 21.5442 7.5749 21.648C7.16084 21.9091 6.95984 21.8476 6.72266 21.4116C6.68514 21.3433 6.6436 21.2777 6.58866 21.1834C6.41312 21.2954 6.25902 21.4184 6.08482 21.4977C5.83826 21.6125 5.58366 21.7492 5.32102 21.7806C4.77028 21.8462 4.43662 21.4676 4.53176 20.9141C4.64566 20.2513 4.98066 19.6951 5.46976 19.2577C5.7525 19.0049 6.0875 18.7958 6.4292 18.6318C6.91964 18.394 7.34174 18.6291 7.4342 19.1771C7.48646 19.4887 7.45698 19.814 7.48914 20.131C7.50254 20.2554 7.5548 20.4194 7.64458 20.4754C7.71426 20.5205 7.8697 20.4303 7.98494 20.3934C8.02112 20.3825 8.04792 20.3456 8.08276 20.3265C8.50888 20.0859 8.70184 19.7607 8.70184 19.2208C8.70184 17.9457 8.95778 16.7157 9.6854 15.6402C9.9065 15.3135 10.1758 15.017 10.4519 14.7354C10.7641 14.4156 11.0401 14.4648 11.2545 14.8625C11.5842 15.4748 11.5292 16.1185 11.3457 16.7554C11.0616 17.7366 10.5698 18.6113 9.93196 19.3944C9.74034 19.6295 9.6787 19.8632 9.75508 20.1351C9.90516 20.6613 10.0673 21.1847 10.2335 21.7054C10.342 22.0485 10.2696 22.1906 9.88238 22.3464C9.53264 22.4872 9.42276 22.4557 9.2834 22.1141C9.14538 21.7738 9.0355 21.4212 8.9149 21.074C8.868 20.9469 8.82646 20.8157 8.76214 20.6271ZM9.74704 18.2136C10.2348 17.7298 10.535 17.1462 10.6971 16.493C10.744 16.3044 10.7386 16.0966 10.7212 15.9012C10.7132 15.811 10.614 15.729 10.5564 15.6429C10.48 15.6989 10.3742 15.7372 10.3313 15.8124C9.9132 16.5517 9.74436 17.3581 9.74704 18.2136ZM5.6118 20.429C5.59438 20.7638 5.73776 20.895 5.97494 20.8198C6.36756 20.6955 6.78832 19.9766 6.70792 19.5639C6.67308 19.3876 6.58062 19.2755 6.40106 19.3753C5.96958 19.6172 5.67076 19.9657 5.6118 20.429Z" fill="white"/>
<path d="M11.9272 20.1761C12.1229 19.9602 12.2729 19.7948 12.423 19.6281C12.687 19.3329 12.9349 19.0199 13.219 18.7479C13.5754 18.4076 13.9922 18.3284 14.4759 18.4828C14.6957 18.5525 14.9596 18.5238 15.1941 18.4855C15.8387 18.383 16.1187 18.6044 16.1228 19.2768C16.1254 19.5666 16.0893 19.8549 16.0893 20.1447C16.0906 20.7187 16.2005 20.8471 16.7512 20.9592C16.7968 20.9688 16.837 20.9961 16.8785 21.0139C16.7191 21.6658 15.8226 21.9555 15.3737 21.4977C15.1834 21.305 15.0494 21.294 14.8216 21.4375C14.5844 21.5865 14.3111 21.704 14.0377 21.7573C13.5084 21.8626 13.2056 21.5564 13.2538 21.0152C13.3034 20.4645 13.5084 19.9725 13.818 19.5215C13.8809 19.4285 13.9345 19.3288 13.9922 19.2317C13.968 19.203 13.9439 19.1757 13.9198 19.147C13.7979 19.2208 13.6505 19.2686 13.558 19.3711C13.0903 19.8836 12.6347 20.4057 12.1818 20.9305C11.9875 21.156 11.8147 21.3993 11.6204 21.6248C11.3979 21.8844 11.2318 21.8612 11.142 21.54C10.9544 20.8676 10.7762 20.1925 10.6234 19.5119C10.5323 19.106 10.8994 18.6167 11.3028 18.588C11.3859 18.5826 11.5292 18.7015 11.5601 18.793C11.6606 19.0951 11.7195 19.4094 11.7972 19.7196C11.8321 19.8508 11.8709 19.9793 11.9272 20.1761ZM15.3228 19.6089C15.3281 19.3834 15.1807 19.2714 14.9972 19.3643C14.5737 19.5789 14.3178 19.9287 14.2695 20.4125C14.2454 20.6558 14.4102 20.7624 14.63 20.6449C15.0414 20.4221 15.2343 20.0408 15.3228 19.6089Z" fill="white"/>
<path d="M3.30455 18.5976C3.30455 18.2478 3.30589 17.8979 3.30455 17.5494C3.30053 17.0287 3.46937 16.5722 3.87807 16.2579C4.67537 15.6429 5.49143 15.0539 6.30481 14.4607C6.38789 14.4006 6.51519 14.3391 6.60229 14.361C6.75103 14.3979 6.94131 14.4662 7.00563 14.5837C7.05655 14.6767 6.98955 14.909 6.89709 14.9965C6.53127 15.3422 6.13865 15.6593 5.75005 15.9805C5.42175 16.2511 5.08273 16.508 4.75443 16.7759C4.50921 16.9768 4.39799 17.2323 4.41943 17.5631C4.46097 18.2204 4.49313 18.8792 4.50251 19.5393C4.51189 20.1201 4.39129 20.6722 4.03753 21.1478C3.56987 21.7765 2.95079 21.9815 2.21513 21.7355C2.02217 21.6713 1.83055 21.5783 1.66037 21.4649C1.07613 21.0768 1.06541 20.8335 1.57729 20.3524C1.78231 20.1597 2.00073 20.1146 2.25131 20.2417C2.37459 20.3046 2.49385 20.3757 2.61847 20.4331C2.96419 20.5943 3.20941 20.4754 3.25095 20.0914C3.30321 19.5953 3.31661 19.0951 3.34743 18.5976C3.33135 18.5976 3.31795 18.5976 3.30455 18.5976Z" fill="white"/>
</svg>
