<svg width="47" height="29" viewBox="0 0 47 29" fill="none" xmlns="http://www.w3.org/2000/svg">
<g clip-path="url(#clip0_125_4140)">
<path fill-rule="evenodd" clip-rule="evenodd" d="M23.0516 5.36503C22.9238 5.43753 22.6268 5.53226 22.4651 5.60573C21.9189 5.85609 21.4254 6.23986 21.0419 6.65263C20.8135 6.89913 20.7928 6.80439 20.7938 7.26163C20.7947 8.00306 20.7627 9.12053 20.7975 9.77206L20.7947 9.93639L20.7975 10.0998L20.7956 10.2931C20.7862 10.6053 20.7731 13.1631 20.8088 13.2656C20.8332 13.3352 21.103 13.6001 21.1622 13.6581C21.6153 14.1018 21.824 14.24 22.4425 14.5754L22.9915 14.7997C23.015 14.8074 23.0667 14.8277 23.0921 14.8316C23.2086 14.8471 23.1334 14.8471 23.1861 14.8181C23.2603 14.5948 23.1992 11.5672 23.2067 11.0413L25.8378 11.0432C25.8604 11.7344 25.7908 14.4701 25.8575 14.8335L26.1283 14.7668C26.1922 14.7146 26.5099 14.5919 26.6142 14.5416C26.774 14.4643 26.9329 14.3657 27.0683 14.2806C27.3728 14.0902 28.0318 13.5189 28.2122 13.2443C28.2733 13.1506 28.2508 13.0355 28.2508 12.9031C28.248 12.1298 28.2752 7.11083 28.2404 7.00159C28.2254 6.95519 28.1032 6.81116 28.0797 6.78893C27.7535 6.46703 27.7723 6.44576 27.4236 6.16929L27.3202 6.07649C27.0363 5.93826 26.4808 5.46556 25.8575 5.35923C25.8002 5.68209 25.85 8.40326 25.8387 9.01516L23.2067 9.01709C23.1983 8.51926 23.2415 5.55739 23.1785 5.34473L23.0516 5.36503Z" fill="white"/>
<path fill-rule="evenodd" clip-rule="evenodd" d="M24.5198 2.19922C26.85 2.19922 28.9368 3.26739 30.3449 4.95229L28.8973 6.44095C27.8633 5.13209 26.287 4.29592 24.5198 4.29592C21.4065 4.29592 18.8826 6.89142 18.8826 10.093C18.8826 13.2946 21.4065 15.8901 24.5198 15.8901C26.2588 15.8901 27.8135 15.0801 28.8475 13.807L30.2932 15.2937C28.8861 16.9448 26.8209 17.9868 24.5188 17.9868C20.2794 17.9868 16.8428 14.4527 16.8428 10.093C16.8437 5.73335 20.2804 2.19922 24.5198 2.19922Z" fill="white"/>
<path d="M7.54725 25.2293V23.4081H6.59691V25.2293H5.59863V20.8667H6.59597V22.5149H7.54631V20.8667H8.54459V25.2293H7.54725Z" fill="white"/>
<path d="M10.7411 25.3326C9.51632 25.3326 9.10742 24.0102 9.10742 23.0474C9.10742 22.0846 9.51632 20.7622 10.7411 20.7622C11.966 20.7622 12.3749 22.0846 12.3749 23.0474C12.3749 24.0102 11.966 25.3326 10.7411 25.3326ZM10.7411 21.6486C10.1452 21.6486 10.1048 22.4519 10.1048 23.0474C10.1048 23.6496 10.1452 24.4462 10.7411 24.4462C11.3371 24.4462 11.3775 23.6361 11.3775 23.0474C11.3766 22.4519 11.3371 21.6486 10.7411 21.6486Z" fill="white"/>
<path d="M12.917 25.2293V20.8667H13.888V24.3428H15.0799V25.2293H12.917Z" fill="white"/>
<path d="M15.4346 25.2293V20.8667H16.4253V25.2293H15.4346Z" fill="white"/>
<path d="M18.4215 25.2293H17.082V20.8667H18.4817C19.7535 20.8667 20.1887 21.8643 20.1887 23.0272C20.1887 24.135 19.6135 25.2293 18.4215 25.2293ZM18.4544 21.7386H18.0728V24.3564H18.4206C19.057 24.3564 19.1839 23.5811 19.1839 23.0688C19.1848 22.5352 19.1444 21.7386 18.4544 21.7386Z" fill="white"/>
<path d="M22.7393 25.2293L22.5249 24.3293H21.6818L21.4674 25.2293H20.4297L21.6084 20.8667H22.5926L23.778 25.2293H22.7393ZM22.1038 22.1891L21.7889 23.5183H22.4187L22.1038 22.1891Z" fill="white"/>
<path d="M25.5126 23.5946V25.2293H24.5152L24.5218 23.5946L23.4502 20.8657H24.5152L25.0106 22.5622L25.5126 20.8657H26.5776L25.5126 23.5946Z" fill="white"/>
<path d="M30.5872 25.3326C29.322 25.3326 28.8125 24.1968 28.8125 23.0474C28.8125 21.9599 29.415 20.7622 30.6004 20.7622C30.9482 20.7622 31.4642 20.8589 31.7519 21.0947L31.3834 21.7869C31.1691 21.6757 30.8344 21.6274 30.6004 21.6274C30.0251 21.6274 29.8108 22.6105 29.8108 23.0745C29.8108 23.6148 29.9245 24.4597 30.6145 24.4597C30.8692 24.4597 31.1907 24.3563 31.405 24.2103L31.8402 24.8957C31.5178 25.1731 30.9952 25.3326 30.5872 25.3326Z" fill="white"/>
<path d="M34.2774 25.2293L34.063 24.3293H33.2199L33.0055 25.2293H31.9678L33.1465 20.8667H34.1307L35.3161 25.2293H34.2774ZM33.641 22.1891L33.3261 23.5183H33.9559L33.641 22.1891Z" fill="white"/>
<path d="M37.7786 25.2293L36.7005 23.7058V25.2293H35.7031V20.8667H36.8076C37.7316 20.8667 38.5485 21.2128 38.5485 22.3003C38.5485 22.8542 38.2336 23.381 37.7316 23.5811L38.6152 24.7653V25.2293H37.7786ZM36.9618 21.7319H36.7005V22.9228C36.7672 22.9431 36.8809 22.9711 36.9486 22.9711C37.3303 22.9711 37.538 22.6666 37.538 22.2925C37.538 21.8846 37.35 21.7319 36.9618 21.7319Z" fill="white"/>
<path d="M39.0713 25.2293V20.8667H41.5153V21.7531H40.0686V22.5149H41.1797V23.4148H40.0686V24.3293H41.5886V25.2293H39.0713Z" fill="white"/>
</g>
<defs>
<clipPath id="clip0_125_4140">
<rect width="47" height="29" fill="white"/>
</clipPath>
</defs>
</svg>
