<svg width="99" height="72" viewBox="0 0 99 72" fill="none" xmlns="http://www.w3.org/2000/svg">
<g clip-path="url(#clip0_1300_912)">
<path fill-rule="evenodd" clip-rule="evenodd" d="M49.2359 30.7837C53.3335 30.7837 56.6506 34.1029 56.6506 38.203C56.6506 42.3032 53.3335 45.6223 49.2359 45.6223C45.1384 45.6223 41.8213 42.3032 41.8213 38.203C41.8213 34.1029 45.1384 30.7837 49.2359 30.7837Z" fill="black"/>
<path fill-rule="evenodd" clip-rule="evenodd" d="M49.2355 16.5957C52.6176 16.5957 55.4144 19.3942 55.4144 22.7785C55.4144 26.1627 52.6176 28.9612 49.2355 28.9612C45.8534 28.9612 43.0566 26.1627 43.0566 22.7785C43.0566 19.3942 45.8534 16.5957 49.2355 16.5957Z" fill="black"/>
<path fill-rule="evenodd" clip-rule="evenodd" d="M49.2356 7.22412C51.2519 7.22412 52.943 8.91625 52.943 10.9338C52.943 12.9513 51.2519 14.6434 49.2356 14.6434C47.2194 14.6434 45.5283 12.9513 45.5283 10.9338C45.5283 8.91625 47.2194 7.22412 49.2356 7.22412Z" fill="black"/>
<path fill-rule="evenodd" clip-rule="evenodd" d="M49.2362 0C50.602 0 51.7077 1.10639 51.7077 2.47311C51.7077 3.83982 50.602 4.94621 49.2362 4.94621C47.8703 4.94621 46.7646 3.83982 46.7646 2.47311C46.7646 1.10639 47.8703 0 49.2362 0Z" fill="black"/>
<path fill-rule="evenodd" clip-rule="evenodd" d="M27.5775 36.9014C24.1303 38.1379 22.3742 41.9778 23.61 45.362C24.4555 47.5748 26.3417 49.1368 28.488 49.5923L29.0734 47.9002C29.3335 47.1843 29.984 46.7287 30.6994 46.7287H35.3173C36.423 45.0366 36.7482 42.8238 36.0327 40.8063C34.797 37.357 30.9596 35.5997 27.5775 36.8363" fill="black"/>
<path fill-rule="evenodd" clip-rule="evenodd" d="M23.2195 24.9912C20.3577 26.0325 18.8617 29.2215 19.9024 32.0851C20.943 34.9487 24.13 36.3805 26.9918 35.3392C29.8536 34.2979 31.2845 31.1089 30.3089 28.2453C29.2682 25.3817 26.0813 23.9499 23.2195 24.9261" fill="black"/>
<path fill-rule="evenodd" clip-rule="evenodd" d="M20.4229 17.1818C18.7318 17.8326 17.8213 19.72 18.4717 21.4121C19.1221 23.1042 21.0083 24.0153 22.6993 23.3645C24.3904 22.7137 25.3009 20.8263 24.6505 19.1342C24.0652 17.4421 22.1139 16.5309 20.4229 17.1818Z" fill="black"/>
<path fill-rule="evenodd" clip-rule="evenodd" d="M18.2119 11.1289C17.1062 11.5194 16.5208 12.821 16.911 13.9274C17.3013 15.0338 18.6021 15.6195 19.7078 15.229C20.8135 14.8385 21.3988 13.5369 21.0086 12.4305C20.6184 11.3241 19.3175 10.7384 18.2119 11.1289Z" fill="black"/>
<path fill-rule="evenodd" clip-rule="evenodd" d="M64.9104 48.7463C64.9104 48.7463 64.6502 48.6161 64.5201 48.4859H64.9104V48.7463ZM70.6339 36.9014C74.0811 38.1379 75.8372 41.9778 74.6014 45.362C74.4063 45.8827 74.2112 46.3382 73.886 46.7287H66.7315C66.4063 46.7287 66.0811 46.7938 65.8209 46.9891C65.5608 46.7938 65.2356 46.7287 64.9104 46.7287H62.8291C61.7234 45.0366 61.3982 42.8238 62.1136 40.8063C63.3494 37.357 67.1868 35.5997 70.5689 36.8363" fill="black"/>
<path fill-rule="evenodd" clip-rule="evenodd" d="M74.9264 24.9912C77.7882 26.0325 79.2191 29.2215 78.1784 32.0851C77.1378 34.9487 73.9508 36.3805 71.089 35.3392C68.2272 34.2979 66.7313 31.1089 67.837 28.2453C68.8776 25.3817 72.0646 23.9499 74.9264 24.9261" fill="black"/>
<path fill-rule="evenodd" clip-rule="evenodd" d="M77.7882 17.1818C79.4792 17.8326 80.3898 19.72 79.7394 21.4121C79.089 23.1042 77.2028 24.0153 75.5118 23.3645C73.8207 22.7137 72.9101 20.8263 73.5605 19.1342C74.1459 17.4421 76.0971 16.5309 77.7882 17.1818Z" fill="black"/>
<path fill-rule="evenodd" clip-rule="evenodd" d="M79.9998 11.1289C81.1055 11.5194 81.6908 12.821 81.3006 13.9274C80.9103 15.0338 79.6095 15.6195 78.5038 15.229C77.3981 14.8385 76.8128 13.5369 77.203 12.4305C77.5933 11.3241 78.8941 10.7384 79.9998 11.1289Z" fill="black"/>
<path fill-rule="evenodd" clip-rule="evenodd" d="M90.0161 41.0017C91.8372 42.3684 92.3575 44.7764 91.3819 46.7289H83.1217C82.3412 45.232 82.4713 43.3446 83.577 41.9128C85.138 39.8953 87.9998 39.4397 90.0811 41.0017" fill="black"/>
<path fill-rule="evenodd" clip-rule="evenodd" d="M94.2443 35.4047C95.48 36.3158 95.7402 38.0731 94.7646 39.3096C93.789 40.5462 92.0979 40.8065 90.8622 39.8303C89.6264 38.9191 89.3662 37.1619 90.3418 35.9254C91.2524 34.6888 93.0085 34.4285 94.2443 35.4047Z" fill="black"/>
<path fill-rule="evenodd" clip-rule="evenodd" d="M8.19486 41.0015C6.1786 42.5635 5.72331 45.4271 7.28429 47.5097C7.73958 48.0955 8.2599 48.551 8.91031 48.8764C9.82088 48.1605 10.8615 47.5748 12.0323 47.1192C13.0729 46.7287 14.1786 46.4684 15.3493 46.3382C15.8697 44.9064 15.6745 43.2794 14.6989 41.9778C13.138 39.9602 10.2762 39.5047 8.2599 41.0666" fill="black"/>
<path fill-rule="evenodd" clip-rule="evenodd" d="M3.96762 35.4047C2.73185 36.3158 2.47168 38.0731 3.44729 39.3096C4.4229 40.5462 6.11396 40.8065 7.34974 39.8303C8.58551 38.9191 8.84567 37.1619 7.9351 35.9254C7.02453 34.6888 5.26843 34.4285 4.03266 35.4047" fill="black"/>
<path fill-rule="evenodd" clip-rule="evenodd" d="M0.714977 31.1091C-0.0655112 31.6949 -0.260633 32.8663 0.324733 33.6473C0.910099 34.4283 2.08083 34.6235 2.86132 34.0378C3.64181 33.4521 3.83693 32.2806 3.18652 31.4996C2.60116 30.7186 1.43042 30.5234 0.649936 31.1091" fill="black"/>
<path fill-rule="evenodd" clip-rule="evenodd" d="M97.4307 31.1091C98.2111 31.6949 98.4063 32.8663 97.8209 33.6473C97.2355 34.4283 96.0648 34.6235 95.2843 34.0378C94.5038 33.4521 94.3087 32.2806 94.8941 31.4996C95.4794 30.7186 96.6502 30.5234 97.4307 31.1091Z" fill="black"/>
<path d="M81.5607 70.4184H76.6176L73.8859 59.9402C73.7558 59.4847 73.6258 58.8989 73.4957 58.3132C73.3656 57.6624 73.1705 56.8814 72.9754 55.775C73.1705 56.8163 73.3656 57.6624 73.4957 58.2481C73.6258 58.8338 73.7558 59.4196 73.8859 59.8751L76.6176 70.3533H81.5607V70.4184ZM91.4469 70.4184H85.0729V59.6148L85.138 57.7275C85.138 57.0766 85.138 56.4909 85.138 55.775C85.138 56.4258 85.138 57.0766 85.138 57.7275V70.4184H91.4469ZM79.8046 59.4847L82.9266 48.4858L79.8046 59.4847ZM79.0892 62.6737C79.2193 61.9578 79.3493 61.3069 79.4794 60.7212C79.6095 60.2656 79.6745 59.8752 79.7396 59.6148C79.6745 59.8752 79.5445 60.2656 79.4794 60.7212C79.3493 61.3069 79.2193 61.8927 79.0892 62.6737ZM73.1054 70.4184H66.7314H73.1054Z" fill="black"/>
<path d="M73.1054 70.4184H66.7314V48.4858H75.3168L78.3737 59.4196C78.3737 59.4196 78.5038 59.9402 78.6339 60.4609C78.764 60.9815 78.9591 61.6974 79.1542 62.6737C79.2843 61.9578 79.4144 61.3069 79.5445 60.7212C79.6745 60.2006 79.8046 59.745 79.8697 59.4847L82.9916 48.4858H91.577V70.4184H85.203V59.6148L85.268 57.7275C85.268 57.0766 85.268 56.4909 85.268 55.775C85.0079 56.9465 84.7477 58.1179 84.4225 59.4847V59.6799L81.6908 70.4184H76.7477L74.016 59.9402C73.8859 59.4847 73.7558 58.8989 73.6258 58.3132C73.4957 57.6624 73.3006 56.8814 73.1054 55.775C73.1054 56.7512 73.1054 57.5322 73.1705 58.183C73.1705 58.8338 73.1705 59.4196 73.1705 59.8101V70.4184H73.1054Z" fill="black"/>
<path d="M64.9109 70.4183H57.8865H64.9109ZM51.3174 61.8926C51.3174 68.5309 51.3174 77.317 51.3174 61.8926V61.8926Z" fill="black"/>
<path d="M44.2275 61.0466V48.4858H51.317V55.9052H57.821V48.4858H64.9105V70.4184H57.821V61.8927H51.317V70.4184H47.5446L44.2275 61.0466Z" fill="black"/>
<path d="M21.4633 69.7028C21.4633 69.7028 21.3332 70.1584 21.3332 70.4187C20.1625 70.8743 18.8616 71.0044 17.4307 71.0044C13.9186 71.0044 11.1218 69.9631 9.17058 67.9456C7.15432 65.863 6.17871 63.0644 6.17871 59.4849C6.17871 55.9055 7.15432 53.1069 9.17058 51.0243C11.1868 48.9417 13.8535 47.9004 17.3007 47.9004C20.4877 47.9004 22.9592 48.6814 24.7803 50.1783C25.886 51.0894 26.6665 52.2609 27.1868 53.6276L26.0812 56.7515H21.1381C21.008 55.6451 20.6828 54.7991 20.0324 54.2133C19.382 53.6276 18.5364 53.3673 17.3657 53.3673C15.9999 53.3673 14.9592 53.8879 14.2438 54.8641C13.5283 55.8404 13.2031 57.4023 13.2031 59.4199C13.2031 61.4374 13.5933 62.9343 14.3088 63.9756C15.0242 65.0169 16.1299 65.5375 17.5608 65.5375C18.6665 65.5375 19.5121 65.2121 20.1625 64.6264C20.8129 63.9756 21.2031 63.1295 21.2681 61.9581M21.2681 61.9581H24.26L21.5283 69.7679" fill="black"/>
<path d="M36.4878 62.934L34.2765 55.3194L36.4878 62.934ZM45.5935 70.4184H38.6342L37.7886 67.4897L38.6342 70.4184H45.5935ZM23.0244 70.4184L30.7643 48.4858L23.0244 70.4184H29.9187H23.0244Z" fill="black"/>
<path d="M32.0651 62.934H36.4878L34.2765 55.3194L32.0651 62.934ZM23.0244 70.4184L30.7643 48.4858H37.9187L45.5935 70.4184H38.6342L37.7886 67.5548H30.8293L29.9838 70.4184H23.0895H23.0244Z" fill="black"/>
</g>
<defs>
<clipPath id="clip0_1300_912">
<rect width="98.2114" height="71.0042" fill="white"/>
</clipPath>
</defs>
</svg>
