<svg width="99" height="72" viewBox="0 0 99 72" fill="none" xmlns="http://www.w3.org/2000/svg">
<g clip-path="url(#clip0_1300_8523)">
<path fill-rule="evenodd" clip-rule="evenodd" d="M49.6301 31.7793C53.7277 31.7793 57.0447 35.0985 57.0447 39.1986C57.0447 43.2988 53.7277 46.6179 49.6301 46.6179C45.5325 46.6179 42.2155 43.2988 42.2155 39.1986C42.2155 35.0985 45.5325 31.7793 49.6301 31.7793Z" fill="white"/>
<path fill-rule="evenodd" clip-rule="evenodd" d="M49.63 17.5918C53.0122 17.5918 55.8089 20.3903 55.8089 23.7746C55.8089 27.1588 53.0122 29.9573 49.63 29.9573C46.2479 29.9573 43.4512 27.1588 43.4512 23.7746C43.4512 20.3903 46.2479 17.5918 49.63 17.5918Z" fill="white"/>
<path fill-rule="evenodd" clip-rule="evenodd" d="M49.63 8.21973C51.6463 8.21973 53.3374 9.91185 53.3374 11.9294C53.3374 13.9469 51.6463 15.639 49.63 15.639C47.6138 15.639 45.9227 13.9469 45.9227 11.9294C45.9227 9.91185 47.6138 8.21973 49.63 8.21973Z" fill="white"/>
<path fill-rule="evenodd" clip-rule="evenodd" d="M49.6301 0.996094C50.996 0.996094 52.1017 2.10248 52.1017 3.4692C52.1017 4.83592 50.996 5.94231 49.6301 5.94231C48.2643 5.94231 47.1586 4.83592 47.1586 3.4692C47.1586 2.10248 48.2643 0.996094 49.6301 0.996094Z" fill="white"/>
<path fill-rule="evenodd" clip-rule="evenodd" d="M27.9715 37.897C24.5243 39.1335 22.7682 42.9734 24.004 46.3576C24.8495 48.5704 26.7357 50.1324 28.8821 50.5879L29.4674 48.8958C29.7276 48.1799 30.378 47.7243 31.0934 47.7243H35.7113C36.817 46.0322 37.1422 43.8194 36.4268 41.8019C35.191 38.3526 31.3536 36.5953 27.9715 37.8319" fill="white"/>
<path fill-rule="evenodd" clip-rule="evenodd" d="M23.6138 25.9878C20.752 27.0291 19.256 30.2181 20.2967 33.0817C21.3373 35.9453 24.5243 37.3771 27.3861 36.3358C30.2479 35.2945 31.6788 32.1055 30.7032 29.2419C29.6625 26.3783 26.4755 24.9465 23.6138 25.9227" fill="white"/>
<path fill-rule="evenodd" clip-rule="evenodd" d="M20.8171 18.1779C19.126 18.8287 18.2154 20.716 18.8658 22.4082C19.5162 24.1003 21.4024 25.0114 23.0935 24.3606C24.7845 23.7098 25.6951 21.8224 25.0447 20.1303C24.4593 18.4382 22.5081 17.527 20.8171 18.1779Z" fill="white"/>
<path fill-rule="evenodd" clip-rule="evenodd" d="M18.6056 12.125C17.5 12.5155 16.9146 13.8171 17.3048 14.9235C17.6951 16.0299 18.9959 16.6156 20.1016 16.2251C21.2073 15.8346 21.7926 14.533 21.4024 13.4266C21.0122 12.3202 19.7113 11.7345 18.6056 12.125Z" fill="white"/>
<path fill-rule="evenodd" clip-rule="evenodd" d="M65.3049 49.7419C65.3049 49.7419 65.0447 49.6117 64.9147 49.4815H65.3049V49.7419ZM71.0285 37.897C74.4756 39.1335 76.2317 42.9734 74.996 46.3576C74.8008 46.8783 74.6057 47.3338 74.2805 47.7243H67.126C66.8008 47.7243 66.4756 47.7894 66.2155 47.9847C65.9553 47.7894 65.6301 47.7243 65.3049 47.7243H63.2236C62.1179 46.0322 61.7927 43.8194 62.5081 41.8019C63.7439 38.3526 67.5813 36.5953 70.9634 37.8319" fill="white"/>
<path fill-rule="evenodd" clip-rule="evenodd" d="M75.3212 25.9878C78.183 27.0291 79.6139 30.2181 78.5732 33.0817C77.5326 35.9453 74.3456 37.3771 71.4838 36.3358C68.622 35.2945 67.1261 32.1055 68.2318 29.2419C69.2724 26.3783 72.4594 24.9465 75.3212 25.9227" fill="white"/>
<path fill-rule="evenodd" clip-rule="evenodd" d="M78.183 18.1779C79.874 18.8287 80.7846 20.716 80.1342 22.4082C79.4838 24.1003 77.5976 25.0114 75.9065 24.3606C74.2155 23.7098 73.3049 21.8224 73.9553 20.1303C74.5407 18.4382 76.4919 17.527 78.183 18.1779Z" fill="white"/>
<path fill-rule="evenodd" clip-rule="evenodd" d="M80.3943 12.125C81.5 12.5155 82.0854 13.8171 81.6951 14.9235C81.3049 16.0299 80.0041 16.6156 78.8984 16.2251C77.7927 15.8346 77.2073 14.533 77.5976 13.4266C77.9878 12.3202 79.2886 11.7345 80.3943 12.125Z" fill="white"/>
<path fill-rule="evenodd" clip-rule="evenodd" d="M90.4106 41.9978C92.2317 43.3645 92.752 45.7725 91.7764 47.725H83.5163C82.7358 46.2281 82.8659 44.3407 83.9716 42.9089C85.5325 40.8914 88.3943 40.4358 90.4756 41.9978" fill="white"/>
<path fill-rule="evenodd" clip-rule="evenodd" d="M94.6382 36.4008C95.874 37.3119 96.1341 39.0691 95.1585 40.3057C94.1829 41.5423 92.4918 41.8026 91.2561 40.8264C90.0203 39.9152 89.7601 38.158 90.7357 36.9214C91.6463 35.6849 93.4024 35.4246 94.6382 36.4008Z" fill="white"/>
<path fill-rule="evenodd" clip-rule="evenodd" d="M8.58939 41.9971C6.57313 43.5591 6.11785 46.4227 7.67882 48.5053C8.13411 49.0911 8.65443 49.5466 9.30484 49.872C10.2154 49.1561 11.2561 48.5704 12.4268 48.1148C13.4674 47.7243 14.5731 47.464 15.7439 47.3338C16.2642 45.902 16.0691 44.275 15.0935 42.9734C13.5325 40.9558 10.6707 40.5003 8.65443 42.0622" fill="white"/>
<path fill-rule="evenodd" clip-rule="evenodd" d="M4.36178 36.4008C3.12601 37.3119 2.86585 39.0691 3.84146 40.3057C4.81707 41.5423 6.50813 41.8026 7.7439 40.8264C8.97967 39.9152 9.23984 38.158 8.32927 36.9214C7.4187 35.6849 5.6626 35.4246 4.42683 36.4008" fill="white"/>
<path fill-rule="evenodd" clip-rule="evenodd" d="M1.10975 32.1052C0.329264 32.691 0.134142 33.8624 0.719508 34.6434C1.30487 35.4244 2.47561 35.6196 3.2561 35.0339C4.03658 34.4482 4.23171 33.2767 3.5813 32.4957C2.99593 31.7147 1.8252 31.5195 1.04471 32.1052" fill="white"/>
<path fill-rule="evenodd" clip-rule="evenodd" d="M97.8252 32.1052C98.6057 32.691 98.8008 33.8624 98.2154 34.6434C97.6301 35.4244 96.4593 35.6196 95.6788 35.0339C94.8984 34.4482 94.7032 33.2767 95.2886 32.4957C95.874 31.7147 97.0447 31.5195 97.8252 32.1052Z" fill="white"/>
<path d="M81.9552 71.415H77.0122L74.2804 60.9368C74.1504 60.4812 74.0203 59.8955 73.8902 59.3098C73.7601 58.659 73.565 57.878 73.3699 56.7716C73.565 57.8129 73.7601 58.659 73.8902 59.2447C74.0203 59.8304 74.1504 60.4162 74.2804 60.8717L77.0122 71.3499H81.9552V71.415ZM91.8414 71.415H85.4674V60.6114L85.5325 58.724C85.5325 58.0732 85.5325 57.4875 85.5325 56.7716C85.5325 57.4224 85.5325 58.0732 85.5325 58.724V71.415H91.8414ZM80.1992 60.4812L83.3211 49.4824L80.1992 60.4812ZM79.4837 63.6702C79.6138 62.9544 79.7439 62.3035 79.874 61.7178C80.004 61.2622 80.0691 60.8717 80.1341 60.6114C80.0691 60.8717 79.939 61.2622 79.874 61.7178C79.7439 62.3035 79.6138 62.8893 79.4837 63.6702ZM73.5 71.415H67.126H73.5Z" fill="black"/>
<path d="M73.5 71.415H67.126V49.4824H75.7113L78.7683 60.4162C78.7683 60.4162 78.8983 60.9368 79.0284 61.4575C79.1585 61.9781 79.3536 62.694 79.5487 63.6702C79.6788 62.9544 79.8089 62.3035 79.939 61.7178C80.0691 61.1971 80.1992 60.7416 80.2642 60.4812L83.3861 49.4824H91.9715V71.415H85.5975V60.6114L85.6626 58.724C85.6626 58.0732 85.6626 57.4875 85.6626 56.7716C85.4024 57.9431 85.1422 59.1145 84.817 60.4812V60.6765L82.0853 71.415H77.1422L74.4105 60.9368C74.2805 60.4812 74.1504 59.8955 74.0203 59.3098C73.8902 58.659 73.6951 57.878 73.5 56.7716C73.5 57.7478 73.5 58.5288 73.565 59.1796C73.565 59.8304 73.565 60.4162 73.565 60.8066V71.415H73.5Z" fill="white"/>
<path d="M65.3049 71.4144H58.2805H65.3049ZM51.7114 62.8887C51.7114 69.527 51.7114 78.3131 51.7114 62.8887V62.8887Z" fill="black"/>
<path d="M44.6219 62.0432V49.4824H51.7114V56.9017H58.2155V49.4824H65.3049V71.415H58.2155V62.8893H51.7114V71.415H47.939L44.6219 62.0432Z" fill="white"/>
<path d="M21.8577 70.6989C21.8577 70.6989 21.7276 71.1544 21.7276 71.4148C20.5569 71.8703 19.2561 72.0005 17.8252 72.0005C14.313 72.0005 11.5162 70.9592 9.56499 68.9417C7.54873 66.8591 6.57312 64.0605 6.57312 60.481C6.57312 56.9015 7.54873 54.103 9.56499 52.0204C11.5813 49.9378 14.2479 48.8965 17.6951 48.8965C20.8821 48.8965 23.3536 49.6775 25.1748 51.1743C26.2804 52.0855 27.0609 53.257 27.5813 54.6237L26.4756 57.7476H21.5325C21.4024 56.6412 21.0772 55.7952 20.4268 55.2094C19.7764 54.6237 18.9309 54.3634 17.7601 54.3634C16.3943 54.3634 15.3536 54.884 14.6382 55.8602C13.9227 56.8365 13.5975 58.3984 13.5975 60.416C13.5975 62.4335 13.9878 63.9304 14.7032 64.9717C15.4187 66.013 16.5243 66.5336 17.9552 66.5336C19.0609 66.5336 19.9065 66.2082 20.5569 65.6225C21.2073 64.9717 21.5975 64.1256 21.6626 62.9542M21.6626 62.9542H24.6544L21.9227 70.764" fill="white"/>
<path d="M36.8821 63.9306L34.6707 56.316L36.8821 63.9306ZM45.9878 71.415H39.0285L38.1829 68.4863L39.0285 71.415H45.9878ZM23.4187 71.415L31.1585 49.4824L23.4187 71.415H30.313H23.4187Z" fill="black"/>
<path d="M32.4594 63.9306H36.8821L34.6707 56.316L32.4594 63.9306ZM23.4187 71.415L31.1585 49.4824H38.313L45.9878 71.415H39.0285L38.1829 68.5514H31.2236L30.3781 71.415H23.4837H23.4187Z" fill="white"/>
</g>
<defs>
<clipPath id="clip0_1300_8523">
<rect width="98.2114" height="71.0042" fill="white" transform="translate(0.394287 0.996094)"/>
</clipPath>
</defs>
</svg>
