<svg width="65" height="15" viewBox="0 0 65 15" fill="none" xmlns="http://www.w3.org/2000/svg">
<path fill-rule="evenodd" clip-rule="evenodd" d="M53.7226 10.6899H52.624L55.209 14.5833H56.3058L53.7226 10.6899Z" fill="white"/>
<path fill-rule="evenodd" clip-rule="evenodd" d="M56.1246 1.91361C56.1246 1.98767 56.4861 2.68417 57.2072 4.00664C57.9302 5.32912 58.7184 6.77679 59.5718 8.34789C60.4253 9.92075 61.5749 11.9979 63.0208 14.5829H64.3327L56.2445 0.176758H56.0011L47.9746 14.5829H49.2248L56.1246 1.91361Z" fill="white"/>
<path fill-rule="evenodd" clip-rule="evenodd" d="M45.7402 2.71944V14.5829H46.5337V3.91319L45.7402 2.71944ZM45.7402 0.176758V1.0637L46.5337 2.25921V0.176758H45.7402Z" fill="white"/>
<path fill-rule="evenodd" clip-rule="evenodd" d="M34.1254 3.55877L36.2943 6.08028H37.3928L32.2651 0.176758H32.0518V14.5953H32.9987V3.70512C32.9987 3.40007 32.9881 3.04388 32.9687 2.6348C32.9493 2.22747 32.9387 2.01588 32.9387 2.00354C32.9581 2.04057 33.1027 2.24158 33.3654 2.60658C33.6264 2.97335 33.8891 3.28369 34.1254 3.55877Z" fill="white"/>
<path fill-rule="evenodd" clip-rule="evenodd" d="M42.7018 0.176758V11.0546C42.7018 11.3825 42.7124 11.7493 42.7318 12.1513C42.753 12.5534 42.7618 12.7614 42.7618 12.772C42.7212 12.735 42.5731 12.5375 42.3192 12.1778C42.0653 11.8181 41.8167 11.4971 41.5716 11.2185L39.5702 8.93683H38.4717L43.4036 14.5829H43.6787V0.176758H42.7018Z" fill="white"/>
<path fill-rule="evenodd" clip-rule="evenodd" d="M17.015 14.5829V1.41988L17.856 2.31388H19.0163L17.015 0.176758H16.0381V14.5829H17.015Z" fill="white"/>
<path fill-rule="evenodd" clip-rule="evenodd" d="M29.8958 14.5829V0.176758H28.889L22.9678 6.77679L20.4833 3.84266L19.3213 3.85676L22.9678 8.03755L28.9189 1.38285V14.5829H29.8958Z" fill="white"/>
<path fill-rule="evenodd" clip-rule="evenodd" d="M10.1499 0.543593C11.028 0.906833 11.8303 1.45345 12.555 2.17817C13.0082 2.63134 13.3943 3.11448 13.7117 3.62408C14.0291 4.13191 14.2778 4.67148 14.4576 5.23926L14.5105 5.4103L14.3395 5.46496L13.7752 5.64482L13.6024 5.69948L13.5477 5.52491C13.3943 5.03119 13.1792 4.56039 12.9041 4.11427C12.6291 3.66816 12.2887 3.24497 11.8867 2.84293C10.6066 1.56102 9.07602 0.920939 7.29685 0.920939C6.85955 0.924465 6.43812 0.963257 6.03785 1.03555C5.63935 1.10608 5.25847 1.21365 4.89171 1.35295C4.53023 1.49225 4.17757 1.67563 3.83902 1.9031C3.4987 2.13056 3.1672 2.40564 2.84628 2.72832C2.20973 3.37369 1.73364 4.07724 1.41977 4.8337C1.1059 5.59015 0.954259 6.40656 0.961313 7.28116L0.963076 7.28292C0.963076 8.16633 1.12883 8.99332 1.45856 9.76741C1.7883 10.5433 2.28555 11.2662 2.94855 11.938C3.36469 12.3454 3.81433 12.6874 4.29219 12.9643C4.7718 13.2411 5.28492 13.4509 5.82978 13.5973C6.37641 13.7472 6.93008 13.8195 7.48728 13.8159C8.04272 13.8124 8.60522 13.7295 9.17124 13.5726L9.34228 13.525L9.39165 13.696L9.5574 14.2744L9.60853 14.449L9.4322 14.4966C8.78684 14.6711 8.14147 14.7611 7.50139 14.7646C6.86131 14.7681 6.22476 14.687 5.59526 14.5213H5.5935C4.95871 14.3414 4.36448 14.091 3.81433 13.7736C3.26418 13.4545 2.75282 13.0648 2.28379 12.6046L2.28202 12.6028C0.786747 11.0916 0.0250011 9.32129 0.000314875 7.29879C-0.00850162 6.28313 0.167828 5.33624 0.529305 4.46341C0.890781 3.58705 1.43917 2.78298 2.16741 2.05298C2.53241 1.68797 2.91329 1.37234 3.31003 1.10608C3.70501 0.839826 4.11409 0.626468 4.53199 0.466007C4.9499 0.30731 5.39248 0.187405 5.85447 0.10982C6.31293 0.0322349 6.79431 -0.00479353 7.29685 0.000496369C8.32133 -0.00303023 9.27351 0.180353 10.1499 0.543593Z" fill="white"/>
</svg>
