<svg width="32" height="32" viewBox="0 0 32 32" fill="none" xmlns="http://www.w3.org/2000/svg">
<path d="M16.16 18.04H15.9333C12.9067 17.9466 10.64 15.5866 10.64 12.68C10.64 9.71997 13.0533 7.30664 16.0133 7.30664C18.9733 7.30664 21.3867 9.71997 21.3867 12.68C21.3894 14.0726 20.8492 15.4115 19.8808 16.4123C18.9124 17.4131 17.592 17.997 16.2 18.04H16.16ZM16 9.29331C14.1333 9.29331 12.6267 10.8133 12.6267 12.6666C12.6226 13.5397 12.9586 14.38 13.5633 15.0096C14.1681 15.6393 14.9942 16.0088 15.8667 16.04C15.9684 16.0259 16.0716 16.0259 16.1733 16.04C17.0371 15.9939 17.8503 15.6185 18.4455 14.991C19.0408 14.3634 19.3729 13.5316 19.3733 12.6666C19.3733 10.8133 17.8667 9.29331 16 9.29331ZM16 30.3333C12.4133 30.3333 8.98667 29 6.33334 26.5733C6.21856 26.4677 6.12991 26.3368 6.07437 26.191C6.01884 26.0452 5.99794 25.8885 6.01334 25.7333C6.18667 24.1466 7.17334 22.6666 8.81334 21.5733C12.7867 18.9333 19.2267 18.9333 23.1867 21.5733C24.8267 22.68 25.8133 24.1466 25.9867 25.7333C26.0267 26.0533 25.9067 26.36 25.6667 26.5733C23.0296 28.9939 19.5796 30.3359 16 30.3333ZM8.10667 25.4666C10.319 27.3203 13.1137 28.3353 16 28.3333C18.8933 28.3333 21.68 27.32 23.8933 25.4666C23.6533 24.6533 23.0133 23.8666 22.0667 23.2266C18.7867 21.04 13.2267 21.04 9.92 23.2266C8.97334 23.8666 8.34667 24.6533 8.10667 25.4666Z" fill="white"/>
<path d="M16 30.3337C8.09329 30.3337 1.66663 23.907 1.66663 16.0003C1.66663 8.09366 8.09329 1.66699 16 1.66699C23.9066 1.66699 30.3333 8.09366 30.3333 16.0003C30.3333 23.907 23.9066 30.3337 16 30.3337ZM16 3.66699C9.19996 3.66699 3.66663 9.20033 3.66663 16.0003C3.66663 22.8003 9.19996 28.3337 16 28.3337C22.8 28.3337 28.3333 22.8003 28.3333 16.0003C28.3333 9.20033 22.8 3.66699 16 3.66699Z" fill="white"/>
</svg>
