<svg width="61" height="25" viewBox="0 0 61 25" fill="none" xmlns="http://www.w3.org/2000/svg">
<path d="M7.10795 22.6537C7.10795 22.867 7.10795 23.5066 7.10795 23.5599C7.10795 23.6665 7.16284 23.7198 7.27262 23.7198H7.57452C7.60196 23.7198 7.60196 23.7465 7.60196 23.7465V23.8531C7.60196 23.8797 7.60196 23.8797 7.54707 23.8797C7.49218 23.8797 7.32751 23.8531 6.88838 23.8531C6.4767 23.8531 6.28459 23.8797 6.2297 23.8797C6.20225 23.8797 6.20225 23.8531 6.20225 23.8531V23.7465C6.20225 23.7198 6.20225 23.7198 6.2297 23.7198H6.42181C6.58648 23.7198 6.61393 23.6931 6.64138 23.5599C6.64138 23.5066 6.66882 22.787 6.66882 22.254V21.7209C6.66882 21.4278 6.66882 20.9214 6.66882 20.8681C6.66882 20.7881 6.61393 20.7615 6.4767 20.7615H6.20225C6.17481 20.7615 6.1748 20.7615 6.1748 20.7348V20.6282C6.1748 20.6016 6.17481 20.6016 6.20225 20.6016C6.25714 20.6016 6.42181 20.6282 6.88838 20.6282C6.97072 20.6282 7.24517 20.6016 7.40984 20.6016C7.95875 20.6016 8.20576 20.6549 8.48021 20.8414C8.69977 21.0013 8.837 21.2412 8.837 21.5077C8.837 22.0941 8.39788 22.4405 7.62941 22.4405C7.46473 22.4405 7.27262 22.4405 7.10795 22.4139V22.6537ZM7.10795 22.2273C7.19028 22.254 7.35495 22.2806 7.54707 22.2806C7.84897 22.2806 8.09598 22.1207 8.20576 21.9608C8.31554 21.8275 8.34298 21.6676 8.34298 21.5077C8.34298 20.8947 7.76663 20.7348 7.49218 20.7348C7.40984 20.7348 7.21773 20.7348 7.13539 20.7615V22.2273H7.10795Z" fill="white"/>
<path d="M9.63279 21.7742C9.63279 21.4278 9.63279 21.1346 9.63279 21.0013C9.63279 20.8414 9.5779 20.7615 9.44067 20.7615H9.24855C9.22111 20.7615 9.22111 20.7348 9.22111 20.7348V20.6282C9.22111 20.6016 9.22111 20.6016 9.24855 20.6016C9.30345 20.6016 9.44067 20.6282 9.82491 20.6282C10.0994 20.6282 10.5385 20.6016 10.6208 20.6016C11.0051 20.6016 11.3344 20.7082 11.4991 20.8947C11.6637 21.0546 11.7461 21.2412 11.7461 21.4278C11.7461 22.0141 11.4716 22.2273 10.8678 22.3606C10.9776 22.4139 11.0599 22.4938 11.0874 22.5471C11.1423 22.6004 11.4716 23.0802 11.5265 23.1335C11.554 23.1868 11.8559 23.5865 11.9382 23.6665C12.048 23.7465 12.1578 23.7465 12.2675 23.7465C12.295 23.7465 12.295 23.7731 12.295 23.7731V23.8797C12.295 23.9064 12.295 23.933 12.2675 23.933C12.2401 23.933 12.1029 23.9064 11.8833 23.9064C11.7461 23.9064 11.5814 23.9064 11.4991 23.933C11.4442 23.8797 11.3344 23.7198 11.307 23.6665C11.2795 23.6132 11.0051 23.1601 10.9776 23.1335C10.9502 23.1068 10.7306 22.7603 10.6757 22.707C10.5659 22.5738 10.4287 22.4405 10.1543 22.4405C10.0994 22.4405 10.0719 22.4405 9.98958 22.4672V22.7337C9.98958 23.0002 9.98958 23.5332 9.98958 23.5865C9.98958 23.6932 10.0445 23.7731 10.0994 23.7731H10.4013C10.4287 23.7731 10.4287 23.7998 10.4287 23.7998V23.9064C10.4287 23.933 10.4287 23.9597 10.3738 23.9597C10.3189 23.9597 10.2091 23.933 9.74257 23.933C9.30345 23.933 9.19366 23.9597 9.13877 23.9597C9.11133 23.9597 9.11133 23.933 9.11133 23.933V23.8264C9.11133 23.7998 9.11133 23.7998 9.13877 23.7998H9.33089C9.44067 23.7998 9.52301 23.7731 9.52301 23.6398C9.52301 23.1868 9.52301 22.7603 9.52301 22.3073V21.7742H9.63279ZM10.0445 22.2273C10.1268 22.254 10.1542 22.254 10.264 22.254C11.1423 22.254 11.307 21.6676 11.307 21.4811C11.307 21.2679 11.1972 21.0546 11.0599 20.948C10.8678 20.8148 10.6757 20.7348 10.264 20.7348C10.2091 20.7348 10.1542 20.7348 10.0994 20.7615C10.0719 20.7881 10.0445 20.8414 10.0445 20.9214V22.2273Z" fill="white"/>
<path d="M13.1188 23.6399C12.7894 23.4534 12.4326 22.947 12.4326 22.2807C12.4326 21.9875 12.515 21.5611 12.8717 21.1347C13.2834 20.6283 13.75 20.5483 14.1617 20.5483C14.4636 20.5483 14.8478 20.6016 15.232 20.9215C15.5888 21.2146 15.8907 21.6677 15.8907 22.3073C15.8907 22.6538 15.7809 23.0003 15.5339 23.3201C15.232 23.6932 14.8204 23.9597 14.1617 23.9597C13.9147 23.9331 13.503 23.8531 13.1188 23.6399ZM15.4242 22.3073C15.4242 21.2946 14.6831 20.7083 14.1617 20.7083C14.0793 20.7083 13.7774 20.6549 13.4206 20.9748C13.0913 21.2679 12.9541 21.7477 12.9541 22.1208C12.9541 23.3468 13.8323 23.7732 14.2166 23.7732C15.232 23.7465 15.4242 22.7338 15.4242 22.3073Z" fill="white"/>
<path d="M16.796 21.7474C16.796 21.6408 16.7685 20.9745 16.7685 20.8945C16.7411 20.7879 16.6862 20.7613 16.5764 20.7613H16.302C16.2745 20.7613 16.2745 20.7613 16.2745 20.7346V20.6014C16.2745 20.5747 16.302 20.5747 16.302 20.5747C16.3569 20.5747 16.5764 20.6014 16.9881 20.6014C17.0979 20.6014 17.5919 20.5747 17.7017 20.5747C18.3055 20.5747 18.8269 20.6547 19.2386 21.0011C19.5405 21.2676 19.7601 21.6408 19.7601 22.1738C19.7601 22.7068 19.5954 23.0533 19.2935 23.3998C18.8269 23.8795 18.1682 23.8795 17.8115 23.8795C17.5096 23.8795 17.1528 23.8529 16.9332 23.8529C16.5215 23.8529 16.3294 23.8795 16.2745 23.8795C16.2471 23.8795 16.2471 23.8795 16.2471 23.8529V23.7462C16.2471 23.7196 16.2745 23.7196 16.2745 23.7196H16.6039C16.6862 23.7196 16.7411 23.6929 16.7685 23.613C16.796 23.5064 16.796 22.467 16.796 22.1205V21.7474ZM17.2351 22.2005C17.2351 22.2538 17.2351 23.0533 17.2351 23.3198C17.2351 23.3998 17.2625 23.4797 17.3174 23.5863C17.3998 23.6929 17.5919 23.7462 17.8115 23.7462C18.3055 23.7462 18.6897 23.533 18.9367 23.2399C19.1288 23 19.2935 22.6269 19.2935 22.2005C19.2935 21.8273 19.1288 21.4276 18.9093 21.1877C18.6623 20.9212 18.2506 20.7346 17.7291 20.7346C17.6193 20.7346 17.4272 20.7346 17.3449 20.7879C17.29 20.8412 17.2625 20.8945 17.2625 21.0011C17.2625 21.1877 17.2625 21.8007 17.2625 21.8806V22.2005H17.2351Z" fill="white"/>
<path d="M21.133 23.8262C20.8036 23.6929 20.639 23.5064 20.5566 23.2132C20.5017 23 20.4743 22.7068 20.4743 22.0938V21.0011C20.4743 20.8412 20.4468 20.7613 20.2822 20.7613H20.0626C20.0352 20.7613 20.0352 20.7613 20.0352 20.708V20.6014C20.0352 20.5747 20.0352 20.5747 20.09 20.5747C20.1449 20.5747 20.3645 20.6014 20.7487 20.6014C21.133 20.6014 21.3525 20.5747 21.4074 20.5747C21.4349 20.5747 21.4623 20.5747 21.4623 20.6014V20.7346C21.4623 20.7613 21.4623 20.7613 21.4349 20.7613H21.1879C21.0506 20.7613 20.9683 20.8412 20.9683 20.9478C20.9683 21.0011 20.9683 21.321 20.9683 21.5608V21.854C20.9683 22.0938 20.9957 22.6802 20.9957 22.8401C20.9957 23.0533 21.0506 23.2665 21.1604 23.4264C21.3251 23.6663 21.627 23.7462 21.9289 23.7462C22.2033 23.7462 22.4778 23.6663 22.6425 23.4797C22.8346 23.2932 22.8895 23 22.8895 22.6802V21.6941C22.8895 21.3476 22.8895 21.0811 22.862 20.9478C22.8346 20.8412 22.7797 20.7346 22.6425 20.7346H22.4229C22.3955 20.7346 22.3955 20.708 22.3955 20.708V20.6014C22.3955 20.5747 22.3955 20.5747 22.4229 20.5747C22.4778 20.5747 22.6974 20.6014 22.9993 20.6014C23.3286 20.6014 23.4658 20.5747 23.5207 20.5747C23.5756 20.5747 23.5756 20.6014 23.5756 20.6014V20.708C23.5756 20.7346 23.5756 20.7613 23.5482 20.7613H23.356C23.1914 20.7613 23.1639 20.8945 23.1639 20.9478C23.1639 21.0011 23.1639 21.6408 23.1639 21.7207C23.1639 21.774 23.1639 22.6002 23.1365 22.7601C23.109 23.1333 22.9993 23.4264 22.7248 23.6396C22.5327 23.7996 22.2582 23.9062 21.8191 23.9062C21.5172 23.9328 21.2976 23.9062 21.133 23.8262Z" fill="white"/>
<path d="M24.2063 23.6932C24.1514 23.6399 24.124 23.6399 24.0965 23.6399C24.0691 23.6399 24.0416 23.6666 24.0142 23.7199C23.9867 23.7732 23.9593 23.7732 23.9318 23.7732C23.9044 23.7732 23.877 23.7465 23.877 23.6932C23.9044 23.5866 23.9318 23.0003 23.9593 22.867C23.9593 22.8404 23.9867 22.8404 23.9867 22.8404H24.0691C24.0965 22.8404 24.0965 22.8404 24.0965 22.867C24.0965 23.0269 24.124 23.1602 24.2612 23.4001C24.3984 23.6133 24.6729 23.7465 24.9199 23.7465C25.1943 23.7465 25.5786 23.5866 25.5786 23.1602C25.5786 22.6805 25.2218 22.5206 24.8375 22.3873C24.7003 22.334 24.3435 22.2274 24.1514 22.0142C23.9867 21.8543 23.9044 21.6411 23.9044 21.3479C23.9044 21.108 24.0416 20.8948 24.2063 20.7616C24.371 20.6016 24.618 20.5483 24.865 20.5483C25.1394 20.5483 25.3316 20.6283 25.4139 20.6549C25.4688 20.6816 25.4688 20.6816 25.4962 20.6549L25.5511 20.6016C25.5786 20.575 25.5786 20.575 25.606 20.575C25.6335 20.575 25.6335 20.6016 25.6335 20.6549C25.6335 20.8149 25.6883 21.2946 25.6883 21.4012C25.6883 21.4278 25.6883 21.4278 25.6609 21.4278L25.606 21.4545C25.5786 21.4545 25.5786 21.4545 25.5786 21.4278C25.5511 21.2946 25.4688 21.108 25.2767 20.9215C25.1394 20.7882 24.9748 20.7349 24.7552 20.7349C24.3435 20.7349 24.1789 21.0281 24.1789 21.2679C24.1789 21.4012 24.2063 21.5611 24.3161 21.6677C24.4533 21.801 24.7278 21.9076 24.865 21.9342C25.1943 22.0408 25.4688 22.1208 25.6335 22.3073C25.7432 22.4406 25.853 22.6272 25.853 22.947C25.853 23.48 25.5237 23.9597 24.8924 23.9597C24.618 23.9331 24.371 23.8265 24.2063 23.6932Z" fill="white"/>
<path d="M28.0215 21.7742C28.0215 21.4278 28.0215 21.1346 28.0215 21.0013C28.0215 20.8414 27.9666 20.7615 27.8293 20.7615H27.6372C27.6098 20.7615 27.6098 20.7348 27.6098 20.7348V20.6282C27.6098 20.6016 27.6098 20.6016 27.6372 20.6016C27.6921 20.6016 27.8293 20.6282 28.2136 20.6282C28.488 20.6282 28.9272 20.6016 29.0095 20.6016C29.3937 20.6016 29.7231 20.7082 29.8877 20.8947C30.0524 21.0546 30.1348 21.2412 30.1348 21.4278C30.1348 22.0141 29.8603 22.2273 29.2565 22.3606C29.3663 22.4139 29.4486 22.4938 29.4761 22.5471C29.531 22.6004 29.8603 23.0802 29.9152 23.1335C29.9426 23.1868 30.2445 23.5865 30.3269 23.6665C30.4367 23.7465 30.5464 23.7465 30.6562 23.7465C30.6837 23.7465 30.6837 23.7731 30.6837 23.7731V23.8797C30.6837 23.9064 30.6837 23.933 30.6562 23.933C30.6288 23.933 30.4915 23.9064 30.272 23.9064C30.1348 23.9064 29.9701 23.9064 29.8877 23.933C29.8329 23.8797 29.7231 23.7198 29.6956 23.6665C29.6682 23.6132 29.3937 23.1601 29.3663 23.1335C29.3388 23.1068 29.1193 22.7603 29.0644 22.707C28.9546 22.5738 28.8174 22.4405 28.5429 22.4405C28.488 22.4405 28.4606 22.4405 28.3782 22.4672V22.7337C28.3782 23.0002 28.3782 23.5332 28.3782 23.5865C28.3782 23.6932 28.4331 23.7731 28.488 23.7731H28.7899C28.8174 23.7731 28.8174 23.7998 28.8174 23.7998V23.9064C28.8174 23.933 28.8174 23.9597 28.7625 23.9597C28.7076 23.9597 28.5978 23.933 28.1312 23.933C27.6921 23.933 27.5823 23.9597 27.5274 23.9597C27.5 23.9597 27.5 23.933 27.5 23.933V23.8264C27.5 23.7998 27.5 23.7998 27.5274 23.7998H27.7196C27.8293 23.7998 27.9117 23.7731 27.9117 23.6398C27.9117 23.1868 27.9117 22.7603 27.9117 22.3073V21.7742H28.0215ZM28.4606 22.2273C28.5429 22.254 28.5704 22.254 28.6801 22.254C29.5584 22.254 29.7231 21.6676 29.7231 21.4811C29.7231 21.2679 29.6133 21.0546 29.4761 20.948C29.2839 20.8148 29.0918 20.7348 28.6801 20.7348C28.6253 20.7348 28.5704 20.7348 28.5155 20.7615C28.488 20.7881 28.4606 20.8414 28.4606 20.9214V22.2273Z" fill="white"/>
<path d="M31.5338 23.6399C31.2044 23.4534 30.8477 22.947 30.8477 22.2807C30.8477 21.9875 30.93 21.5611 31.2868 21.1347C31.6985 20.6283 32.165 20.5483 32.5767 20.5483C32.8786 20.5483 33.2628 20.6016 33.6471 20.9215C34.0039 21.2146 34.3058 21.6677 34.3058 22.3073C34.3058 22.6538 34.196 23.0003 33.949 23.3201C33.6471 23.6932 33.2354 23.9597 32.5767 23.9597C32.3297 23.9331 31.918 23.8531 31.5338 23.6399ZM33.8118 22.3073C33.8118 21.2946 33.0707 20.7083 32.5493 20.7083C32.4669 20.7083 32.165 20.6549 31.8082 20.9748C31.4789 21.2679 31.3417 21.7477 31.3417 22.1208C31.3417 23.3468 32.2199 23.7732 32.6042 23.7732C33.6471 23.7465 33.8118 22.7338 33.8118 22.3073Z" fill="white"/>
<path d="M36.8308 23.1335C36.8857 23.0536 37.3797 21.9609 37.4071 21.9076C37.4346 21.8543 37.9561 20.7616 37.9835 20.6549C37.9835 20.6016 38.0384 20.6016 38.0933 20.6016C38.7245 20.6016 38.8892 20.575 38.9441 20.575C38.9715 20.575 38.9715 20.6016 38.9715 20.6016V20.7083C38.9715 20.7349 38.9715 20.7616 38.9441 20.7616H38.7245C38.5873 20.7616 38.5599 20.8415 38.5599 20.9481C38.5599 21.0814 38.5324 21.7477 38.5324 22.0408V22.3607C38.5324 22.6005 38.5599 23.3468 38.5599 23.4267C38.5599 23.6133 38.6147 23.6666 38.7245 23.6666H38.999C39.0264 23.6666 39.0264 23.6932 39.0264 23.6932V23.7998C39.0264 23.8265 39.0264 23.8531 38.9715 23.8531C38.9166 23.8531 38.8343 23.8265 38.3128 23.8265C37.8737 23.8265 37.6816 23.8531 37.6267 23.8531C37.5993 23.8531 37.5993 23.8265 37.5993 23.7998V23.6932C37.5993 23.6666 37.5993 23.6666 37.6267 23.6666H37.9561C38.0384 23.6666 38.0658 23.6399 38.0933 23.5067C38.0933 23.4534 38.0933 22.6538 38.0933 22.3073V22.0142C38.0933 21.721 38.0933 20.8948 38.0658 20.8415C38.0109 20.8948 37.3523 22.3607 37.3248 22.414C37.2974 22.4673 36.7759 23.6399 36.7485 23.6932C36.721 23.7465 36.6936 23.7998 36.6661 23.7998C36.6387 23.7998 36.6112 23.7732 36.5838 23.7199C36.5563 23.6932 35.9525 22.2274 35.9251 22.1741C35.8428 21.9609 35.4036 20.9215 35.3488 20.8682C35.3213 20.9215 35.3213 22.0941 35.3213 22.1474C35.3213 22.2007 35.3213 23.1869 35.3213 23.3468C35.3487 23.6133 35.3762 23.6932 35.5409 23.6932H35.7879C35.8153 23.6932 35.8153 23.7199 35.8153 23.7199V23.8265C35.8153 23.8531 35.8153 23.8531 35.7604 23.8531C35.7055 23.8531 35.5683 23.8265 35.1841 23.8265C34.7724 23.8265 34.6077 23.8531 34.5803 23.8531C34.5528 23.8531 34.5254 23.8531 34.5254 23.7998V23.6932C34.5254 23.6666 34.5254 23.6666 34.5528 23.6666H34.7998C34.992 23.6666 35.0194 23.56 35.0468 23.4001C35.1017 23.0802 35.1292 21.8809 35.1292 21.801C35.1292 21.7477 35.1292 21.0281 35.1292 20.8948C35.1292 20.7882 35.1292 20.7349 34.9371 20.7349H34.6352C34.6077 20.7349 34.6077 20.7083 34.6077 20.7083V20.575C34.6077 20.5483 34.6077 20.5483 34.6352 20.5483C34.6901 20.5483 34.7998 20.575 35.2115 20.575C35.4311 20.575 35.5683 20.5483 35.6232 20.5483C35.7055 20.5483 35.733 20.575 35.7604 20.6283L36.8308 23.1335Z" fill="white"/>
<path d="M40.207 22.5738C40.1521 22.6804 39.9051 23.4 39.8776 23.4799C39.8776 23.5066 39.8502 23.5599 39.8502 23.5865C39.8502 23.6398 39.9051 23.6931 40.0149 23.6931H40.2344C40.2619 23.6931 40.2893 23.6931 40.2893 23.7198V23.8264C40.2893 23.853 40.2619 23.8797 40.2619 23.8797C40.207 23.8797 39.9874 23.853 39.713 23.853C39.3562 23.853 39.2738 23.8797 39.1915 23.8797C39.1641 23.8797 39.1641 23.8797 39.1641 23.853V23.7464C39.1641 23.7198 39.1915 23.7198 39.1915 23.7198H39.3562C39.4934 23.7198 39.5757 23.6665 39.6306 23.5066C39.6581 23.4266 40.0149 22.5738 40.1521 22.2006C40.1795 22.1207 40.5638 21.1079 40.6187 21.0013C40.6461 20.948 40.6461 20.8947 40.6187 20.8414C40.5912 20.8148 40.5912 20.7881 40.5912 20.7881C40.5912 20.7615 40.5912 20.7615 40.6461 20.7348C40.7833 20.7082 40.9755 20.5749 41.0303 20.4949C41.0578 20.4683 41.0578 20.4416 41.0852 20.4416C41.1127 20.4416 41.1127 20.4683 41.1401 20.5216C41.2225 20.8148 41.6067 21.8542 41.689 22.1473C41.7988 22.5205 42.1007 23.3733 42.183 23.5066C42.2654 23.6665 42.3752 23.7198 42.5124 23.7198H42.6771C42.7045 23.7198 42.7045 23.7464 42.7045 23.7464V23.853C42.7045 23.8797 42.7045 23.8797 42.6496 23.8797C42.5673 23.8797 42.4575 23.853 42.0733 23.853C41.689 23.853 41.5244 23.8797 41.4146 23.8797C41.3871 23.8797 41.3871 23.853 41.3871 23.8264V23.7198C41.3871 23.6931 41.4146 23.6931 41.442 23.6931H41.5518C41.689 23.6931 41.7165 23.6398 41.689 23.5066C41.6616 23.3467 41.4695 22.7603 41.3871 22.5738H40.207ZM41.3322 22.4139C41.2773 22.2806 40.8931 21.1346 40.8931 21.0546C40.8657 21.028 40.8657 21.0013 40.8657 21.0013C40.8382 21.0013 40.8382 21.028 40.8108 21.0813C40.7833 21.1346 40.3442 22.3339 40.2893 22.4405H41.3322V22.4139ZM40.9755 20.0419L40.3991 20.3084C40.3717 20.3084 40.3717 20.335 40.3442 20.3084L40.3168 20.2551C40.3168 20.2284 40.3168 20.2284 40.3442 20.2018L40.9206 19.6954C40.948 19.6687 40.9755 19.6421 40.9755 19.6421C41.0029 19.6421 41.0303 19.6687 41.0303 19.6954L41.6341 20.2018C41.6616 20.2284 41.6616 20.2284 41.6341 20.2284L41.6067 20.2817C41.6067 20.3084 41.5792 20.3084 41.5518 20.2817L40.9755 20.0419Z" fill="white"/>
<path d="M43.3359 21.1878C43.3359 20.9213 43.1987 20.7613 43.034 20.7613H42.8419C42.8145 20.7613 42.8145 20.7347 42.8145 20.7347V20.6014C42.8145 20.5748 42.8145 20.5748 42.8419 20.5748C42.8693 20.5748 42.8968 20.5748 42.9791 20.5748C43.0615 20.5748 43.1438 20.5748 43.3085 20.5748C43.4731 20.5748 43.5829 20.5748 43.6378 20.5748C43.6927 20.5748 43.7476 20.6014 43.775 20.6281C43.8025 20.6547 44.7082 21.8274 44.7631 21.8807C44.818 21.934 45.6139 22.8935 45.7237 23.0534H45.7511V22.4937C45.7511 22.0939 45.7511 21.8541 45.7237 21.6142C45.7237 21.4276 45.6962 20.9746 45.6688 20.8946C45.6413 20.788 45.5315 20.708 45.3943 20.708H45.2296C45.2022 20.708 45.2022 20.708 45.2022 20.6814V20.5481C45.2022 20.5215 45.2022 20.5215 45.2296 20.5215C45.2845 20.5215 45.4492 20.5481 45.7511 20.5481C46.0256 20.5481 46.1628 20.5215 46.2177 20.5215C46.2451 20.5215 46.2451 20.5481 46.2451 20.5481V20.6547C46.2451 20.6814 46.2451 20.6814 46.2177 20.6814H46.0804C45.9432 20.6814 45.9158 20.7613 45.8883 20.9479C45.8609 21.2677 45.8609 21.7208 45.8609 22.014V23.7463C45.8609 23.7996 45.8609 23.8529 45.8334 23.8529C45.7786 23.8529 45.7237 23.7996 45.7237 23.773C45.7237 23.773 45.4492 23.4265 45.1473 23.0534C44.818 22.6536 44.4612 22.2272 44.4337 22.2005C44.3788 22.1472 43.5006 21.0812 43.4731 21.0545H43.4457V22.0673C43.4457 22.4937 43.4731 23.2399 43.5006 23.3466C43.528 23.5331 43.5555 23.6131 43.6653 23.6131H43.8025C43.8299 23.6131 43.8299 23.6397 43.8299 23.6664V23.773C43.8299 23.7996 43.8299 23.7996 43.8025 23.7996C43.7476 23.7996 43.4731 23.773 43.3359 23.773C43.2261 23.773 42.8968 23.7996 42.8693 23.7996C42.8419 23.7996 42.8419 23.7996 42.8419 23.773V23.6664C42.8419 23.6397 42.8419 23.6397 42.8693 23.6397H43.034C43.1712 23.6397 43.2261 23.5864 43.2536 23.3466C43.2536 23.2666 43.281 22.7336 43.281 21.9074V21.1878H43.3359Z" fill="white"/>
<path d="M47.6168 22.0941C47.6443 22.0941 48.1657 22.0675 48.2206 22.0675C48.3579 22.0408 48.3853 22.0142 48.4402 21.8543C48.4676 21.801 48.4676 21.721 48.4676 21.6411C48.4676 21.6144 48.4951 21.6144 48.4951 21.6144H48.6049C48.6323 21.6144 48.6323 21.6411 48.6323 21.6411C48.6049 21.721 48.6049 22.0941 48.6049 22.1741C48.6049 22.334 48.6323 22.5472 48.6323 22.6538C48.6323 22.6805 48.6323 22.6805 48.6049 22.6805L48.4951 22.7071C48.4676 22.7071 48.4676 22.7071 48.4676 22.6538C48.4676 22.6005 48.4402 22.4939 48.4127 22.4406C48.3853 22.334 48.3304 22.2807 48.2206 22.254C48.0011 22.2274 47.6717 22.2274 47.5894 22.2274V22.5206C47.5894 22.7604 47.5894 23.2135 47.5894 23.3201C47.5894 23.56 47.6992 23.6399 47.8638 23.6932C47.9462 23.7199 48.0834 23.7199 48.2206 23.7199C48.303 23.7199 48.55 23.7199 48.6323 23.6932C48.7146 23.6932 48.9342 23.6399 49.044 23.5333C49.0989 23.48 49.3733 23.1602 49.4282 23.0536C49.4557 23.0269 49.4557 23.0003 49.4831 23.0269L49.5655 23.0802C49.5929 23.1069 49.5929 23.1069 49.5655 23.1335L49.3184 23.7998C49.291 23.8531 49.2636 23.8798 49.2087 23.8798C49.1812 23.8798 49.0714 23.8798 48.797 23.8798C48.5225 23.8798 48.056 23.8798 47.3149 23.8798C47.1503 23.8798 47.013 23.8798 46.9033 23.8798C46.7935 23.8798 46.7386 23.8798 46.7111 23.8798C46.6837 23.8798 46.6562 23.8798 46.6562 23.8531V23.7199C46.6562 23.6932 46.6837 23.6932 46.7111 23.6932H46.9033C47.1228 23.6932 47.1503 23.6666 47.1503 23.48V22.3873V21.9342C47.1503 21.5611 47.1503 20.9748 47.1228 20.9215C47.0954 20.7616 47.0679 20.7349 46.8758 20.7349H46.7111C46.6837 20.7349 46.6837 20.7349 46.6837 20.7083V20.575C46.6837 20.5483 46.6837 20.5483 46.7111 20.5483C46.8209 20.5483 46.9856 20.575 47.2875 20.575H47.5071C47.9736 20.575 48.4402 20.575 48.9068 20.575C48.9891 20.575 49.0714 20.575 49.0989 20.575C49.1263 20.575 49.1263 20.575 49.1263 20.6016C49.1538 20.6549 49.3459 21.2946 49.3733 21.3479C49.3733 21.3745 49.3733 21.3745 49.3459 21.4012L49.2636 21.4278C49.2361 21.4278 49.2361 21.4278 49.2361 21.4012C49.2361 21.3745 48.8793 20.9481 48.7695 20.8682C48.6598 20.8149 48.5225 20.7616 48.4127 20.7349L47.5619 20.7083V22.0941H47.6168Z" fill="white"/>
<path d="M50.3342 23.6932C50.2793 23.6399 50.2519 23.6399 50.2244 23.6399C50.197 23.6399 50.1696 23.6666 50.1421 23.7199C50.1147 23.7732 50.0872 23.7732 50.0598 23.7732C50.0323 23.7732 50.0049 23.7465 50.0049 23.6932C50.0323 23.5866 50.0598 23.0003 50.0872 22.867C50.0872 22.8404 50.1147 22.8404 50.1147 22.8404H50.197C50.2244 22.8404 50.2244 22.8404 50.2244 22.867C50.2244 23.0269 50.2519 23.1602 50.3891 23.4001C50.5263 23.6133 50.8008 23.7465 51.0478 23.7465C51.3223 23.7465 51.7065 23.5866 51.7065 23.1602C51.7065 22.6805 51.3497 22.5206 50.9655 22.3873C50.8282 22.334 50.4715 22.2274 50.2793 22.0142C50.1147 21.8543 50.0323 21.6411 50.0323 21.3479C50.0323 21.108 50.1696 20.8948 50.3342 20.7616C50.4989 20.6016 50.7459 20.5483 50.9929 20.5483C51.2674 20.5483 51.4595 20.6283 51.5418 20.6549C51.5967 20.6816 51.5967 20.6816 51.6242 20.6549L51.679 20.6016C51.7065 20.575 51.7065 20.575 51.7339 20.575C51.7614 20.575 51.7614 20.6016 51.7614 20.6549C51.7614 20.8149 51.8163 21.2946 51.8163 21.4012C51.8163 21.4278 51.8163 21.4278 51.7888 21.4278L51.7339 21.4545C51.7065 21.4545 51.7065 21.4545 51.7065 21.4278C51.679 21.2946 51.5967 21.108 51.4046 20.9215C51.2674 20.7882 51.1027 20.7349 50.8831 20.7349C50.4715 20.7349 50.3068 21.0281 50.3068 21.2679C50.3068 21.4012 50.3342 21.5611 50.444 21.6677C50.5812 21.801 50.8557 21.9076 50.9929 21.9342C51.3223 22.0408 51.5967 22.1208 51.7614 22.3073C51.8712 22.4406 51.9809 22.6272 51.9809 22.947C51.9809 23.48 51.6516 23.9597 51.0204 23.9597C50.7459 23.9331 50.5263 23.8265 50.3342 23.6932Z" fill="white"/>
<path d="M53.0244 23.5067C52.695 23.1869 52.5029 22.6538 52.5029 22.2274C52.5029 21.801 52.6402 21.3479 52.9969 21.0014C53.244 20.7616 53.6556 20.5483 54.1771 20.5483C54.6162 20.5483 54.973 20.7082 55.1377 20.8149C55.1926 20.8415 55.22 20.8415 55.22 20.8149L55.2475 20.6816C55.2475 20.6549 55.2749 20.6549 55.3024 20.6549C55.3572 20.6549 55.3572 20.6549 55.3572 20.7349C55.3572 20.8149 55.4396 21.5078 55.467 21.6411C55.467 21.6677 55.467 21.6944 55.4396 21.6944L55.3572 21.721C55.3298 21.721 55.3298 21.721 55.3024 21.6944C55.2475 21.5345 55.1377 21.3212 54.9456 21.1347C54.7534 20.9481 54.5064 20.7882 54.1222 20.7882C53.2714 20.7882 52.9421 21.5344 52.9421 22.2007C52.9421 22.4673 53.0244 23.0003 53.4086 23.3734C53.738 23.7199 54.0124 23.7732 54.3143 23.7732C54.8632 23.7732 55.2749 23.48 55.4945 23.1869C55.5219 23.1602 55.5219 23.1602 55.5219 23.1602L55.5768 23.2135C55.6043 23.2135 55.6043 23.2402 55.5768 23.2668C55.3024 23.6666 54.8358 24.0397 54.1496 24.0397C53.6831 23.9331 53.3263 23.7732 53.0244 23.5067Z" fill="white"/>
<path d="M6.33987 16.2041C6.39476 16.444 6.39476 16.6838 6.33987 16.9237C6.28498 17.1636 6.1752 17.4034 6.01052 17.6167C5.68118 18.0697 5.18716 18.3629 4.61081 18.4962C3.59534 18.7627 3.07388 18.8959 2.0584 19.1891C2.00351 18.9759 1.97606 18.8693 1.89373 18.6561C2.0584 18.6028 2.14074 18.5761 2.30541 18.5495C1.61927 16.2574 1.28993 15.1114 0.603797 12.7927C0.439125 12.846 0.329344 12.8727 0.164673 12.926C0.109782 12.7128 0.0823359 12.6061 0 12.3929C1.09781 12.0731 1.64672 11.9399 2.74453 11.6467C3.37577 11.4868 3.97957 11.5134 4.52848 11.7533C4.80293 11.8866 5.02249 12.0198 5.18717 12.2064C5.35184 12.3929 5.46162 12.6061 5.51651 12.846C5.84585 14.2052 6.01052 14.8715 6.33987 16.2041ZM4.06191 12.7128C4.03446 12.6061 3.97957 12.5262 3.89724 12.4462C3.8149 12.3663 3.73256 12.313 3.62278 12.2597C3.513 12.2064 3.40322 12.1797 3.26599 12.1797C3.12877 12.1797 2.99154 12.1797 2.88176 12.2064C2.49752 12.313 2.30541 12.3396 1.94862 12.4462C2.60731 14.7649 2.9092 15.9109 3.56789 18.203C3.92468 18.123 4.08935 18.0697 4.44614 17.9631C4.58337 17.9365 4.69315 17.8832 4.77549 17.8032C4.88527 17.7233 4.9676 17.67 5.02249 17.5633C5.07738 17.4834 5.13227 17.3768 5.15972 17.2702C5.18716 17.1636 5.18716 17.057 5.15972 16.977C4.72059 15.298 4.50103 14.4451 4.06191 12.7128Z" fill="#DFDFDA"/>
<path d="M7.79418 17.7502C7.73929 17.537 7.71184 17.4304 7.65695 17.2172C7.82163 17.1905 7.90396 17.1639 8.06863 17.1372C7.51973 14.7919 7.27272 13.6459 6.72381 11.3005C6.55914 11.3272 6.44936 11.3538 6.28469 11.4071C6.2298 11.1939 6.20235 11.0873 6.14746 10.8741C8.17841 10.421 9.22134 10.2078 11.2797 9.86133C11.3346 10.2078 11.3895 10.3944 11.4444 10.7408C11.17 10.7941 11.0327 10.8208 10.7583 10.8741C10.7308 10.7408 10.7308 10.6609 10.7034 10.5276C9.66046 10.7142 9.139 10.8208 8.09608 11.034C8.31564 12.1001 8.45287 12.6331 8.67243 13.6992C9.24878 13.5926 9.55068 13.5126 10.127 13.406C10.0996 13.2727 10.0996 13.1928 10.0721 13.0595C10.3466 13.0062 10.4838 12.9796 10.7583 12.9263C10.8406 13.406 10.8955 13.6459 11.0053 14.1522C10.7308 14.2055 10.5936 14.2322 10.3191 14.2855C10.2917 14.1522 10.2917 14.0723 10.2643 13.939C9.68791 14.0456 9.38601 14.0989 8.80966 14.2322C9.02922 15.2983 9.16645 15.8313 9.38601 16.8974C10.374 16.7108 10.8406 16.6042 11.8286 16.4176C11.8012 16.2844 11.8012 16.2044 11.7737 16.0712C12.0482 16.0179 12.158 15.9912 12.4324 15.9645C12.4873 16.311 12.5422 16.4976 12.5971 16.8441C10.6485 17.1372 9.68791 17.3238 7.79418 17.7502Z" fill="#D6D8D7"/>
<path d="M13.5579 14.9249C13.5305 14.7117 13.503 14.6051 13.4756 14.3918C14.8204 14.1786 15.4791 14.072 16.8239 13.9121C16.8514 14.1253 16.8788 14.2319 16.9063 14.4451C15.5614 14.6051 14.9027 14.7117 13.5579 14.9249Z" fill="#CDCFCF"/>
<path d="M21.9832 15.6178C21.9558 15.4046 21.9558 15.298 21.9283 15.0847C22.1204 15.0581 22.2302 15.0581 22.4223 15.0581C22.2302 14.605 22.1204 14.3651 21.9283 13.9121C20.9403 13.992 20.4737 14.0453 19.4857 14.1253C19.3759 14.605 19.321 14.8449 19.2112 15.3246C19.4034 15.298 19.4857 15.298 19.6778 15.2713C19.7053 15.4845 19.7053 15.5911 19.7327 15.8043C18.9917 15.8843 18.6349 15.9109 17.8939 16.0175C17.8664 15.8043 17.839 15.6977 17.8115 15.4845C18.086 15.4579 18.2232 15.4312 18.4977 15.4046C19.0466 12.7127 19.3485 11.3802 20.0071 8.68835C20.4188 8.6617 20.6384 8.63505 21.0501 8.6084C22.2028 11.1403 22.7517 12.3929 23.7672 14.9515C23.9867 14.9248 24.0965 14.9248 24.3435 14.9248C24.3435 15.138 24.371 15.2446 24.371 15.4845C23.4378 15.5112 22.9438 15.5378 21.9832 15.6178ZM19.5955 13.5656C20.4463 13.4856 20.858 13.4323 21.7088 13.379C21.1873 12.1797 20.9128 11.5667 20.3639 10.3674C20.0346 11.6467 19.8974 12.2863 19.5955 13.5656Z" fill="#C1C2C3"/>
<path d="M24.893 15.4315C24.893 15.2183 24.8656 15.1117 24.8656 14.8718C25.0303 14.8718 25.1126 14.8718 25.2773 14.8452C25.1675 12.4465 25.0851 11.2738 24.9754 8.87519C24.7832 8.87519 24.7009 8.87519 24.5362 8.90185C24.5362 8.68863 24.5088 8.58203 24.5088 8.36881C25.4145 8.31551 25.8811 8.28886 26.7867 8.26221C26.7867 8.47542 26.7868 8.58203 26.8142 8.82189C26.6495 8.82189 26.5397 8.82189 26.3751 8.84854C26.4574 11.2472 26.5123 12.4199 26.5946 14.8185C27.418 14.7919 27.8297 14.7919 28.653 14.7652C28.653 14.6319 28.653 14.552 28.653 14.4187C28.9275 14.4187 29.0647 14.4187 29.3117 14.4187C29.3117 14.7652 29.3117 14.9518 29.3117 15.2982C27.5552 15.3249 26.677 15.3515 24.893 15.4315Z" fill="#C6C7C8"/>
<path d="M33.9497 15.3515C33.9497 15.1383 33.9497 15.0317 33.9772 14.7919C34.1693 14.7919 34.279 14.7919 34.4712 14.8185C34.3339 14.3388 34.2516 14.0989 34.1144 13.6458C33.1263 13.6192 32.6323 13.5925 31.6717 13.5925C31.5071 14.0456 31.4247 14.2855 31.2601 14.7652C31.4522 14.7652 31.5345 14.7652 31.7266 14.7652C31.7266 14.9784 31.7266 15.085 31.7266 15.3249C30.9856 15.3249 30.6014 15.3249 29.8604 15.3249C29.8604 15.1117 29.8604 15.0051 29.8604 14.7652C30.1348 14.7652 30.272 14.7652 30.5465 14.7652C31.4247 12.1533 31.8913 10.8474 32.8519 8.26221C33.2636 8.26221 33.4831 8.28886 33.8948 8.28886C34.7182 10.9274 35.1024 12.2599 35.8434 14.8985C36.063 14.8985 36.1728 14.9251 36.4198 14.9251C36.4198 15.1383 36.3923 15.2449 36.3923 15.4848C35.3769 15.4048 34.9103 15.3782 33.9497 15.3515ZM31.8364 13.0328C32.6872 13.0328 33.0989 13.0595 33.9497 13.0861C33.5655 11.8335 33.3733 11.1939 32.9617 9.94126C32.4951 11.1939 32.2755 11.8069 31.8364 13.0328Z" fill="#BBBDBD"/>
<path d="M46.6849 14.7386C46.6026 15.2449 46.3007 15.6181 45.8341 15.9112C45.3401 16.2044 44.7912 16.311 44.1874 16.2311C43.1445 16.0978 42.623 16.0178 41.5801 15.9112C41.6075 15.698 41.6075 15.5914 41.635 15.3782C41.7996 15.4049 41.882 15.4049 42.0466 15.4315C42.3211 13.0595 42.4583 11.8602 42.7602 9.48819C42.5681 9.46154 42.4858 9.46154 42.3211 9.43489C42.3485 9.22167 42.3485 9.11507 42.376 8.90186C43.4738 9.00846 43.9953 9.08842 45.0931 9.22167C45.7243 9.30163 46.2458 9.56815 46.6575 9.99457C47.0691 10.421 47.2338 10.8741 47.1515 11.3538C47.1515 11.4338 47.124 11.4604 47.124 11.5137C47.0966 11.6736 47.0417 11.8335 46.9594 11.9668C46.877 12.1 46.7672 12.2333 46.6575 12.3399C46.5202 12.4465 46.383 12.5531 46.2183 12.6331C46.0537 12.713 45.6694 12.8196 45.6694 12.8196C45.6694 12.8196 46.0262 13.0329 46.1634 13.1661C46.3007 13.2994 46.4105 13.4326 46.5202 13.5925C46.6026 13.7524 46.6575 13.9124 46.7124 14.0723C46.7398 14.2322 46.7398 14.4187 46.7124 14.5787C46.6849 14.632 46.6849 14.6853 46.6849 14.7386ZM45.8341 10.6342C45.8615 10.5276 45.8341 10.421 45.8067 10.341C45.7792 10.2344 45.7243 10.1545 45.642 10.0745C45.5596 9.99457 45.4773 9.91462 45.3675 9.86131C45.2578 9.80801 45.148 9.75471 45.0107 9.75471C44.654 9.7014 44.4893 9.67475 44.1325 9.6481C43.9953 10.7142 43.9129 11.2739 43.7757 12.3399C44.105 12.3932 44.2972 12.3932 44.6265 12.4465C44.7637 12.4732 44.8735 12.4732 44.9833 12.4465C45.0931 12.4199 45.2029 12.3932 45.3126 12.3133C45.395 12.26 45.4773 12.18 45.5596 12.1C45.6145 12.0201 45.6694 11.9135 45.6694 11.8069C45.7518 11.3538 45.7792 11.1139 45.8341 10.6342ZM45.4773 13.8591C45.5048 13.7524 45.4773 13.6458 45.4499 13.5659C45.4224 13.4593 45.3675 13.3793 45.2852 13.2994C45.2029 13.2194 45.1205 13.1395 45.0107 13.0862C44.901 13.0329 44.7637 12.9796 44.654 12.9796C44.2697 12.9263 44.105 12.8996 43.7208 12.8463C43.5836 13.9124 43.5013 14.472 43.364 15.5381C43.7208 15.5914 43.9129 15.6181 44.2697 15.6447C44.4069 15.6714 44.5167 15.6714 44.6265 15.6447C44.7363 15.6181 44.8461 15.5914 44.9559 15.5381C45.0382 15.4848 45.1205 15.4049 45.2029 15.3249C45.2577 15.2449 45.3126 15.1383 45.3126 15.0584C45.3675 14.5787 45.395 14.3388 45.4773 13.8591Z" fill="#C9CBCB"/>
<path d="M53.6831 11.2468C53.2439 13.139 53.0244 14.0985 52.5853 15.9907C52.4755 16.4705 52.1461 16.8436 51.6521 17.1101C51.1581 17.3766 50.6092 17.4299 50.0054 17.3233C49.7035 17.27 49.429 17.1634 49.182 17.0302C48.935 16.8969 48.7429 16.7103 48.5508 16.4971C48.194 16.0707 48.0293 15.6176 48.1117 15.1112C48.4685 13.1923 48.6331 12.2329 48.9899 10.314C48.8252 10.2873 48.7429 10.2607 48.5508 10.234C48.5782 10.0208 48.6057 9.91418 48.6606 9.67432C49.5663 9.83423 50.0328 9.91418 50.9385 10.0741C50.8836 10.2873 50.8836 10.3939 50.8288 10.6338C50.6641 10.6071 50.5543 10.5805 50.3896 10.5538C49.9779 12.6859 49.7584 13.7254 49.3467 15.8575C49.3193 15.9641 49.3467 16.0441 49.3741 16.1507C49.4016 16.2573 49.4565 16.3372 49.5388 16.4172C49.6212 16.4971 49.7035 16.5771 49.7858 16.6304C49.8956 16.6837 50.0054 16.737 50.1152 16.7636C50.225 16.7903 50.3622 16.7903 50.472 16.7636C50.5817 16.737 50.6915 16.7103 50.8013 16.657C50.8836 16.6037 50.966 16.5504 51.0483 16.4705C51.1032 16.3905 51.1581 16.3106 51.1855 16.204C51.6247 14.0985 51.8717 13.0324 52.3108 10.9269C52.1461 10.9003 52.0363 10.8736 51.8717 10.847C51.9266 10.6338 51.9266 10.5272 51.9815 10.314C52.8872 10.5005 53.3537 10.5805 54.2594 10.7937C54.2045 11.0069 54.1771 11.1135 54.1222 11.3267C53.9575 11.3001 53.8752 11.3001 53.6831 11.2468Z" fill="#C9CBCB"/>
<path d="M56.7566 18.7096C56.4547 16.2577 56.2901 15.0051 55.8784 12.5531C55.3569 14.5786 55.1099 15.5914 54.5885 17.6169C54.7531 17.6436 54.8355 17.6702 55.0001 17.7235C54.9452 17.9367 54.9178 18.0434 54.8629 18.2566C54.2591 18.1233 53.9847 18.0434 53.3809 17.9101C53.4358 17.6969 53.4632 17.5903 53.5181 17.3771C53.6828 17.4037 53.7651 17.4304 53.9298 17.457C54.5061 15.1383 54.7806 13.9657 55.3569 11.647C55.1922 11.6203 55.1099 11.5937 54.9178 11.5404C54.9727 11.3271 55.0001 11.2205 55.055 11.0073C55.8509 11.1939 56.2352 11.2738 57.0311 11.4604C57.4153 13.939 57.58 15.165 57.8819 17.6436C58.4582 15.6447 58.7601 14.6319 59.3365 12.6064C59.1718 12.5531 59.062 12.5265 58.8974 12.4998C58.9523 12.2866 58.9797 12.18 59.0346 11.9668C59.6658 12.1267 59.9952 12.2333 60.6264 12.3932C60.5715 12.6064 60.5441 12.713 60.4618 12.9262C60.2971 12.8729 60.1873 12.8463 60.0226 12.793C59.3365 15.085 59.0072 16.231 58.321 18.5497C58.4857 18.603 58.568 18.6297 58.7327 18.6563C58.6778 18.8696 58.6504 18.9762 58.568 19.1894C57.8544 19.0028 57.4977 18.8962 56.7566 18.7096Z" fill="#D3D3D0"/>
<path d="M21.7644 6.95589C21.5722 7.35566 21.3801 7.64883 21.1606 7.80874C21.0508 7.8887 20.9685 7.96865 20.8312 7.9953C20.7214 8.0486 20.5842 8.07526 20.447 8.07526C20.3098 8.07526 20.1725 8.07526 20.0353 8.04861C19.9255 8.02195 19.7883 7.96865 19.6785 7.91535C19.459 7.78209 19.212 7.54222 18.9375 7.1691C18.9649 7.08915 18.9649 7.03584 18.9649 6.95589C19.1022 7.08915 19.212 7.2224 19.3492 7.30236C19.459 7.40897 19.5687 7.48892 19.6785 7.51557C19.8706 7.59553 20.1176 7.64883 20.3921 7.62218C20.5293 7.62218 20.6391 7.59553 20.7489 7.54222C20.8587 7.51557 20.9685 7.46227 21.0508 7.40897C21.1331 7.35566 21.2429 7.24906 21.3252 7.14245C21.435 7.03584 21.5174 6.90259 21.6271 6.74268C21.7095 6.84928 21.7369 6.87593 21.7644 6.95589Z" fill="#C9CBC9"/>
<path d="M6.47756 15.9111C6.53245 16.151 6.53245 16.3909 6.47756 16.6307C6.42267 16.8706 6.31289 17.1105 6.14822 17.3237C5.81888 17.7768 5.32486 18.0699 4.74851 18.2032C3.73303 18.4697 3.21157 18.603 2.19609 18.8961C2.1412 18.6829 2.11376 18.5763 2.03142 18.3631C2.19609 18.3098 2.27843 18.2831 2.4431 18.2565C1.75697 15.9645 1.42763 14.8184 0.741493 12.4997C0.576821 12.553 0.46704 12.5797 0.302368 12.633C0.247477 12.4198 0.220031 12.3132 0.137695 12.1C1.23551 11.7801 1.78441 11.6469 2.88223 11.3537C3.51347 11.1938 4.11727 11.2205 4.66617 11.4603C4.94063 11.5936 5.16019 11.7268 5.32486 11.9134C5.48953 12.1 5.59931 12.3132 5.6542 12.553C5.98355 13.9123 6.14822 14.5786 6.47756 15.9111ZM4.1996 12.4198C4.17216 12.3132 4.11727 12.2332 4.03493 12.1533C3.95259 12.0733 3.87026 12.02 3.76048 11.9667C3.6507 11.9134 3.54092 11.8868 3.40369 11.8868C3.26646 11.8868 3.12923 11.8868 3.01945 11.9134C2.63522 12.02 2.4431 12.0467 2.08631 12.1533C2.745 14.472 3.0469 15.618 3.70559 17.91C4.06238 17.8034 4.22705 17.7768 4.58384 17.6702C4.72106 17.6435 4.83084 17.5902 4.91318 17.5102C5.02296 17.4569 5.1053 17.377 5.16019 17.2704C5.21508 17.1904 5.26997 17.0838 5.29741 16.9772C5.32486 16.8706 5.32486 16.764 5.29741 16.684C4.85829 15.005 4.63873 14.1521 4.1996 12.4198Z" fill="white"/>
<path d="M7.93188 17.4567C7.87698 17.2435 7.84954 17.1369 7.79465 16.9237C7.95932 16.8971 8.04166 16.8704 8.20633 16.8438C7.65742 14.4984 7.41041 13.3524 6.86151 11.0071C6.69684 11.0337 6.58705 11.0604 6.42238 11.1137C6.36749 10.9005 6.34005 10.7938 6.28516 10.5806C8.371 10.1009 9.38648 9.91434 11.4449 9.56787C11.4998 9.91434 11.5547 10.1009 11.6095 10.4474C11.3351 10.5007 11.1979 10.5273 10.9234 10.5806C10.896 10.4474 10.896 10.3674 10.8685 10.2342C9.8256 10.4207 9.30414 10.5273 8.26122 10.7405C8.48078 11.8066 8.61801 12.3396 8.83757 13.4057C9.41392 13.2991 9.71582 13.2191 10.2922 13.1125C10.2647 12.9793 10.2647 12.8993 10.2373 12.7661C10.5117 12.7128 10.649 12.6861 10.9234 12.6328C11.0058 13.1125 11.0606 13.3524 11.1704 13.8588C10.896 13.9121 10.7587 13.9387 10.4843 13.992C10.4568 13.8588 10.4568 13.7788 10.4294 13.6456C9.85305 13.7522 9.55115 13.8055 8.9748 13.9387C9.19436 15.0048 9.33159 15.5378 9.55115 16.6039C10.5392 16.4173 11.0058 16.3107 11.9938 16.1242C11.9663 15.9909 11.9663 15.911 11.9389 15.7777C12.2133 15.7244 12.3231 15.6977 12.5976 15.6711C12.6525 16.0176 12.7074 16.2041 12.7623 16.5506C10.8136 16.8438 9.85305 17.0303 7.93188 17.4567Z" fill="white"/>
<path d="M13.723 14.6319C13.6955 14.4187 13.6681 14.3121 13.6406 14.0989C14.9854 13.8857 15.6441 13.7791 16.989 13.6191C17.0164 13.8324 17.0438 13.939 17.0713 14.1522C15.7265 14.3121 15.0678 14.4187 13.723 14.6319Z" fill="white"/>
<path d="M22.1209 15.3248C22.0935 15.1116 22.0935 15.005 22.066 14.7918C22.2581 14.7651 22.3679 14.7651 22.56 14.7651C22.3679 14.312 22.2581 14.0722 22.066 13.6191C21.078 13.6991 20.6114 13.7524 19.6234 13.8323C19.5136 14.312 19.4587 14.5519 19.3489 15.0316C19.541 15.005 19.6234 15.005 19.8155 14.9783C19.8429 15.1915 19.8429 15.2982 19.8704 15.5114C19.1294 15.5913 18.7726 15.618 18.0316 15.7246C18.0041 15.5114 17.9767 15.4048 17.9492 15.1915C18.2237 15.1649 18.3609 15.1382 18.6354 15.1116C19.1843 12.4198 19.4862 11.0872 20.1448 8.39538C20.5565 8.36873 20.7761 8.34208 21.1878 8.31543C22.3405 10.8473 22.8894 12.1 23.9049 14.6585C24.1244 14.6319 24.2342 14.6319 24.4812 14.6319C24.4812 14.8451 24.5086 14.9517 24.5086 15.1915C23.5755 15.2182 23.1089 15.2448 22.1209 15.3248ZM19.7606 13.2726C20.6114 13.1927 21.0231 13.1394 21.8739 13.0861C21.3524 11.8867 21.078 11.2738 20.5291 10.0744C20.1997 11.3537 20.0351 11.9934 19.7606 13.2726Z" fill="white"/>
<path d="M25.0571 15.138C25.0571 14.9248 25.0296 14.8182 25.0296 14.5784C25.1943 14.5784 25.2766 14.5784 25.4413 14.5517C25.3315 12.1531 25.2492 10.9804 25.1394 8.58174C24.9473 8.58174 24.865 8.58174 24.7003 8.60839C24.7003 8.39518 24.6729 8.28857 24.6729 8.07536C25.5785 8.02205 26.0451 8.02205 26.9508 7.96875C26.9508 8.18196 26.9508 8.28857 26.9783 8.52843C26.8136 8.52843 26.7038 8.52843 26.5391 8.55508C26.6215 10.9537 26.6764 12.1264 26.7587 14.525C27.5821 14.4984 27.9937 14.4984 28.8171 14.4717C28.8171 14.3385 28.8171 14.2585 28.8171 14.1253C29.0915 14.1253 29.2288 14.1253 29.4758 14.1253C29.4758 14.4717 29.4758 14.6583 29.4758 15.0048C27.6918 15.0314 26.8136 15.0581 25.0571 15.138Z" fill="white"/>
<path d="M34.0874 15.0581C34.0874 14.8449 34.0874 14.7383 34.1148 14.4984C34.307 14.4984 34.4167 14.4984 34.6089 14.525C34.4716 14.0453 34.3893 13.8055 34.2521 13.3524C33.264 13.3257 32.77 13.2991 31.8094 13.2991C31.6448 13.7522 31.5624 13.992 31.3978 14.4717C31.5899 14.4717 31.6722 14.4717 31.8643 14.4717C31.8643 14.685 31.8643 14.7916 31.8643 15.0314C31.1233 15.0314 30.7391 15.0314 29.998 15.0314C29.998 14.8182 29.998 14.7116 29.998 14.4717C30.2725 14.4717 30.4097 14.4717 30.6842 14.4717C31.5624 11.8599 32.029 10.554 32.9896 7.96875C33.4013 7.96875 33.6208 7.9954 34.0325 7.9954C34.8559 10.6339 35.2401 11.9665 35.9811 14.605C36.2007 14.605 36.3105 14.6317 36.5575 14.6317C36.5575 14.8449 36.53 14.9515 36.53 15.1913C35.542 15.1114 35.048 15.0847 34.0874 15.0581ZM31.9741 12.7394C32.8249 12.7394 33.2366 12.766 34.0874 12.7927C33.7032 11.5401 33.511 10.9004 33.0994 9.6478C32.6328 10.9004 32.4132 11.5134 31.9741 12.7394Z" fill="white"/>
<path d="M46.8216 14.4451C46.7393 14.9515 46.4374 15.3246 45.9708 15.6178C45.4768 15.9109 44.9279 16.0175 44.3241 15.9376C43.2812 15.8043 42.7597 15.7244 41.7168 15.6178C41.7442 15.4046 41.7442 15.298 41.7717 15.0847C41.9364 15.1114 42.0187 15.1114 42.1834 15.138C42.4578 12.7661 42.595 11.5667 42.8969 9.19473C42.7048 9.16808 42.6225 9.16808 42.4578 9.14143C42.4853 8.92822 42.4853 8.82161 42.5127 8.6084C43.6105 8.715 44.132 8.79496 45.2298 8.92822C45.861 9.00817 46.3825 9.27469 46.7942 9.70111C47.2059 10.1275 47.3705 10.5806 47.2882 11.0603C47.2882 11.1403 47.2607 11.167 47.2607 11.2203C47.2333 11.3802 47.1784 11.5401 47.0961 11.6733C47.0137 11.8066 46.904 11.9399 46.7942 12.0465C46.657 12.1531 46.5197 12.2597 46.3551 12.3396C46.1904 12.4196 45.8061 12.5262 45.8061 12.5262C45.8061 12.5262 46.1629 12.7394 46.3002 12.8727C46.4374 13.0059 46.5472 13.1392 46.657 13.2991C46.7393 13.459 46.7942 13.6189 46.8491 13.7788C46.8765 13.9387 46.8765 14.1253 46.8491 14.2852C46.8491 14.3385 46.8491 14.3918 46.8216 14.4451ZM45.9983 10.3408C46.0257 10.2341 45.9983 10.1275 45.9708 10.0476C45.9434 9.94098 45.8885 9.86102 45.8061 9.78107C45.7238 9.70112 45.6415 9.62116 45.5317 9.56786C45.4219 9.51455 45.3121 9.46125 45.1749 9.46125C44.8181 9.40795 44.6534 9.38129 44.2967 9.35464C44.1594 10.4207 44.0771 10.9804 43.9399 12.0465C44.2692 12.0998 44.4613 12.0998 44.7907 12.1531C44.9279 12.1797 45.0377 12.1797 45.1475 12.1531C45.2572 12.1264 45.367 12.0998 45.4768 12.0198C45.5591 11.9665 45.6415 11.8865 45.7238 11.8066C45.7787 11.7266 45.8336 11.62 45.8336 11.5134C45.8885 11.0603 45.9159 10.8205 45.9983 10.3408ZM45.614 13.5656C45.6415 13.459 45.614 13.379 45.5866 13.2724C45.5591 13.1658 45.5043 13.0859 45.4219 13.0059C45.3396 12.926 45.2572 12.846 45.1475 12.7927C45.0377 12.7394 44.9279 12.6861 44.7907 12.6861C44.4064 12.6328 44.2418 12.6061 43.8575 12.5528C43.7203 13.6189 43.638 14.1786 43.5007 15.2447C43.8575 15.298 44.0496 15.3246 44.4064 15.3513C44.5437 15.3779 44.6534 15.3779 44.7632 15.3513C44.873 15.3246 44.9828 15.298 45.0926 15.2447C45.1749 15.1913 45.2572 15.1114 45.3396 15.0314C45.3945 14.9515 45.4494 14.8449 45.4494 14.7649C45.5042 14.2852 45.5591 14.0453 45.614 13.5656Z" fill="white"/>
<path d="M53.848 10.9538L52.7776 15.6978C52.6679 16.1775 52.3385 16.5506 51.8445 16.8171C51.3505 17.0837 50.7741 17.137 50.1978 17.0304C49.8959 16.9771 49.6214 16.8705 49.3744 16.7372C49.1274 16.6039 48.9353 16.4174 48.7432 16.2042C48.3864 15.7777 48.2217 15.3247 48.304 14.8183C48.6608 12.8994 48.8255 11.9399 49.1823 10.021C49.0176 9.99433 48.9353 9.96768 48.7432 9.94103C48.7706 9.72782 48.7981 9.62121 48.853 9.38135C49.7587 9.54126 50.2252 9.62121 51.1309 9.78112C51.076 9.99433 51.076 10.1009 51.0211 10.3408C50.8565 10.3142 50.7467 10.2875 50.582 10.2608C50.1703 12.393 49.9508 13.4324 49.5391 15.5645C49.5116 15.6711 49.5391 15.7511 49.5665 15.8577C49.594 15.9643 49.6489 16.0443 49.7312 16.1242C49.8135 16.2042 49.8959 16.2841 49.9782 16.3374C50.088 16.3907 50.1978 16.444 50.3076 16.4707C50.4173 16.4973 50.5546 16.4973 50.6643 16.4707C50.7741 16.444 50.8839 16.4174 50.9937 16.3641C51.076 16.3108 51.1584 16.2575 51.2407 16.1775C51.2956 16.0976 51.3505 16.0176 51.3779 15.911C51.817 13.8055 52.0641 12.7395 52.5032 10.634C52.3385 10.6073 52.2287 10.5807 52.0641 10.554C52.1189 10.3408 52.1189 10.2342 52.1738 9.99433C53.0795 10.1809 53.5461 10.2609 54.4518 10.4741C54.3969 10.6873 54.3695 10.7939 54.3146 11.0071C54.095 11.0071 54.0127 11.0071 53.848 10.9538Z" fill="white"/>
<path d="M56.9217 18.4162C56.6198 15.9642 56.4551 14.7116 56.0434 12.2597C55.522 14.2852 55.275 15.2979 54.7535 17.3235C54.9182 17.3501 55.0005 17.3768 55.1652 17.4301C55.1103 17.6433 55.0828 17.7499 55.0279 17.9631C54.4242 17.8298 54.1497 17.7499 53.5459 17.6166C53.6008 17.4034 53.6282 17.2968 53.6831 17.0836C53.8478 17.1103 53.9301 17.1369 54.0948 17.1636C54.6712 14.8449 54.9456 13.6722 55.522 11.3535C55.3573 11.3269 55.275 11.3002 55.0828 11.2469C55.1377 11.0337 55.1652 10.9271 55.2201 10.7139C56.016 10.9004 56.4002 10.9804 57.1961 11.1669C57.5804 13.6455 57.745 14.8715 58.0469 17.3501C58.6233 15.3512 58.9252 14.3385 59.5015 12.313C59.3369 12.2597 59.2271 12.233 59.0624 12.2064C59.1173 11.9931 59.1447 11.8865 59.1996 11.6733C59.8309 11.8332 60.1602 11.9398 60.7915 12.0998C60.7366 12.313 60.7091 12.4196 60.6268 12.6328C60.4621 12.5795 60.3523 12.5528 60.1877 12.4995C59.5015 14.7916 59.1722 15.9376 58.4861 18.2563C58.6507 18.3096 58.7331 18.3362 58.8977 18.3629C58.8428 18.5761 58.8154 18.6827 58.7331 18.8959C58.0195 18.7094 57.6353 18.6027 56.9217 18.4162Z" fill="white"/>
<path d="M21.9284 6.68977C21.7363 7.08955 21.5442 7.38272 21.3246 7.54263C21.2149 7.62258 21.1325 7.70254 20.9953 7.72919C20.8855 7.78249 20.7483 7.80914 20.6111 7.80914C20.4738 7.80914 20.3366 7.80914 20.1994 7.78249C20.0896 7.75584 19.9524 7.70254 19.8426 7.64923C19.623 7.51598 19.376 7.27611 19.1016 6.90299C19.129 6.82303 19.129 6.76973 19.129 6.68977C19.2662 6.82303 19.376 6.95629 19.5132 7.03625C19.623 7.14285 19.7328 7.22281 19.8426 7.24946C20.0347 7.32941 20.2817 7.38272 20.5562 7.35606C20.6934 7.35606 20.8032 7.32941 20.913 7.27611C21.0227 7.24946 21.1325 7.19616 21.2149 7.14285C21.2972 7.08955 21.407 6.98294 21.4893 6.87634C21.5991 6.76973 21.6814 6.63647 21.7912 6.47656C21.8735 6.55652 21.8735 6.58317 21.9284 6.68977Z" fill="white"/>
<path d="M25.0304 1.78563C25.0304 1.67902 25.0029 1.57242 24.948 1.49246C24.8932 1.41251 24.8383 1.3059 24.7285 1.2526C24.6462 1.17264 24.5364 1.11934 24.4266 1.06604C24.3168 1.03938 24.1796 1.01273 24.0698 1.01273C23.96 1.01273 23.8502 1.01273 23.7679 1.03938C23.6581 1.06604 23.5758 1.09269 23.4934 1.14599C23.4111 1.19929 23.3288 1.2526 23.3013 1.33255C23.2464 1.41251 23.2464 1.46581 23.2464 1.57242C23.2464 1.70568 23.3013 1.81228 23.4111 1.89224L24.9755 3.25147C25.1951 3.43803 25.3048 3.65124 25.3048 3.91776C25.3048 4.18428 25.1951 4.42414 24.948 4.6107C24.8383 4.71731 24.701 4.77061 24.5638 4.82391C24.4266 4.87722 24.2619 4.90387 24.0972 4.90387C23.8777 4.90387 23.713 4.87722 23.5483 4.79726C23.3837 4.74396 23.2464 4.63735 23.1367 4.50409V4.79726H22.8896V3.91776H23.1367C23.1367 4.02437 23.1641 4.13097 23.219 4.21093C23.2739 4.29088 23.3288 4.39749 23.4386 4.47744C23.6307 4.63735 23.8502 4.71731 24.1247 4.71731C24.2345 4.71731 24.3443 4.71731 24.4266 4.69066C24.5089 4.664 24.6187 4.63735 24.701 4.58405C24.7834 4.53075 24.8657 4.47744 24.8932 4.39749C24.948 4.31753 24.948 4.26423 24.948 4.15762C24.948 4.02437 24.8932 3.91776 24.7834 3.8378L23.219 2.47857C23.1092 2.39862 23.0269 2.29201 22.972 2.1854C22.9171 2.0788 22.8896 1.94554 22.8896 1.81228C22.8896 1.67902 22.9171 1.54577 22.972 1.43916C23.0269 1.33255 23.1092 1.22595 23.2464 1.11934C23.466 0.932778 23.7679 0.826172 24.0972 0.826172C24.2894 0.826172 24.4815 0.852823 24.6461 0.932778C24.8108 0.986081 24.948 1.09269 25.0578 1.22595V0.932778H25.3048V1.81228H25.0304V1.78563Z" fill="white"/>
<path d="M28.0487 4.79718V4.61062H28.3506L28.1036 3.83772H26.6215L26.3471 4.61062H26.649V4.79718H25.7158V4.61062H26.0726L27.3076 0.879395H27.7468L28.9818 4.61062H29.2837V4.79718H28.0487ZM27.3351 1.57234L26.649 3.62451H28.0212L27.3351 1.57234Z" fill="white"/>
<path d="M32.2481 1.97231C32.2481 2.23883 32.1384 2.4787 31.8913 2.66526C31.7816 2.77186 31.6443 2.82517 31.5071 2.87847C31.3699 2.93177 31.2052 2.95842 31.0405 2.95842H30.4367V4.61083H30.6838V4.79739H29.5859V4.61083H29.8329V1.09281H29.5859V0.90625H31.0405C31.3699 0.90625 31.6443 1.01286 31.8913 1.19942C32.1384 1.38598 32.2481 1.62584 32.2481 1.89236V1.97231ZM31.6443 1.57254C31.6443 1.49259 31.6169 1.43928 31.5894 1.38598C31.562 1.33268 31.5071 1.27937 31.4522 1.22607C31.3973 1.17277 31.3424 1.14611 31.2601 1.11946C31.1778 1.09281 31.0954 1.09281 31.0405 1.09281H30.4367V2.77186H31.0405C31.1229 2.77186 31.2052 2.74521 31.2601 2.74521C31.3424 2.71856 31.3973 2.69191 31.4522 2.63861C31.5071 2.5853 31.562 2.532 31.5894 2.4787C31.6169 2.42539 31.6443 2.34544 31.6443 2.29213V1.57254Z" fill="white"/>
<path d="M35.3496 1.09281V3.94453C35.3496 4.21105 35.2398 4.45091 34.9928 4.63748C34.7458 4.82404 34.4713 4.93064 34.142 4.93064C33.9773 4.93064 33.8127 4.90399 33.6754 4.85069C33.5382 4.79739 33.401 4.74408 33.2912 4.63748C33.0716 4.45091 32.9619 4.21105 32.9619 3.94453V1.09281H32.7148V0.90625H33.8127V1.09281H33.5657V4.2377C33.5657 4.31766 33.5931 4.37096 33.6205 4.42426C33.648 4.47757 33.7029 4.53087 33.7578 4.58417C33.8127 4.63748 33.8675 4.66413 33.9499 4.69078C34.0322 4.71743 34.1146 4.71743 34.1969 4.71743C34.2792 4.71743 34.3616 4.71743 34.4165 4.69078C34.4988 4.66413 34.5537 4.63748 34.6086 4.58417C34.6635 4.53087 34.7184 4.47757 34.7458 4.42426C34.7732 4.37096 34.8007 4.29101 34.8007 4.2377V1.09281H34.5537V0.90625H35.6515V1.09281H35.3496Z" fill="white"/>
<path d="M37.9847 4.79718L36.5301 1.22587V4.61062H36.7772V4.79718H36.0361V4.61062H36.2831V1.09261H36.0361V0.879395H36.9967L38.4788 4.47736V1.09261H38.2318V0.879395H38.9453V1.09261H38.7258V4.61062H38.9453V4.79718H37.9847Z" fill="white"/>
<path d="M28.2141 0.106607C28.1043 0.293168 27.9945 0.453077 27.8847 0.533032C27.8298 0.586336 27.7749 0.612988 27.72 0.612988C27.6652 0.63964 27.6103 0.639639 27.5279 0.639639C27.4456 0.639639 27.3907 0.63964 27.3358 0.612988C27.2809 0.586336 27.226 0.559684 27.1711 0.533032C27.0614 0.453077 26.979 0.31982 26.8418 0.106607L26.8692 0C26.9241 0.0799549 26.979 0.133258 27.0339 0.186562C27.0888 0.239865 27.1437 0.293168 27.1711 0.31982C27.2535 0.373123 27.3907 0.399774 27.5005 0.399774C27.5554 0.399774 27.6377 0.399775 27.6926 0.373123C27.7475 0.346471 27.8024 0.346471 27.8573 0.31982C27.9122 0.293168 27.9671 0.239865 27.9945 0.186562C28.0494 0.133258 28.1043 0.0799549 28.1592 0L28.2141 0.106607Z" fill="white"/>
<path d="M21.3523 2.63867H14.8203V2.98514H21.3523V2.63867Z" fill="white"/>
<path d="M46.9587 2.63867H40.4268V2.98514H46.9587V2.63867Z" fill="white"/>
</svg>
