<svg width="78" height="20" viewBox="0 0 78 20" fill="none" xmlns="http://www.w3.org/2000/svg">
<path d="M75.7163 3.60456C74.7283 3.60456 73.8984 2.82096 73.8984 1.80228C73.8984 0.822779 74.6888 0 75.7163 0C76.7042 0 77.5341 0.783599 77.5341 1.80228C77.5341 2.78178 76.7042 3.60456 75.7163 3.60456ZM75.7163 0.3918C74.9259 0.3918 74.2936 1.01868 74.2936 1.80228C74.2936 2.58588 74.9259 3.21276 75.7163 3.21276C76.5066 3.21276 77.1389 2.58588 77.1389 1.80228C77.1389 1.01868 76.5066 0.3918 75.7163 0.3918Z" fill="white"/>
<path d="M75.7163 1.72416C75.7954 1.72416 75.8744 1.72416 75.8744 1.68498C75.9139 1.6458 75.9139 1.60662 75.9139 1.52826C75.9139 1.4499 75.9139 1.41073 75.8744 1.37155C75.8349 1.33237 75.7954 1.33236 75.7163 1.33236H75.5583V1.72416H75.7163ZM75.5583 1.99843V2.58612H75.1631V1.05811H75.7559C75.9534 1.05811 76.1115 1.09729 76.1905 1.17565C76.2696 1.25401 76.3486 1.33236 76.3486 1.48908C76.3486 1.60662 76.3091 1.68498 76.2696 1.72416C76.2301 1.80252 76.151 1.8417 76.0325 1.88088C76.072 1.88088 76.151 1.92007 76.1905 1.95925C76.2301 1.99843 76.2696 2.07679 76.3091 2.15515L76.5067 2.58612H76.072L75.8744 2.19432C75.8349 2.11596 75.7954 2.07678 75.7559 2.0376C75.7163 1.99842 75.6768 1.99843 75.5978 1.99843H75.5583Z" fill="white"/>
<path d="M72.5939 7.60116H63.5838C64.2951 5.3679 65.7968 4.23169 68.1284 4.23169C69.2348 4.23169 70.1833 4.54513 71.0527 5.13283C71.8825 5.75971 72.4358 6.58248 72.5939 7.60116ZM73.8584 8.65902C73.8584 7.05265 73.3052 5.72053 72.1987 4.70185C71.1317 3.68317 69.7486 3.17383 68.0888 3.17383C66.4291 3.17383 65.046 3.72235 63.9395 4.81939C62.8725 5.87725 62.3192 7.24855 62.3192 8.8941C62.3192 10.5397 62.8725 11.911 63.979 12.9688C65.046 14.0659 66.4291 14.6144 68.0888 14.6144C68.8002 14.6144 69.4324 14.536 69.9857 14.3401C71.4478 13.87 72.5148 12.9688 73.2261 11.6759L72.2382 11.2057C71.6454 12.1852 70.9341 12.8513 70.1438 13.1647C69.551 13.3998 68.8397 13.5565 68.0888 13.5565C66.6267 13.5565 65.4411 13.1255 64.6113 12.2244C63.8209 11.3624 63.3862 10.1479 63.3862 8.65902H73.8584ZM60.7781 11.3624C60.7781 10.3829 60.3829 9.56016 59.632 8.97246C59.4345 8.81574 59.1183 8.65902 58.7231 8.46312C58.328 8.26722 57.8142 8.07132 57.2215 7.87543C56.5101 7.64035 55.9964 7.40526 55.6803 7.17018C55.2851 6.85674 55.0875 6.42577 55.0875 5.95561C55.0875 4.81939 55.7198 4.27087 57.0239 4.27087C57.9723 4.27087 58.7627 4.58431 59.3554 5.17201L60.1458 4.46677C59.2764 3.60481 58.2489 3.17383 56.9844 3.17383C56.0754 3.17383 55.3641 3.44809 54.8109 3.99661C54.2181 4.54513 53.9415 5.17201 53.9415 5.91643C53.9415 6.77839 54.2181 7.44444 54.8109 7.9146C55.2061 8.22804 55.8383 8.54148 56.7472 8.8941C57.2215 9.09 57.6562 9.24672 57.9723 9.36426C58.2884 9.4818 58.5651 9.59934 58.7231 9.71688C59.3159 10.187 59.5925 10.7356 59.5925 11.3624C59.5925 12.7729 58.7626 13.5173 57.0634 13.5173C56.273 13.5173 55.6803 13.3606 55.2456 13.008C54.8109 12.6946 54.4552 12.2636 54.1391 11.7151L53.1907 12.2636C54.06 13.8308 55.3641 14.5752 57.0634 14.5752C58.0513 14.5752 58.9207 14.2618 59.632 13.6741C60.4619 13.1255 60.7781 12.3419 60.7781 11.3624ZM50.701 14.3793V7.67953C50.701 6.26905 50.3454 5.17201 49.5945 4.38841C48.8437 3.60481 47.8162 3.21301 46.4331 3.21301C44.8129 3.21301 43.7459 3.68317 43.2322 4.70185V3.36973H42.1257V14.3793H43.2322V7.67953C43.2322 6.62167 43.5088 5.79889 44.0621 5.21119C44.6153 4.62349 45.4057 4.31005 46.4331 4.31005C48.5671 4.31005 49.5945 5.48544 49.5945 7.79706V14.3793H50.701ZM38.332 7.60116H29.2824C29.9937 5.3679 31.4954 4.23169 33.827 4.23169C34.9335 4.23169 35.8819 4.54513 36.7513 5.13283C37.6207 5.75971 38.1344 6.58248 38.332 7.60116ZM39.557 8.65902C39.557 7.05265 39.0038 5.72053 37.8973 4.70185C36.8303 3.68317 35.4472 3.17383 33.7874 3.17383C32.1277 3.17383 30.7446 3.72235 29.6381 4.81939C28.5711 5.87725 28.0179 7.24855 28.0179 8.8941C28.0179 10.5397 28.5711 11.911 29.6776 12.9688C30.7446 14.0659 32.1277 14.6144 33.7874 14.6144C34.4988 14.6144 35.131 14.536 35.6843 14.3401C37.1465 13.87 38.2134 12.9688 38.9247 11.6759L37.9368 11.2057C37.344 12.1852 36.6327 12.8513 35.8424 13.1647C35.2496 13.3998 34.5383 13.5565 33.7874 13.5565C32.3253 13.5565 31.1398 13.1255 30.3099 12.2244C29.5195 11.3624 29.0848 10.1479 29.0848 8.65902H39.557ZM26.5162 11.3624C26.5162 10.3829 26.121 9.56016 25.3702 8.97246C25.1726 8.81574 24.8564 8.65902 24.4613 8.46312C24.0661 8.26722 23.5524 8.07132 22.9596 7.87543C22.2483 7.64035 21.7345 7.40526 21.4184 7.17018C21.0232 6.85674 20.8256 6.42577 20.8256 5.95561C20.8256 4.81939 21.4579 4.27087 22.762 4.27087C23.7104 4.27087 24.5008 4.58431 25.0935 5.17201L25.8839 4.46677C25.0145 3.60481 23.987 3.17383 22.7225 3.17383C21.8136 3.17383 21.1023 3.44809 20.549 3.99661C19.9562 4.54513 19.6796 5.17201 19.6796 5.91643C19.6796 6.77839 19.9562 7.44444 20.549 7.9146C20.9442 8.22804 21.5765 8.54148 22.4854 8.8941C22.9596 9.09 23.3943 9.24672 23.7104 9.36426C24.0266 9.4818 24.3032 9.59934 24.4613 9.71688C25.054 10.187 25.3702 10.7356 25.3702 11.3624C25.3702 12.7729 24.5403 13.5173 22.841 13.5173C22.0902 13.5173 21.4579 13.3606 21.0232 13.008C20.5885 12.6946 20.2329 12.2636 19.9167 11.7151L19.0078 12.3028C19.8772 13.87 21.1813 14.6144 22.8806 14.6144C23.908 14.6144 24.7379 14.3009 25.4492 13.7132C26.1605 13.1255 26.5162 12.3419 26.5162 11.3624Z" fill="white"/>
<path d="M16.2418 2.82129H0V18.9243H16.2418V2.82129Z" fill="white"/>
<path d="M19.7588 16.2598H20.0749V16.5732H19.7588V16.2598ZM19.7983 16.9258H20.0749V18.7281H19.7983V16.9258Z" fill="white"/>
<path d="M19.7588 16.2598H20.0749V16.5732H19.7588V16.2598ZM19.7983 16.9258H20.0749V18.7281H19.7983V16.9258Z" stroke="white" stroke-width="0.1548" stroke-miterlimit="10"/>
<path d="M21.3001 18.7672H21.0234V16.965H21.3001V17.2784C21.3791 17.1609 21.4581 17.0825 21.5372 17.0433C21.6162 16.965 21.7743 16.9258 21.9323 16.9258C22.0509 16.9258 22.1299 16.9258 22.2485 16.965C22.3275 17.0041 22.4066 17.0433 22.4856 17.1217C22.5646 17.2 22.6041 17.2784 22.6437 17.3568C22.6832 17.4351 22.6832 17.5527 22.6832 17.6702V18.8064H22.4066V17.7486C22.4066 17.5918 22.367 17.4351 22.288 17.3568C22.209 17.2392 22.0904 17.2 21.8928 17.2C21.8138 17.2 21.7348 17.2 21.6557 17.2392C21.5767 17.2784 21.5372 17.3176 21.4977 17.3568C21.4581 17.3959 21.4186 17.4743 21.3791 17.5527C21.3396 17.631 21.3396 17.7094 21.3396 17.7877L21.3001 18.7672Z" fill="white"/>
<path d="M21.3001 18.7672H21.0234V16.965H21.3001V17.2784C21.3791 17.1609 21.4581 17.0825 21.5372 17.0433C21.6162 16.965 21.7743 16.9258 21.9323 16.9258C22.0509 16.9258 22.1299 16.9258 22.2485 16.965C22.3275 17.0041 22.4066 17.0433 22.4856 17.1217C22.5646 17.2 22.6041 17.2784 22.6437 17.3568C22.6832 17.4351 22.6832 17.5527 22.6832 17.6702V18.8064H22.4066V17.7486C22.4066 17.5918 22.367 17.4351 22.288 17.3568C22.209 17.2392 22.0904 17.2 21.8928 17.2C21.8138 17.2 21.7348 17.2 21.6557 17.2392C21.5767 17.2784 21.5372 17.3176 21.4977 17.3568C21.4581 17.3959 21.4186 17.4743 21.3791 17.5527C21.3396 17.631 21.3396 17.7094 21.3396 17.7877L21.3001 18.7672Z" stroke="white" stroke-width="0.1548" stroke-miterlimit="10"/>
<path d="M24.7772 18.4929C24.7377 18.5712 24.6982 18.6104 24.6191 18.6496C24.5796 18.6888 24.5006 18.7279 24.4215 18.7671C24.3425 18.8063 24.2635 18.8063 24.1844 18.8063C24.0659 18.8063 23.9078 18.7671 23.7893 18.7279C23.6707 18.6888 23.5521 18.6104 23.4336 18.532L23.5917 18.3361C23.6707 18.4145 23.7893 18.4537 23.9078 18.4929C24.0264 18.532 24.1054 18.5712 24.2239 18.5712C24.3425 18.5712 24.4215 18.532 24.5006 18.4929C24.5796 18.4537 24.6191 18.3753 24.6191 18.297C24.6191 18.2578 24.6191 18.2186 24.5796 18.1794C24.5401 18.1402 24.5401 18.1011 24.4611 18.1011C24.4215 18.0619 24.382 18.0619 24.303 18.0227C24.2635 18.0227 24.1844 17.9835 24.1449 17.9835C24.0659 17.9443 23.9868 17.9443 23.9473 17.9052C23.8683 17.866 23.8288 17.866 23.7497 17.8268C23.7102 17.7876 23.6312 17.7484 23.5917 17.6701C23.5521 17.6309 23.5521 17.5525 23.5521 17.4742C23.5521 17.3958 23.5521 17.3175 23.5917 17.2783C23.6312 17.1999 23.6707 17.1607 23.7102 17.1216C23.7497 17.0824 23.8288 17.0432 23.9078 17.004C23.9868 16.9648 24.0659 16.9648 24.1449 16.9648C24.2635 16.9648 24.382 16.9648 24.5006 17.004C24.6191 17.0432 24.7377 17.0824 24.8167 17.1607L24.6982 17.3566C24.6191 17.3175 24.5401 17.2783 24.4215 17.2391C24.3425 17.1999 24.224 17.1999 24.1449 17.1999C24.0264 17.1999 23.9473 17.2391 23.8683 17.2783C23.7893 17.3175 23.7893 17.3958 23.7893 17.4742C23.7893 17.5134 23.7893 17.5525 23.8288 17.5917C23.8683 17.6309 23.9078 17.6309 23.9473 17.6701C23.9868 17.7093 24.0264 17.7093 24.1054 17.7484C24.1449 17.7876 24.224 17.7876 24.303 17.7876C24.382 17.8268 24.4611 17.8268 24.5006 17.866C24.5796 17.9052 24.6191 17.9052 24.6982 17.9835C24.7377 18.0227 24.8167 18.0619 24.8167 18.1402C24.8562 18.1794 24.8562 18.2578 24.8562 18.3361C24.8167 18.3361 24.7772 18.4145 24.7772 18.4929Z" fill="white"/>
<path d="M24.7772 18.4929C24.7377 18.5712 24.6982 18.6104 24.6191 18.6496C24.5796 18.6888 24.5006 18.7279 24.4215 18.7671C24.3425 18.8063 24.2635 18.8063 24.1844 18.8063C24.0659 18.8063 23.9078 18.7671 23.7893 18.7279C23.6707 18.6888 23.5521 18.6104 23.4336 18.532L23.5917 18.3361C23.6707 18.4145 23.7893 18.4537 23.9078 18.4929C24.0264 18.532 24.1054 18.5712 24.2239 18.5712C24.3425 18.5712 24.4215 18.532 24.5006 18.4929C24.5796 18.4537 24.6191 18.3753 24.6191 18.297C24.6191 18.2578 24.6191 18.2186 24.5796 18.1794C24.5401 18.1402 24.5401 18.1011 24.4611 18.1011C24.4215 18.0619 24.382 18.0619 24.303 18.0227C24.2635 18.0227 24.1844 17.9835 24.1449 17.9835C24.0659 17.9443 23.9868 17.9443 23.9473 17.9052C23.8683 17.866 23.8288 17.866 23.7497 17.8268C23.7102 17.7876 23.6312 17.7484 23.5917 17.6701C23.5521 17.6309 23.5521 17.5525 23.5521 17.4742C23.5521 17.3958 23.5521 17.3175 23.5917 17.2783C23.6312 17.1999 23.6707 17.1607 23.7102 17.1216C23.7497 17.0824 23.8288 17.0432 23.9078 17.004C23.9868 16.9648 24.0659 16.9648 24.1449 16.9648C24.2635 16.9648 24.382 16.9648 24.5006 17.004C24.6191 17.0432 24.7377 17.0824 24.8167 17.1607L24.6982 17.3566C24.6191 17.3175 24.5401 17.2783 24.4215 17.2391C24.3425 17.1999 24.224 17.1999 24.1449 17.1999C24.0264 17.1999 23.9473 17.2391 23.8683 17.2783C23.7893 17.3175 23.7893 17.3958 23.7893 17.4742C23.7893 17.5134 23.7893 17.5525 23.8288 17.5917C23.8683 17.6309 23.9078 17.6309 23.9473 17.6701C23.9868 17.7093 24.0264 17.7093 24.1054 17.7484C24.1449 17.7876 24.224 17.7876 24.303 17.7876C24.382 17.8268 24.4611 17.8268 24.5006 17.866C24.5796 17.9052 24.6191 17.9052 24.6982 17.9835C24.7377 18.0227 24.8167 18.0619 24.8167 18.1402C24.8562 18.1794 24.8562 18.2578 24.8562 18.3361C24.8167 18.3361 24.7772 18.4145 24.7772 18.4929Z" stroke="white" stroke-width="0.1548" stroke-miterlimit="10"/>
<path d="M27.4258 18.2579C27.3862 18.3754 27.3072 18.493 27.2282 18.5713C27.1491 18.6497 27.0701 18.7281 26.9515 18.7672C26.833 18.8064 26.754 18.8456 26.6354 18.8456C26.5564 18.8456 26.4773 18.8456 26.3983 18.8064C26.3193 18.7672 26.2797 18.7672 26.2007 18.7281C26.1612 18.6889 26.0822 18.6497 26.0426 18.6105C26.0031 18.5713 25.9636 18.5322 25.9241 18.4538V19.3549H25.6475V16.965H25.9241V17.3176C25.9636 17.2784 26.0031 17.2 26.0426 17.1609C26.0822 17.1217 26.1217 17.0825 26.2007 17.0433C26.2402 17.0041 26.3193 16.965 26.3983 16.965C26.4773 16.9258 26.5564 16.9258 26.6354 16.9258C26.754 16.9258 26.833 16.965 26.9515 17.0041C27.0701 17.0433 27.1491 17.1217 27.2282 17.2C27.3072 17.2784 27.3862 17.3959 27.4258 17.5135C27.4653 17.631 27.5048 17.7486 27.5048 17.9053C27.5048 18.062 27.4653 18.1404 27.4258 18.2579ZM27.1491 17.5527C27.1096 17.4743 27.0701 17.3959 26.9911 17.3176C26.9515 17.2392 26.8725 17.2 26.7935 17.1609C26.7144 17.1217 26.6354 17.1217 26.5564 17.1217C26.4773 17.1217 26.3983 17.1217 26.3193 17.1609C26.2402 17.2 26.1612 17.2392 26.1217 17.3176C26.0426 17.3959 26.0031 17.4351 25.9636 17.5527C25.9241 17.631 25.9241 17.7486 25.9241 17.8269C25.9241 17.9445 25.9241 18.0228 25.9636 18.1012C26.0031 18.1795 26.0426 18.2579 26.1217 18.3363C26.2007 18.4146 26.2402 18.4538 26.3193 18.493C26.3983 18.5322 26.4773 18.5322 26.5564 18.5322C26.6354 18.5322 26.7144 18.5322 26.7935 18.493C26.8725 18.4538 26.9515 18.4146 26.9911 18.3754C27.0701 18.2971 27.1096 18.2579 27.1491 18.1404C27.1887 18.062 27.1887 17.9445 27.1887 17.8269C27.2282 17.7486 27.1887 17.631 27.1491 17.5527Z" fill="white"/>
<path d="M27.4258 18.2579C27.3862 18.3754 27.3072 18.493 27.2282 18.5713C27.1491 18.6497 27.0701 18.7281 26.9515 18.7672C26.833 18.8064 26.754 18.8456 26.6354 18.8456C26.5564 18.8456 26.4773 18.8456 26.3983 18.8064C26.3193 18.7672 26.2797 18.7672 26.2007 18.7281C26.1612 18.6889 26.0822 18.6497 26.0426 18.6105C26.0031 18.5713 25.9636 18.5322 25.9241 18.4538V19.3549H25.6475V16.965H25.9241V17.3176C25.9636 17.2784 26.0031 17.2 26.0426 17.1609C26.0822 17.1217 26.1217 17.0825 26.2007 17.0433C26.2402 17.0041 26.3193 16.965 26.3983 16.965C26.4773 16.9258 26.5564 16.9258 26.6354 16.9258C26.754 16.9258 26.833 16.965 26.9515 17.0041C27.0701 17.0433 27.1491 17.1217 27.2282 17.2C27.3072 17.2784 27.3862 17.3959 27.4258 17.5135C27.4653 17.631 27.5048 17.7486 27.5048 17.9053C27.5048 18.062 27.4653 18.1404 27.4258 18.2579ZM27.1491 17.5527C27.1096 17.4743 27.0701 17.3959 26.9911 17.3176C26.9515 17.2392 26.8725 17.2 26.7935 17.1609C26.7144 17.1217 26.6354 17.1217 26.5564 17.1217C26.4773 17.1217 26.3983 17.1217 26.3193 17.1609C26.2402 17.2 26.1612 17.2392 26.1217 17.3176C26.0426 17.3959 26.0031 17.4351 25.9636 17.5527C25.9241 17.631 25.9241 17.7486 25.9241 17.8269C25.9241 17.9445 25.9241 18.0228 25.9636 18.1012C26.0031 18.1795 26.0426 18.2579 26.1217 18.3363C26.2007 18.4146 26.2402 18.4538 26.3193 18.493C26.3983 18.5322 26.4773 18.5322 26.5564 18.5322C26.6354 18.5322 26.7144 18.5322 26.7935 18.493C26.8725 18.4538 26.9515 18.4146 26.9911 18.3754C27.0701 18.2971 27.1096 18.2579 27.1491 18.1404C27.1887 18.062 27.1887 17.9445 27.1887 17.8269C27.2282 17.7486 27.1887 17.631 27.1491 17.5527Z" stroke="white" stroke-width="0.1548" stroke-miterlimit="10"/>
<path d="M28.334 16.2598H28.6501V16.5732H28.334V16.2598ZM28.334 16.9258H28.6106V18.7281H28.334V16.9258Z" fill="white"/>
<path d="M28.334 16.2598H28.6501V16.5732H28.334V16.2598ZM28.334 16.9258H28.6106V18.7281H28.334V16.9258Z" stroke="white" stroke-width="0.1548" stroke-miterlimit="10"/>
<path d="M29.8362 18.7672H29.5596V16.965H29.8362V17.4351C29.8757 17.3568 29.9152 17.2784 29.9547 17.2392C29.9943 17.1609 30.0733 17.1217 30.1128 17.0825C30.1919 17.0433 30.2314 17.0041 30.3104 16.965C30.3894 16.9258 30.4685 16.9258 30.5475 16.9258V17.2H30.508C30.3894 17.2 30.3104 17.2 30.2314 17.2392C30.1523 17.2784 30.0733 17.3176 29.9943 17.3959C29.9152 17.4743 29.8757 17.5527 29.8362 17.6702C29.7967 17.7877 29.7967 17.9053 29.7967 18.0228L29.8362 18.7672Z" fill="white"/>
<path d="M29.8362 18.7672H29.5596V16.965H29.8362V17.4351C29.8757 17.3568 29.9152 17.2784 29.9547 17.2392C29.9943 17.1609 30.0733 17.1217 30.1128 17.0825C30.1919 17.0433 30.2314 17.0041 30.3104 16.965C30.3894 16.9258 30.4685 16.9258 30.5475 16.9258V17.2H30.508C30.3894 17.2 30.3104 17.2 30.2314 17.2392C30.1523 17.2784 30.0733 17.3176 29.9943 17.3959C29.9152 17.4743 29.8757 17.5527 29.8362 17.6702C29.7967 17.7877 29.7967 17.9053 29.7967 18.0228L29.8362 18.7672Z" stroke="white" stroke-width="0.1548" stroke-miterlimit="10"/>
<path d="M31.5353 18.2185C31.5749 18.2968 31.6144 18.3752 31.6934 18.4144C31.7725 18.4535 31.812 18.4927 31.891 18.5319C31.97 18.5711 32.0491 18.5711 32.1281 18.5711C32.2467 18.5711 32.3652 18.5319 32.4443 18.4927C32.5233 18.4535 32.6023 18.3752 32.6814 18.2968L32.8394 18.4535C32.7604 18.5711 32.6418 18.6494 32.5233 18.6886C32.4047 18.7278 32.2467 18.767 32.0886 18.767C31.97 18.767 31.8515 18.7278 31.7329 18.6886C31.6144 18.6494 31.5353 18.5711 31.4563 18.4927C31.3773 18.4144 31.2982 18.2968 31.2587 18.1793C31.2192 18.0617 31.1797 17.9442 31.1797 17.7875C31.1797 17.6699 31.2192 17.5524 31.2587 17.4349C31.2982 17.3173 31.3773 17.1998 31.4563 17.1214C31.5353 17.0431 31.6144 16.9647 31.7329 16.9255C31.8515 16.8863 31.97 16.8472 32.0886 16.8472C32.2071 16.8472 32.3257 16.8863 32.4443 16.9255C32.5628 16.9647 32.6418 17.0431 32.7209 17.1214C32.7999 17.1998 32.8394 17.3173 32.879 17.4349C32.9185 17.5524 32.9185 17.6699 32.9185 17.8267V17.8658V17.905H31.4563C31.4958 18.0617 31.4958 18.1401 31.5353 18.2185ZM32.6418 17.7483C32.6418 17.6699 32.6023 17.5916 32.6023 17.5132C32.5628 17.4349 32.5233 17.3565 32.4838 17.3173C32.4443 17.2781 32.3652 17.1998 32.3257 17.1998C32.2467 17.1606 32.1676 17.1606 32.0886 17.1606C32.0096 17.1606 31.9305 17.1606 31.8515 17.1998C31.7725 17.239 31.7329 17.2781 31.6539 17.3173C31.6144 17.3565 31.5749 17.4349 31.5353 17.5132C31.4958 17.5916 31.4958 17.6699 31.4563 17.7483H32.6418Z" fill="white"/>
<path d="M31.5353 18.2185C31.5749 18.2968 31.6144 18.3752 31.6934 18.4144C31.7725 18.4535 31.812 18.4927 31.891 18.5319C31.97 18.5711 32.0491 18.5711 32.1281 18.5711C32.2467 18.5711 32.3652 18.5319 32.4443 18.4927C32.5233 18.4535 32.6023 18.3752 32.6814 18.2968L32.8394 18.4535C32.7604 18.5711 32.6418 18.6494 32.5233 18.6886C32.4047 18.7278 32.2467 18.767 32.0886 18.767C31.97 18.767 31.8515 18.7278 31.7329 18.6886C31.6144 18.6494 31.5353 18.5711 31.4563 18.4927C31.3773 18.4144 31.2982 18.2968 31.2587 18.1793C31.2192 18.0617 31.1797 17.9442 31.1797 17.7875C31.1797 17.6699 31.2192 17.5524 31.2587 17.4349C31.2982 17.3173 31.3773 17.1998 31.4563 17.1214C31.5353 17.0431 31.6144 16.9647 31.7329 16.9255C31.8515 16.8863 31.97 16.8472 32.0886 16.8472C32.2071 16.8472 32.3257 16.8863 32.4443 16.9255C32.5628 16.9647 32.6418 17.0431 32.7209 17.1214C32.7999 17.1998 32.8394 17.3173 32.879 17.4349C32.9185 17.5524 32.9185 17.6699 32.9185 17.8267V17.8658V17.905H31.4563C31.4958 18.0617 31.4958 18.1401 31.5353 18.2185ZM32.6418 17.7483C32.6418 17.6699 32.6023 17.5916 32.6023 17.5132C32.5628 17.4349 32.5233 17.3565 32.4838 17.3173C32.4443 17.2781 32.3652 17.1998 32.3257 17.1998C32.2467 17.1606 32.1676 17.1606 32.0886 17.1606C32.0096 17.1606 31.9305 17.1606 31.8515 17.1998C31.7725 17.239 31.7329 17.2781 31.6539 17.3173C31.6144 17.3565 31.5749 17.4349 31.5353 17.5132C31.4958 17.5916 31.4958 17.6699 31.4563 17.7483H32.6418Z" stroke="white" stroke-width="0.1548" stroke-miterlimit="10"/>
<path d="M35.2106 18.7671V18.4145C35.1711 18.4537 35.1316 18.5321 35.092 18.5712C35.0525 18.6104 35.013 18.6496 34.934 18.6888C34.8945 18.728 34.8154 18.7671 34.7364 18.7671C34.6573 18.8063 34.5783 18.8063 34.4993 18.8063C34.3807 18.8063 34.2622 18.7671 34.1831 18.728C34.0646 18.6888 33.9855 18.6104 33.9065 18.5321C33.8275 18.4537 33.7484 18.3362 33.7089 18.2186C33.6694 18.1011 33.6299 17.9835 33.6299 17.8268C33.6299 17.6701 33.6694 17.5526 33.7089 17.435C33.7484 17.3175 33.8275 17.1999 33.9065 17.1216C33.9855 17.0432 34.0646 16.9649 34.1831 16.9257C34.3017 16.8865 34.3807 16.8473 34.4993 16.8473C34.5783 16.8473 34.6573 16.8473 34.7364 16.8865C34.8154 16.9257 34.8549 16.9257 34.934 16.9649C34.9735 17.004 35.0525 17.0432 35.092 17.0824C35.1316 17.1216 35.1711 17.1608 35.2106 17.2391V16.1421H35.4872V18.728L35.2106 18.7671ZM35.1711 17.5526C35.1316 17.4742 35.092 17.3958 35.013 17.3175C34.934 17.2391 34.8944 17.1999 34.8154 17.1608C34.7364 17.1216 34.6573 17.1216 34.5783 17.1216C34.4993 17.1216 34.4202 17.1216 34.3412 17.1608C34.2622 17.1999 34.1831 17.2391 34.1436 17.2783C34.1041 17.3175 34.0251 17.3958 33.9855 17.5134C33.946 17.5917 33.946 17.7093 33.946 17.8268C33.946 17.9444 33.946 18.0227 33.9855 18.1011C34.0251 18.1794 34.0646 18.2578 34.1436 18.3362C34.1831 18.4145 34.2622 18.4537 34.3412 18.4929C34.4202 18.5321 34.4993 18.5321 34.5783 18.5321C34.6573 18.5321 34.7364 18.5321 34.8154 18.4929C34.8944 18.4537 34.9735 18.4145 35.013 18.3362C35.092 18.2578 35.1316 18.2186 35.1711 18.1011C35.2106 17.9835 35.2106 17.9052 35.2106 17.8268C35.2501 17.7485 35.2106 17.6309 35.1711 17.5526Z" fill="white"/>
<path d="M35.2106 18.7671V18.4145C35.1711 18.4537 35.1316 18.5321 35.092 18.5712C35.0525 18.6104 35.013 18.6496 34.934 18.6888C34.8945 18.728 34.8154 18.7671 34.7364 18.7671C34.6573 18.8063 34.5783 18.8063 34.4993 18.8063C34.3807 18.8063 34.2622 18.7671 34.1831 18.728C34.0646 18.6888 33.9855 18.6104 33.9065 18.5321C33.8275 18.4537 33.7484 18.3362 33.7089 18.2186C33.6694 18.1011 33.6299 17.9835 33.6299 17.8268C33.6299 17.6701 33.6694 17.5526 33.7089 17.435C33.7484 17.3175 33.8275 17.1999 33.9065 17.1216C33.9855 17.0432 34.0646 16.9649 34.1831 16.9257C34.3017 16.8865 34.3807 16.8473 34.4993 16.8473C34.5783 16.8473 34.6573 16.8473 34.7364 16.8865C34.8154 16.9257 34.8549 16.9257 34.934 16.9649C34.9735 17.004 35.0525 17.0432 35.092 17.0824C35.1316 17.1216 35.1711 17.1608 35.2106 17.2391V16.1421H35.4872V18.728L35.2106 18.7671ZM35.1711 17.5526C35.1316 17.4742 35.092 17.3958 35.013 17.3175C34.934 17.2391 34.8944 17.1999 34.8154 17.1608C34.7364 17.1216 34.6573 17.1216 34.5783 17.1216C34.4993 17.1216 34.4202 17.1216 34.3412 17.1608C34.2622 17.1999 34.1831 17.2391 34.1436 17.2783C34.1041 17.3175 34.0251 17.3958 33.9855 17.5134C33.946 17.5917 33.946 17.7093 33.946 17.8268C33.946 17.9444 33.946 18.0227 33.9855 18.1011C34.0251 18.1794 34.0646 18.2578 34.1436 18.3362C34.1831 18.4145 34.2622 18.4537 34.3412 18.4929C34.4202 18.5321 34.4993 18.5321 34.5783 18.5321C34.6573 18.5321 34.7364 18.5321 34.8154 18.4929C34.8944 18.4537 34.9735 18.4145 35.013 18.3362C35.092 18.2578 35.1316 18.2186 35.1711 18.1011C35.2106 17.9835 35.2106 17.9052 35.2106 17.8268C35.2501 17.7485 35.2106 17.6309 35.1711 17.5526Z" stroke="white" stroke-width="0.1548" stroke-miterlimit="10"/>
<path d="M39.4385 18.2576C39.3989 18.3751 39.3199 18.4927 39.2409 18.571C39.1618 18.6494 39.0828 18.7277 38.9642 18.7669C38.8457 18.8061 38.7667 18.8453 38.6481 18.8453C38.5691 18.8453 38.49 18.8453 38.411 18.8061C38.332 18.7669 38.2924 18.7669 38.2134 18.7277C38.1344 18.6886 38.0949 18.6494 38.0553 18.6102C38.0158 18.571 37.9763 18.5318 37.9368 18.4535V18.8061H37.6602V16.2202H37.9368V17.3173C37.9763 17.2781 38.0158 17.1997 38.0553 17.1605C38.0949 17.1214 38.1344 17.0822 38.2134 17.043C38.2529 17.0038 38.332 16.9646 38.411 16.9646C38.49 16.9255 38.5691 16.9255 38.6481 16.9255C38.7667 16.9255 38.8457 16.9646 38.9642 17.0038C39.0828 17.043 39.1618 17.1214 39.2409 17.1997C39.3199 17.2781 39.3989 17.3956 39.4385 17.5132C39.478 17.6307 39.5175 17.7482 39.5175 17.905C39.5175 17.9833 39.478 18.14 39.4385 18.2576ZM39.1618 17.5523C39.1223 17.474 39.0828 17.3956 39.0038 17.3173C38.9247 17.2389 38.8852 17.1997 38.8062 17.1605C38.7271 17.1214 38.6481 17.1214 38.5691 17.1214C38.49 17.1214 38.411 17.1214 38.332 17.1605C38.2529 17.1997 38.1739 17.2389 38.1344 17.3173C38.0553 17.3956 38.0158 17.4348 37.9763 17.5523C37.9368 17.6307 37.9368 17.7482 37.9368 17.8266C37.9368 17.9441 37.9368 18.0225 37.9763 18.1009C38.0158 18.1792 38.0553 18.2576 38.1344 18.3359C38.2134 18.4143 38.2529 18.4535 38.332 18.4927C38.411 18.5318 38.49 18.5318 38.5691 18.5318C38.6481 18.5318 38.7271 18.5318 38.8062 18.4927C38.8852 18.4535 38.9642 18.4143 39.0038 18.3751C39.0433 18.2968 39.1223 18.2576 39.1618 18.14C39.2013 18.0617 39.2013 17.9441 39.2013 17.8266C39.2013 17.7482 39.2013 17.6307 39.1618 17.5523Z" fill="white"/>
<path d="M39.4385 18.2576C39.3989 18.3751 39.3199 18.4927 39.2409 18.571C39.1618 18.6494 39.0828 18.7277 38.9642 18.7669C38.8457 18.8061 38.7667 18.8453 38.6481 18.8453C38.5691 18.8453 38.49 18.8453 38.411 18.8061C38.332 18.7669 38.2924 18.7669 38.2134 18.7277C38.1344 18.6886 38.0949 18.6494 38.0553 18.6102C38.0158 18.571 37.9763 18.5318 37.9368 18.4535V18.8061H37.6602V16.2202H37.9368V17.3173C37.9763 17.2781 38.0158 17.1997 38.0553 17.1605C38.0949 17.1214 38.1344 17.0822 38.2134 17.043C38.2529 17.0038 38.332 16.9646 38.411 16.9646C38.49 16.9255 38.5691 16.9255 38.6481 16.9255C38.7667 16.9255 38.8457 16.9646 38.9642 17.0038C39.0828 17.043 39.1618 17.1214 39.2409 17.1997C39.3199 17.2781 39.3989 17.3956 39.4385 17.5132C39.478 17.6307 39.5175 17.7482 39.5175 17.905C39.5175 17.9833 39.478 18.14 39.4385 18.2576ZM39.1618 17.5523C39.1223 17.474 39.0828 17.3956 39.0038 17.3173C38.9247 17.2389 38.8852 17.1997 38.8062 17.1605C38.7271 17.1214 38.6481 17.1214 38.5691 17.1214C38.49 17.1214 38.411 17.1214 38.332 17.1605C38.2529 17.1997 38.1739 17.2389 38.1344 17.3173C38.0553 17.3956 38.0158 17.4348 37.9763 17.5523C37.9368 17.6307 37.9368 17.7482 37.9368 17.8266C37.9368 17.9441 37.9368 18.0225 37.9763 18.1009C38.0158 18.1792 38.0553 18.2576 38.1344 18.3359C38.2134 18.4143 38.2529 18.4535 38.332 18.4927C38.411 18.5318 38.49 18.5318 38.5691 18.5318C38.6481 18.5318 38.7271 18.5318 38.8062 18.4927C38.8852 18.4535 38.9642 18.4143 39.0038 18.3751C39.0433 18.2968 39.1223 18.2576 39.1618 18.14C39.2013 18.0617 39.2013 17.9441 39.2013 17.8266C39.2013 17.7482 39.2013 17.6307 39.1618 17.5523Z" stroke="white" stroke-width="0.1548" stroke-miterlimit="10"/>
<path d="M41.1382 18.8065C41.0592 19.0024 40.9801 19.12 40.8616 19.1983C40.7825 19.2767 40.664 19.3159 40.5059 19.3159C40.4269 19.3159 40.3478 19.3159 40.3083 19.2767C40.2293 19.2767 40.1898 19.2375 40.1107 19.1983L40.1898 19.0024C40.2293 19.0416 40.2688 19.0416 40.3083 19.0416C40.3478 19.0416 40.3874 19.0416 40.4664 19.0416C40.5454 19.0416 40.6245 19.0024 40.664 18.9633C40.7035 18.9241 40.7825 18.8065 40.8221 18.689L39.9922 16.8867H40.3083L40.9801 18.4147L41.5729 16.8867H41.8495L41.1382 18.8065Z" fill="white"/>
<path d="M41.1382 18.8065C41.0592 19.0024 40.9801 19.12 40.8616 19.1983C40.7825 19.2767 40.664 19.3159 40.5059 19.3159C40.4269 19.3159 40.3478 19.3159 40.3083 19.2767C40.2293 19.2767 40.1898 19.2375 40.1107 19.1983L40.1898 19.0024C40.2293 19.0416 40.2688 19.0416 40.3083 19.0416C40.3478 19.0416 40.3874 19.0416 40.4664 19.0416C40.5454 19.0416 40.6245 19.0024 40.664 18.9633C40.7035 18.9241 40.7825 18.8065 40.8221 18.689L39.9922 16.8867H40.3083L40.9801 18.4147L41.5729 16.8867H41.8495L41.1382 18.8065Z" stroke="white" stroke-width="0.1548" stroke-miterlimit="10"/>
<path d="M44.1409 18.7672H43.8643V16.965H44.1409V17.2784C44.2199 17.1609 44.299 17.0825 44.378 17.0433C44.4965 16.965 44.6151 16.9258 44.7732 16.9258C44.8917 16.9258 44.9708 16.9258 45.0498 16.965C45.1288 17.0041 45.2079 17.0433 45.2869 17.1217C45.3659 17.2 45.4054 17.2784 45.445 17.3568C45.4845 17.4351 45.4845 17.5527 45.4845 17.6702V18.8064H45.2079V17.7486C45.2079 17.5918 45.1683 17.4351 45.0893 17.3568C45.0103 17.2392 44.8917 17.2 44.6941 17.2C44.6151 17.2 44.5361 17.2 44.457 17.2392C44.378 17.2784 44.3385 17.3176 44.299 17.3568C44.2594 17.3959 44.2199 17.4743 44.1804 17.5527C44.1409 17.631 44.1409 17.7094 44.1409 17.7877V18.7672Z" fill="white"/>
<path d="M44.1409 18.7672H43.8643V16.965H44.1409V17.2784C44.2199 17.1609 44.299 17.0825 44.378 17.0433C44.4965 16.965 44.6151 16.9258 44.7732 16.9258C44.8917 16.9258 44.9708 16.9258 45.0498 16.965C45.1288 17.0041 45.2079 17.0433 45.2869 17.1217C45.3659 17.2 45.4054 17.2784 45.445 17.3568C45.4845 17.4351 45.4845 17.5527 45.4845 17.6702V18.8064H45.2079V17.7486C45.2079 17.5918 45.1683 17.4351 45.0893 17.3568C45.0103 17.2392 44.8917 17.2 44.6941 17.2C44.6151 17.2 44.5361 17.2 44.457 17.2392C44.378 17.2784 44.3385 17.3176 44.299 17.3568C44.2594 17.3959 44.2199 17.4743 44.1804 17.5527C44.1409 17.631 44.1409 17.7094 44.1409 17.7877V18.7672Z" stroke="white" stroke-width="0.1548" stroke-miterlimit="10"/>
<path d="M46.7887 17.2002C46.7096 17.2393 46.6306 17.2393 46.512 17.2785L46.433 17.0434C46.5516 17.0043 46.6306 16.9651 46.7491 16.9259C46.8677 16.8867 46.9863 16.8867 47.1048 16.8867C47.3419 16.8867 47.5395 16.9651 47.6976 17.0826C47.8161 17.2002 47.8952 17.3961 47.8952 17.6311V18.7282H47.6185V18.4539C47.5395 18.5323 47.4605 18.6106 47.3814 18.689C47.2629 18.7674 47.1443 18.7674 46.9863 18.7674C46.9072 18.7674 46.8282 18.7674 46.7491 18.7282C46.6701 18.689 46.5911 18.689 46.512 18.6106C46.433 18.5715 46.3935 18.4931 46.354 18.4147C46.3144 18.3364 46.3145 18.258 46.3145 18.1797C46.3145 18.1013 46.3144 17.9838 46.354 17.9446C46.3935 17.8662 46.433 17.827 46.512 17.7487C46.5911 17.7095 46.6701 17.6703 46.7491 17.6311C46.8282 17.592 46.9467 17.592 47.0653 17.592C47.1838 17.592 47.3024 17.592 47.3814 17.6311C47.4605 17.6311 47.5395 17.6703 47.6185 17.6703V17.592C47.6185 17.4352 47.579 17.3177 47.4605 17.2393C47.3814 17.161 47.2234 17.1218 47.0653 17.1218C46.9467 17.161 46.8677 17.161 46.7887 17.2002ZM46.6701 17.9446C46.5911 18.0229 46.512 18.1013 46.512 18.2188C46.512 18.258 46.512 18.3364 46.5516 18.3756C46.5911 18.4147 46.5911 18.4539 46.6701 18.4931C46.7096 18.5323 46.7491 18.5323 46.8282 18.5715C46.8677 18.5715 46.9467 18.6106 46.9863 18.6106C47.0653 18.6106 47.1443 18.6106 47.2234 18.5715C47.3024 18.5323 47.3814 18.5323 47.4209 18.4539C47.4605 18.4147 47.5395 18.3756 47.5395 18.2972C47.579 18.2188 47.579 18.1797 47.579 18.1013V17.9054C47.5 17.9054 47.4209 17.8662 47.3419 17.8662C47.2629 17.8662 47.1443 17.827 47.0258 17.827C46.9072 17.827 46.7887 17.8662 46.6701 17.9446Z" fill="white"/>
<path d="M46.7887 17.2002C46.7096 17.2393 46.6306 17.2393 46.512 17.2785L46.433 17.0434C46.5516 17.0043 46.6306 16.9651 46.7491 16.9259C46.8677 16.8867 46.9863 16.8867 47.1048 16.8867C47.3419 16.8867 47.5395 16.9651 47.6976 17.0826C47.8161 17.2002 47.8952 17.3961 47.8952 17.6311V18.7282H47.6185V18.4539C47.5395 18.5323 47.4605 18.6106 47.3814 18.689C47.2629 18.7674 47.1443 18.7674 46.9863 18.7674C46.9072 18.7674 46.8282 18.7674 46.7491 18.7282C46.6701 18.689 46.5911 18.689 46.512 18.6106C46.433 18.5715 46.3935 18.4931 46.354 18.4147C46.3144 18.3364 46.3145 18.258 46.3145 18.1797C46.3145 18.1013 46.3144 17.9838 46.354 17.9446C46.3935 17.8662 46.433 17.827 46.512 17.7487C46.5911 17.7095 46.6701 17.6703 46.7491 17.6311C46.8282 17.592 46.9467 17.592 47.0653 17.592C47.1838 17.592 47.3024 17.592 47.3814 17.6311C47.4605 17.6311 47.5395 17.6703 47.6185 17.6703V17.592C47.6185 17.4352 47.579 17.3177 47.4605 17.2393C47.3814 17.161 47.2234 17.1218 47.0653 17.1218C46.9467 17.161 46.8677 17.161 46.7887 17.2002ZM46.6701 17.9446C46.5911 18.0229 46.512 18.1013 46.512 18.2188C46.512 18.258 46.512 18.3364 46.5516 18.3756C46.5911 18.4147 46.5911 18.4539 46.6701 18.4931C46.7096 18.5323 46.7491 18.5323 46.8282 18.5715C46.8677 18.5715 46.9467 18.6106 46.9863 18.6106C47.0653 18.6106 47.1443 18.6106 47.2234 18.5715C47.3024 18.5323 47.3814 18.5323 47.4209 18.4539C47.4605 18.4147 47.5395 18.3756 47.5395 18.2972C47.579 18.2188 47.579 18.1797 47.579 18.1013V17.9054C47.5 17.9054 47.4209 17.8662 47.3419 17.8662C47.2629 17.8662 47.1443 17.827 47.0258 17.827C46.9072 17.827 46.7887 17.8662 46.6701 17.9446Z" stroke="white" stroke-width="0.1548" stroke-miterlimit="10"/>
<path d="M49.1206 18.2578C49.1206 18.3754 49.1601 18.4537 49.1997 18.4929C49.2392 18.5321 49.3182 18.5713 49.4368 18.5713C49.4763 18.5713 49.5158 18.5713 49.5553 18.5713C49.5948 18.5713 49.6344 18.5321 49.6739 18.5321V18.7672C49.6344 18.8064 49.5948 18.8064 49.5158 18.8064C49.4763 18.8064 49.3973 18.8455 49.3182 18.8455C49.2392 18.8455 49.1601 18.8455 49.1206 18.8064C49.0811 18.7672 49.0021 18.7672 48.9626 18.728C48.923 18.6888 48.8835 18.6496 48.844 18.5713C48.8045 18.4929 48.8045 18.4146 48.8045 18.3362V17.2392H48.5674V17.0041H48.8045V16.4556H49.0811V17.0041H49.6739V17.2392H49.0811V18.2578H49.1206Z" fill="white"/>
<path d="M49.1206 18.2578C49.1206 18.3754 49.1601 18.4537 49.1997 18.4929C49.2392 18.5321 49.3182 18.5713 49.4368 18.5713C49.4763 18.5713 49.5158 18.5713 49.5553 18.5713C49.5948 18.5713 49.6344 18.5321 49.6739 18.5321V18.7672C49.6344 18.8064 49.5948 18.8064 49.5158 18.8064C49.4763 18.8064 49.3973 18.8455 49.3182 18.8455C49.2392 18.8455 49.1601 18.8455 49.1206 18.8064C49.0811 18.7672 49.0021 18.7672 48.9626 18.728C48.923 18.6888 48.8835 18.6496 48.844 18.5713C48.8045 18.4929 48.8045 18.4146 48.8045 18.3362V17.2392H48.5674V17.0041H48.8045V16.4556H49.0811V17.0041H49.6739V17.2392H49.0811V18.2578H49.1206Z" stroke="white" stroke-width="0.1548" stroke-miterlimit="10"/>
<path d="M51.8075 16.9259H52.0841V18.7282H51.8075V18.4147C51.7284 18.5323 51.6494 18.6106 51.5704 18.6498C51.4518 18.7282 51.3333 18.7674 51.1752 18.7674C51.0566 18.7674 50.9776 18.7674 50.8986 18.7282C50.8195 18.689 50.7405 18.6498 50.6615 18.5715C50.5824 18.4931 50.5429 18.4147 50.5034 18.3364C50.4639 18.258 50.4639 18.1405 50.4639 18.0229V16.8867H50.7405V17.9446C50.7405 18.1013 50.78 18.258 50.859 18.3364C50.9381 18.4539 51.0566 18.4931 51.2147 18.4931C51.2937 18.4931 51.3728 18.4931 51.4518 18.4539C51.5308 18.4147 51.5704 18.3756 51.6099 18.3364C51.6494 18.2972 51.6889 18.2188 51.7284 18.1405C51.7679 18.0621 51.7679 17.9838 51.7679 17.9054L51.8075 16.9259Z" fill="white"/>
<path d="M51.8075 16.9259H52.0841V18.7282H51.8075V18.4147C51.7284 18.5323 51.6494 18.6106 51.5704 18.6498C51.4518 18.7282 51.3333 18.7674 51.1752 18.7674C51.0566 18.7674 50.9776 18.7674 50.8986 18.7282C50.8195 18.689 50.7405 18.6498 50.6615 18.5715C50.5824 18.4931 50.5429 18.4147 50.5034 18.3364C50.4639 18.258 50.4639 18.1405 50.4639 18.0229V16.8867H50.7405V17.9446C50.7405 18.1013 50.78 18.258 50.859 18.3364C50.9381 18.4539 51.0566 18.4931 51.2147 18.4931C51.2937 18.4931 51.3728 18.4931 51.4518 18.4539C51.5308 18.4147 51.5704 18.3756 51.6099 18.3364C51.6494 18.2972 51.6889 18.2188 51.7284 18.1405C51.7679 18.0621 51.7679 17.9838 51.7679 17.9054L51.8075 16.9259Z" stroke="white" stroke-width="0.1548" stroke-miterlimit="10"/>
<path d="M53.3098 18.7672H53.0332V16.965H53.3098V17.4351C53.3493 17.3568 53.3889 17.2784 53.4284 17.2392C53.4679 17.1609 53.5469 17.1217 53.5865 17.0825C53.6655 17.0433 53.705 17.0041 53.784 16.965C53.8631 16.9258 53.9421 16.9258 54.0211 16.9258V17.2H53.9816C53.8631 17.2 53.784 17.2 53.705 17.2392C53.626 17.2784 53.5469 17.3176 53.4679 17.3959C53.3889 17.4743 53.3493 17.5527 53.3098 17.6702C53.2703 17.7877 53.2703 17.9053 53.2703 18.0228L53.3098 18.7672Z" fill="white"/>
<path d="M53.3098 18.7672H53.0332V16.965H53.3098V17.4351C53.3493 17.3568 53.3889 17.2784 53.4284 17.2392C53.4679 17.1609 53.5469 17.1217 53.5865 17.0825C53.6655 17.0433 53.705 17.0041 53.784 16.965C53.8631 16.9258 53.9421 16.9258 54.0211 16.9258V17.2H53.9816C53.8631 17.2 53.784 17.2 53.705 17.2392C53.626 17.2784 53.5469 17.3176 53.4679 17.3959C53.3889 17.4743 53.3493 17.5527 53.3098 17.6702C53.2703 17.7877 53.2703 17.9053 53.2703 18.0228L53.3098 18.7672Z" stroke="white" stroke-width="0.1548" stroke-miterlimit="10"/>
<path d="M54.9689 18.2185C55.0085 18.2968 55.048 18.3752 55.127 18.4144C55.1665 18.4535 55.2456 18.4927 55.3246 18.5319C55.4036 18.5711 55.4827 18.5711 55.5617 18.5711C55.6803 18.5711 55.7988 18.5319 55.8778 18.4927C55.9569 18.4535 56.0359 18.3752 56.1149 18.2968L56.273 18.4535C56.194 18.5711 56.0754 18.6494 55.9569 18.6886C55.8383 18.767 55.6803 18.767 55.5222 18.767C55.4036 18.767 55.2851 18.7278 55.1665 18.6886C55.048 18.6494 54.9689 18.5711 54.8899 18.4927C54.8109 18.4144 54.7318 18.2968 54.6923 18.1793C54.6528 18.0617 54.6133 17.9442 54.6133 17.7875C54.6133 17.6699 54.6528 17.5524 54.6923 17.4349C54.7318 17.3173 54.8109 17.1998 54.8899 17.1214C54.9689 17.0431 55.048 16.9647 55.1665 16.9255C55.2851 16.8863 55.4036 16.8472 55.5222 16.8472C55.6407 16.8472 55.7593 16.8863 55.8778 16.9255C55.9964 16.9647 56.0754 17.0431 56.1545 17.1214C56.2335 17.1998 56.273 17.3173 56.3125 17.4349C56.3521 17.5524 56.3521 17.6699 56.3521 17.8267V17.8658V17.905H54.8899C54.9294 18.0617 54.9294 18.1401 54.9689 18.2185ZM56.0754 17.7483C56.0754 17.6699 56.0359 17.5916 56.0359 17.5132C55.9964 17.4349 55.9569 17.3565 55.9174 17.3173C55.8778 17.2781 55.7988 17.1998 55.7593 17.1998C55.6803 17.1606 55.6012 17.1606 55.5222 17.1606C55.4431 17.1606 55.3641 17.1606 55.2851 17.1998C55.206 17.239 55.1665 17.2781 55.0875 17.3173C55.048 17.3565 55.0085 17.4349 54.9689 17.5132C54.9294 17.5916 54.9294 17.6699 54.8899 17.7483H56.0754Z" fill="white"/>
<path d="M54.9689 18.2185C55.0085 18.2968 55.048 18.3752 55.127 18.4144C55.1665 18.4535 55.2456 18.4927 55.3246 18.5319C55.4036 18.5711 55.4827 18.5711 55.5617 18.5711C55.6803 18.5711 55.7988 18.5319 55.8778 18.4927C55.9569 18.4535 56.0359 18.3752 56.1149 18.2968L56.273 18.4535C56.194 18.5711 56.0754 18.6494 55.9569 18.6886C55.8383 18.767 55.6803 18.767 55.5222 18.767C55.4036 18.767 55.2851 18.7278 55.1665 18.6886C55.048 18.6494 54.9689 18.5711 54.8899 18.4927C54.8109 18.4144 54.7318 18.2968 54.6923 18.1793C54.6528 18.0617 54.6133 17.9442 54.6133 17.7875C54.6133 17.6699 54.6528 17.5524 54.6923 17.4349C54.7318 17.3173 54.8109 17.1998 54.8899 17.1214C54.9689 17.0431 55.048 16.9647 55.1665 16.9255C55.2851 16.8863 55.4036 16.8472 55.5222 16.8472C55.6407 16.8472 55.7593 16.8863 55.8778 16.9255C55.9964 16.9647 56.0754 17.0431 56.1545 17.1214C56.2335 17.1998 56.273 17.3173 56.3125 17.4349C56.3521 17.5524 56.3521 17.6699 56.3521 17.8267V17.8658V17.905H54.8899C54.9294 18.0617 54.9294 18.1401 54.9689 18.2185ZM56.0754 17.7483C56.0754 17.6699 56.0359 17.5916 56.0359 17.5132C55.9964 17.4349 55.9569 17.3565 55.9174 17.3173C55.8778 17.2781 55.7988 17.1998 55.7593 17.1998C55.6803 17.1606 55.6012 17.1606 55.5222 17.1606C55.4431 17.1606 55.3641 17.1606 55.2851 17.1998C55.206 17.239 55.1665 17.2781 55.0875 17.3173C55.048 17.3565 55.0085 17.4349 54.9689 17.5132C54.9294 17.5916 54.9294 17.6699 54.8899 17.7483H56.0754Z" stroke="white" stroke-width="0.1548" stroke-miterlimit="10"/>
</svg>
