<svg width="33" height="33" viewBox="0 0 33 33" fill="none" xmlns="http://www.w3.org/2000/svg">
<path d="M22.6875 11.8662C22.1237 11.8662 21.6562 11.3987 21.6562 10.8349V8.93742C21.6562 7.49367 21.0375 6.09117 19.965 5.11492C18.8788 4.12492 17.4763 3.67117 15.9913 3.80867C13.5163 4.04242 11.3438 6.57242 11.3438 9.21242V10.5462C11.3438 11.1099 10.8763 11.5774 10.3125 11.5774C9.74875 11.5774 9.28125 11.1099 9.28125 10.5462V9.19867C9.28125 5.49992 12.265 2.08992 15.7987 1.74617C17.8612 1.55367 19.8412 2.19992 21.3537 3.58867C22.098 4.26697 22.6926 5.09293 23.0998 6.01386C23.507 6.93479 23.7178 7.93048 23.7188 8.93742V10.8349C23.7188 11.3987 23.2513 11.8662 22.6875 11.8662Z" fill="white"/>
<path d="M20.625 31.2812H12.375C6.02249 31.2812 4.83999 28.325 4.53749 25.4513L3.50624 17.215C3.35499 15.73 3.29999 13.5987 4.74374 12.0037C5.98124 10.6287 8.02999 9.96875 11 9.96875H22C24.9837 9.96875 27.0325 10.6425 28.2562 12.0037C29.6862 13.5987 29.645 15.73 29.4937 17.1875L28.4625 25.4513C28.16 28.325 26.9775 31.2812 20.625 31.2812ZM11 12.0312C8.67624 12.0312 7.08124 12.485 6.26999 13.3925C5.59624 14.135 5.37624 15.2763 5.55499 16.9813L6.58624 25.2175C6.81999 27.4175 7.42499 29.2325 12.375 29.2325H20.625C25.575 29.2325 26.18 27.4313 26.4137 25.245L27.445 16.9813C27.6237 15.3038 27.4037 14.1625 26.73 13.4062C25.9187 12.485 24.3237 12.0312 22 12.0312H11Z" fill="white"/>
<path d="M21.2025 18.0781C20.4325 18.0781 19.8137 17.4594 19.8137 16.7031C19.8137 15.9469 20.4325 15.3281 21.1887 15.3281C21.945 15.3281 22.5637 15.9469 22.5637 16.7031C22.5637 17.4594 21.9587 18.0781 21.2025 18.0781ZM11.5775 18.0781C10.8075 18.0781 10.1887 17.4594 10.1887 16.7031C10.1887 15.9469 10.8075 15.3281 11.5637 15.3281C12.32 15.3281 12.9387 15.9469 12.9387 16.7031C12.9387 17.4594 12.3337 18.0781 11.5775 18.0781Z" fill="white"/>
</svg>
