<svg width="38" height="24" viewBox="0 0 38 24" fill="none" xmlns="http://www.w3.org/2000/svg">
<g clip-path="url(#clip0_125_4043)">
<path d="M21.0894 17.6137C20.9961 17.491 20.8775 17.3901 20.7336 17.3149C20.5898 17.2397 20.4206 17.2021 20.2223 17.2021C20.024 17.2021 19.8529 17.2397 19.711 17.3149C19.569 17.3901 19.4485 17.491 19.3552 17.6137C19.2618 17.7363 19.1918 17.8748 19.1452 18.0291C19.0985 18.1834 19.0752 18.3378 19.0752 18.496C19.0752 18.6543 19.0985 18.8106 19.1452 18.9669C19.1918 19.1232 19.2618 19.2636 19.3552 19.3863C19.4485 19.509 19.5671 19.6099 19.711 19.689C19.8548 19.7681 20.024 19.8057 20.2223 19.8057C20.4206 19.8057 20.5917 19.7662 20.7336 19.689C20.8775 19.6099 20.9942 19.509 21.0894 19.3863C21.1827 19.2636 21.2527 19.1232 21.2994 18.9669C21.3461 18.8106 21.3694 18.6523 21.3694 18.496C21.3694 18.3397 21.3461 18.1834 21.2994 18.0291C21.2527 17.8748 21.1827 17.7363 21.0894 17.6137Z" fill="#F2F2F2"/>
<path d="M26.1265 17.6137C26.0332 17.491 25.9146 17.3901 25.7707 17.3149C25.6269 17.2397 25.4577 17.2021 25.2594 17.2021C25.0611 17.2021 24.89 17.2397 24.7481 17.3149C24.6042 17.3901 24.4856 17.491 24.3923 17.6137C24.299 17.7363 24.229 17.8748 24.1823 18.0291C24.1356 18.1834 24.1123 18.3378 24.1123 18.496C24.1123 18.6543 24.1356 18.8106 24.1823 18.9669C24.229 19.1232 24.299 19.2636 24.3923 19.3863C24.4856 19.509 24.6042 19.6099 24.7481 19.689C24.89 19.7681 25.0611 19.8057 25.2594 19.8057C25.4577 19.8057 25.6288 19.7662 25.7707 19.689C25.9146 19.6099 26.0332 19.509 26.1265 19.3863C26.2199 19.2636 26.2898 19.1232 26.3365 18.9669C26.3832 18.8106 26.4065 18.6523 26.4065 18.496C26.4065 18.3397 26.3832 18.1834 26.3365 18.0291C26.2898 17.8748 26.2199 17.7363 26.1265 17.6137Z" fill="#F2F2F2"/>
<path d="M34.5684 0H3.43157C1.53594 0 0 1.56294 0 3.49188V20.5101C0 22.439 1.53594 24.002 3.43157 24.002H34.5684C36.4641 24.002 38 22.439 38 20.5101V3.49188C38 1.56294 36.4641 0 34.5684 0ZM23.2491 5.47226C24.1474 5.47226 24.8764 6.21416 24.8764 7.12818C24.8764 8.04221 24.1474 8.78411 23.2491 8.78411C22.3509 8.78411 21.6218 8.04221 21.6218 7.12818C21.6218 6.21416 22.3509 5.47226 23.2491 5.47226ZM19.7203 2.22966C20.3892 2.22966 20.9316 2.78163 20.9316 3.4622C20.9316 4.14278 20.3892 4.69475 19.7203 4.69475C19.0515 4.69475 18.5091 4.14278 18.5091 3.4622C18.5091 2.78163 19.0515 2.22966 19.7203 2.22966ZM18.4741 9.01162C19.8312 9.01162 20.9296 10.1294 20.9296 11.5103C20.9296 12.8913 19.8312 14.0091 18.4741 14.0091C17.117 14.0091 16.0185 12.8913 16.0185 11.5103C16.0185 10.1294 17.117 9.01162 18.4741 9.01162ZM8.1716 17.9045C8.31742 17.9698 8.53129 18.0351 8.81126 18.1024C8.95902 18.136 9.11067 18.1815 9.26037 18.2369C9.41202 18.2923 9.55006 18.3675 9.67255 18.4605C9.79698 18.5535 9.89614 18.6682 9.97391 18.8047C10.0517 18.9412 10.0886 19.1094 10.0886 19.3053C10.0886 19.5526 10.0439 19.7603 9.95252 19.9304C9.86114 20.1006 9.7406 20.2391 9.58895 20.3459C9.4373 20.4527 9.26037 20.5299 9.06012 20.5774C8.85986 20.6248 8.65183 20.6486 8.43602 20.6486C8.12689 20.6486 7.82747 20.5912 7.53584 20.4765C7.24421 20.3617 7.00118 20.1975 6.8087 19.9858L7.46196 19.3646C7.57278 19.511 7.71471 19.6297 7.89163 19.7267C8.06856 19.8216 8.26298 19.8691 8.47685 19.8691C8.54878 19.8691 8.62072 19.8612 8.69655 19.8434C8.77043 19.8276 8.84042 19.7999 8.90263 19.7642C8.96679 19.7286 9.01735 19.6792 9.05623 19.6178C9.09511 19.5565 9.11456 19.4813 9.11456 19.3903C9.11456 19.2222 9.03873 19.1015 8.88708 19.0283C8.73543 18.9551 8.50796 18.8819 8.2066 18.8107C8.05884 18.777 7.91302 18.7335 7.77304 18.6801C7.63305 18.6267 7.50668 18.5574 7.3978 18.4704C7.28698 18.3833 7.19949 18.2765 7.13338 18.1479C7.06728 18.0193 7.03423 17.859 7.03423 17.6691C7.03423 17.4456 7.07895 17.2517 7.17032 17.0894C7.2617 16.9272 7.3803 16.7947 7.53001 16.6898C7.67777 16.5869 7.84692 16.5098 8.03356 16.4583C8.22021 16.4089 8.41269 16.3832 8.611 16.3832C8.8968 16.3832 9.17677 16.4326 9.44896 16.5335C9.72116 16.6344 9.93697 16.7887 10.0964 16.9965L9.45285 17.5761C9.36536 17.4594 9.24288 17.3565 9.08928 17.2695C8.93569 17.1824 8.76654 17.1389 8.58572 17.1389C8.4263 17.1389 8.28048 17.1725 8.14827 17.2398C8.01607 17.3071 7.94996 17.4198 7.94996 17.5761C7.94996 17.7324 8.02384 17.8432 8.16966 17.9085L8.1716 17.9045ZM17.1423 20.5299H16.1507V18.2943C16.1507 18.1776 16.143 18.0529 16.1255 17.9243C16.108 17.7957 16.073 17.679 16.0185 17.5761C15.9641 17.4733 15.8883 17.3862 15.791 17.3189C15.6938 17.2517 15.5675 17.218 15.408 17.218C15.2486 17.218 15.1222 17.2517 15.0114 17.3189C14.9006 17.3862 14.8112 17.4733 14.7392 17.5801C14.6673 17.6869 14.6148 17.8056 14.5817 17.9382C14.5487 18.0707 14.5331 18.1993 14.5331 18.3279V20.5299H13.5416V18.0925C13.5416 17.8412 13.4832 17.6315 13.3646 17.4673C13.246 17.3031 13.0613 17.22 12.8067 17.22C12.6589 17.22 12.5286 17.2517 12.4178 17.317C12.307 17.3822 12.2176 17.4634 12.1495 17.5643C12.0815 17.6652 12.029 17.7819 11.992 17.9125C11.957 18.045 11.9376 18.1776 11.9376 18.3121V20.5299H10.946V16.4959H11.887V17.1429H11.9026C11.9473 17.042 12.0056 16.947 12.0795 16.858C12.1534 16.7689 12.2409 16.6878 12.3439 16.6146C12.445 16.5414 12.5636 16.4841 12.6939 16.4425C12.8261 16.401 12.9719 16.3792 13.1313 16.3792C13.4405 16.3792 13.6952 16.4484 13.8993 16.5889C14.1035 16.7294 14.259 16.9134 14.3698 17.1429C14.502 16.8956 14.6789 16.7076 14.8986 16.5751C15.1183 16.4425 15.3769 16.3772 15.6744 16.3772C15.933 16.3772 16.1546 16.4227 16.3393 16.5157C16.524 16.6087 16.6757 16.7294 16.7943 16.8817C16.9129 17.0321 16.9984 17.2062 17.0548 17.402C17.1092 17.5979 17.1365 17.7997 17.1365 18.0074V20.5279L17.1423 20.5299ZM22.209 19.3705C22.0962 19.6337 21.9426 19.8592 21.7501 20.0472C21.5576 20.2351 21.3282 20.3815 21.0657 20.4883C20.8013 20.5952 20.5214 20.6486 20.2239 20.6486C19.9264 20.6486 19.6465 20.5952 19.382 20.4883C19.1176 20.3815 18.8902 20.2351 18.6977 20.0472C18.5052 19.8592 18.3516 19.6337 18.2388 19.3705C18.1261 19.1074 18.0697 18.8166 18.0697 18.4961C18.0697 18.1756 18.1261 17.8867 18.2388 17.6256C18.3516 17.3644 18.5052 17.1429 18.6977 16.9569C18.8902 16.7729 19.1196 16.6285 19.382 16.5276C19.6465 16.4267 19.9264 16.3772 20.2239 16.3772C20.5214 16.3772 20.8013 16.4267 21.0657 16.5276C21.3302 16.6285 21.5576 16.7709 21.7501 16.9569C21.9426 17.1409 22.0962 17.3644 22.209 17.6256C22.3217 17.8867 22.3781 18.1756 22.3781 18.4961C22.3781 18.8166 22.3217 19.1074 22.209 19.3705ZM27.2465 19.3705C27.1337 19.6337 26.9801 19.8592 26.7876 20.0472C26.5951 20.2351 26.3657 20.3815 26.1013 20.4883C25.8369 20.5952 25.5569 20.6486 25.2595 20.6486C24.962 20.6486 24.682 20.5952 24.4176 20.4883C24.1532 20.3815 23.9257 20.2351 23.7332 20.0472C23.5408 19.8592 23.3872 19.6337 23.2744 19.3705C23.1616 19.1074 23.1052 18.8166 23.1052 18.4961C23.1052 18.1756 23.1616 17.8867 23.2744 17.6256C23.3872 17.3644 23.5408 17.1429 23.7332 16.9569C23.9257 16.7729 24.1551 16.6285 24.4176 16.5276C24.682 16.4267 24.962 16.3772 25.2595 16.3772C25.5569 16.3772 25.8369 16.4267 26.1013 16.5276C26.3657 16.6285 26.5932 16.7709 26.7876 16.9569C26.9801 17.1409 27.1337 17.3644 27.2465 17.6256C27.3592 17.8867 27.4156 18.1756 27.4156 18.4961C27.4156 18.8166 27.3592 19.1074 27.2465 19.3705ZM29.2607 17.9045C29.4065 17.9698 29.6204 18.0351 29.9003 18.1024C30.0481 18.136 30.1997 18.1815 30.3495 18.2369C30.5011 18.2923 30.6391 18.3675 30.7616 18.4605C30.8861 18.5535 30.9852 18.6682 31.063 18.8047C31.1388 18.9412 31.1777 19.1094 31.1777 19.3053C31.1777 19.5526 31.133 19.7603 31.0416 19.9304C30.9502 20.1006 30.8297 20.2391 30.678 20.3459C30.5264 20.4527 30.3514 20.5299 30.1492 20.5774C29.9489 20.6248 29.7409 20.6486 29.5251 20.6486C29.216 20.6486 28.9166 20.5912 28.6249 20.4765C28.3333 20.3617 28.0903 20.1975 27.8978 19.9858L28.5491 19.3646C28.6599 19.511 28.8018 19.6297 28.9788 19.7267C29.1557 19.8216 29.3501 19.8691 29.5659 19.8691C29.6379 19.8691 29.7098 19.8612 29.7856 19.8434C29.8595 19.8276 29.9276 19.7999 29.9917 19.7642C30.0559 19.7286 30.1064 19.6792 30.1453 19.6178C30.1842 19.5565 30.2036 19.4813 30.2036 19.3903C30.2036 19.2222 30.1278 19.1015 29.9762 19.0283C29.8245 18.9551 29.597 18.8819 29.2957 18.8107C29.1479 18.777 29.0021 18.7335 28.8621 18.6801C28.7221 18.6267 28.5958 18.5574 28.4869 18.4704C28.3761 18.3833 28.2886 18.2765 28.2225 18.1479C28.1564 18.0193 28.1233 17.859 28.1233 17.6691C28.1233 17.4456 28.168 17.2517 28.2594 17.0894C28.3508 16.9272 28.4694 16.7947 28.6191 16.6898C28.7668 16.5869 28.936 16.5098 29.1226 16.4583C29.3093 16.4089 29.5018 16.3832 29.7001 16.3832C29.9859 16.3832 30.2659 16.4326 30.538 16.5335C30.8102 16.6344 31.026 16.7887 31.1855 16.9965L30.5419 17.5761C30.4544 17.4594 30.332 17.3565 30.1784 17.2695C30.0248 17.1824 29.8556 17.1389 29.6748 17.1389C29.5154 17.1389 29.3696 17.1725 29.2374 17.2398C29.1051 17.3071 29.039 17.4198 29.039 17.5761C29.039 17.7324 29.111 17.8432 29.2587 17.9085L29.2607 17.9045ZM32.1693 16.1517H31.9204V16.8085H31.7046V16.1517H31.4557V15.9499H32.1693V16.1517ZM33.1083 16.8085H32.8925V16.4544L32.7214 16.6581H32.6514L32.4803 16.4544V16.8065H32.2645V15.9479H32.3326L32.6864 16.3871L33.0403 15.9479H33.1103V16.8065L33.1083 16.8085Z" fill="#F2F2F2"/>
</g>
<defs>
<clipPath id="clip0_125_4043">
<rect width="38" height="24" fill="white"/>
</clipPath>
</defs>
</svg>
