<svg width="54" height="11" viewBox="0 0 54 11" fill="none" xmlns="http://www.w3.org/2000/svg">
<g clip-path="url(#clip0_125_4044)">
<path d="M6.44019 5.46555L5.20456 10.1933H2.31981L0 1.82568H3.02658L3.94008 6.52983H3.98816L4.97378 1.82568H7.9643L9.03406 6.52983H9.08214L10.0077 1.82568H12.9381L10.5726 10.1933H7.69025L6.49067 5.46555H6.4426H6.44019Z" fill="white"/>
<path d="M16.0965 6.26745V6.2438C16.0965 5.87485 15.8561 5.68801 15.3753 5.68801C14.8945 5.68801 14.4738 5.86539 14.0411 6.22015L12.6588 4.87206C13.0338 4.51729 13.4906 4.24058 14.0219 4.03718C14.5531 3.83615 15.1012 3.73682 15.6614 3.73682C16.2215 3.73682 16.7311 3.81723 17.1398 3.97805C17.5485 4.13888 17.8634 4.37302 18.0821 4.67575C18.3033 4.97848 18.4596 5.31196 18.5557 5.67382C18.6519 6.03568 18.6999 6.44957 18.6999 6.91549V10.1888H16.1878V9.69209H16.1638C16.0195 9.91441 15.8008 10.0776 15.5075 10.1888C15.2142 10.2976 14.9161 10.3543 14.6132 10.3543C14.0363 10.3543 13.5266 10.1911 13.0819 9.86238C12.6372 9.53363 12.416 9.0346 12.416 8.35582C12.416 7.9443 12.5242 7.59427 12.7405 7.30336C12.9569 7.01246 13.255 6.79487 13.6348 6.65296C14.0146 6.51106 14.4041 6.41173 14.7983 6.3526C15.1926 6.29347 15.6301 6.26509 16.0941 6.26509L16.0965 6.26745ZM16.2768 7.61555H16.1205C15.2166 7.61555 14.7647 7.82131 14.7647 8.23047C14.7647 8.38893 14.832 8.50955 14.969 8.58997C15.106 8.67038 15.2503 8.71532 15.4017 8.71532C15.6662 8.71532 15.8777 8.63254 16.0388 8.46698C16.1998 8.30143 16.2792 8.08857 16.2792 7.82841V7.61792L16.2768 7.61555Z" fill="white"/>
<path d="M25.7053 3.97559V10.191H23.0009V9.50515H22.9768C22.8085 9.74875 22.5633 9.95215 22.2388 10.1153C21.9143 10.2785 21.5609 10.3566 21.1763 10.3566C20.7532 10.3566 20.3854 10.2833 20.0777 10.1319C19.7699 9.98053 19.5368 9.77477 19.3757 9.51224C19.2146 9.24972 19.0992 8.97301 19.0271 8.68447C18.955 8.39593 18.9189 8.08846 18.9189 7.75735V3.97559H21.7051V7.26069C21.7051 7.82831 21.9047 8.11212 22.3061 8.11212C22.4912 8.11212 22.6403 8.0388 22.7557 7.88743C22.8734 7.73607 22.9287 7.52794 22.9287 7.26069V3.97559H25.7053Z" fill="white"/>
<path d="M33.4652 7.05985C33.4652 7.94203 33.2079 8.71304 32.6959 9.37053C32.1839 10.028 31.4795 10.3568 30.5828 10.3568C30.191 10.3568 29.816 10.2835 29.4602 10.1321C29.1044 9.98073 28.8376 9.78679 28.6621 9.54082H28.638V10.1912H26.1523V1.2583H28.9145V4.47245H28.9385C29.1236 4.26669 29.3664 4.10586 29.6645 3.98761C29.965 3.86935 30.2703 3.81023 30.5852 3.81023C31.4747 3.81023 32.1767 4.13424 32.6935 4.78464C33.2103 5.4374 33.4676 6.19423 33.4676 7.06221L33.4652 7.05985ZM30.8953 7.05985C30.8953 6.77604 30.804 6.5348 30.6189 6.33377C30.4338 6.13274 30.1814 6.03104 29.8616 6.03104C29.5419 6.03104 29.2919 6.13037 29.0876 6.33377C28.8832 6.53717 28.7799 6.77604 28.7799 7.05985C28.7799 7.35785 28.8808 7.60855 29.0804 7.80958C29.2799 8.01061 29.5395 8.11231 29.8616 8.11231C30.1838 8.11231 30.4338 8.01298 30.6189 7.81668C30.804 7.62037 30.8953 7.36968 30.8953 7.05985Z" fill="white"/>
<path d="M40.2542 7.14276C40.2542 7.33907 40.247 7.533 40.2302 7.72221H35.9776C36.0016 7.93507 36.1218 8.10772 36.3382 8.23543C36.5545 8.36551 36.7949 8.43174 37.0594 8.43174C37.5161 8.43174 37.8599 8.28746 38.0931 7.99419L40.0643 8.9757C39.783 9.42507 39.3768 9.77983 38.8383 10.04C38.2998 10.3002 37.6844 10.4302 36.9896 10.4302C36.3574 10.4302 35.7732 10.3072 35.242 10.0636C34.7107 9.82004 34.2708 9.43689 33.927 8.91894C33.5832 8.40099 33.4102 7.78843 33.4102 7.086C33.4102 6.08557 33.7467 5.27908 34.4174 4.66416C35.0881 4.04924 35.9271 3.74414 36.9295 3.74414C37.932 3.74414 38.7157 4.06579 39.3311 4.70673C39.9465 5.35003 40.2542 6.16362 40.2542 7.14749V7.14276ZM35.9535 6.25586H37.8647C37.8647 6.03591 37.7805 5.85379 37.6123 5.71189C37.444 5.56998 37.2228 5.49903 36.9512 5.49903C36.6795 5.49903 36.4415 5.57708 36.2588 5.73081C36.0809 5.88454 35.9776 6.05956 35.9535 6.25586Z" fill="white"/>
<path d="M40.3965 10.1935V3.97569H43.0625V4.68522H43.0865C43.2307 4.42506 43.4399 4.21456 43.7115 4.05374C43.9832 3.89291 44.2909 3.8125 44.6371 3.8125C44.8534 3.8125 45.0289 3.83142 45.1659 3.87163L44.9496 6.18941C44.7813 6.14211 44.5842 6.11846 44.3606 6.11846C44.0072 6.11846 43.7212 6.22015 43.5024 6.42592C43.2812 6.63168 43.1731 6.88238 43.1731 7.18274V10.1959H40.3965V10.1935Z" fill="white"/>
<path d="M52.7983 3.9733C53.1637 3.32527 53.4377 2.64176 53.6565 1.92987C53.7911 1.48997 53.8969 1.0477 53.9858 0.600697C54.0603 0.229379 53.8271 -0.0284147 53.469 0.0117917C53.2911 0.0330775 53.1877 0.163157 53.0819 0.283776C52.8656 0.529745 52.6276 0.754428 52.38 0.96965C51.8631 1.41902 51.3078 1.81871 50.7501 2.21368C50.3895 2.46911 50.0193 2.71272 49.6539 2.96105C49.6298 2.93976 49.6058 2.91848 49.5794 2.89956C48.3774 2.04103 47.1225 1.24636 46.1297 0.137141C45.9854 -0.0260496 45.7643 -0.0402401 45.5792 0.0638235C45.3917 0.167887 45.3075 0.354729 45.3484 0.565221C45.3676 0.664555 45.3869 0.763888 45.4061 0.863222C45.697 2.36268 46.2908 3.73443 47.197 4.9761C47.0071 5.20788 46.8076 5.43256 46.6249 5.66907C45.7811 6.75701 45.346 7.98449 45.3316 9.35387C45.3268 9.73938 45.3556 10.1202 45.4013 10.5033C45.4301 10.7587 45.5335 10.9077 45.7499 10.974C45.9638 11.0378 46.1369 10.974 46.298 10.7611C46.4831 10.5175 46.6826 10.2833 46.8941 10.0634C47.524 9.4059 48.2259 8.82646 48.9231 8.23991C49.1779 8.02469 49.4207 7.79528 49.6947 7.60134C49.9568 7.82839 50.2284 8.04598 50.4905 8.27303C51.1395 8.83355 51.8054 9.37988 52.4088 9.99244C52.4088 10.0587 52.4617 10.0847 52.5098 10.1154C52.5939 10.1982 52.6853 10.2763 52.7454 10.3803L52.7478 10.3827C52.8848 10.5033 52.9834 10.6523 53.0963 10.7942C53.2189 10.9456 53.3776 11.0094 53.5723 10.9621C53.7695 10.9148 53.8776 10.7847 53.9017 10.5908C53.9281 10.3803 53.9546 10.1675 53.969 9.9546C54.1084 8.03888 53.469 6.40225 52.1324 5.01631C52.3679 4.6781 52.5915 4.3328 52.7958 3.9733H52.7983Z" fill="white"/>
</g>
<defs>
<clipPath id="clip0_125_4044">
<rect width="54" height="11" fill="white"/>
</clipPath>
</defs>
</svg>
